<?xml version="1.0" encoding="UTF-8"?>
<svg id="Capa_2" data-name="Capa 2" xmlns="http://www.w3.org/2000/svg" viewBox="0 0 134.19 134.38">
  <defs>
    <style>
      .cls-1 {
        fill: #143a4c;
      }

      .cls-1, .cls-2, .cls-3, .cls-4, .cls-5, .cls-6, .cls-7, .cls-8, .cls-9, .cls-10, .cls-11, .cls-12, .cls-13, .cls-14, .cls-15 {
        stroke-width: 0px;
      }

      .cls-2 {
        fill: #66bbce;
      }

      .cls-3 {
        fill: #54aac0;
      }

      .cls-4 {
        fill: #9adee7;
      }

      .cls-5 {
        fill: #2c738d;
      }

      .cls-6 {
        fill: #44ab0e;
      }

      .cls-7 {
        fill: #2f8d0b;
      }

      .cls-8 {
        fill: #bce8ef;
      }

      .cls-9 {
        fill: #77d226;
      }

      .cls-10 {
        fill: #89d4e1;
      }

      .cls-11 {
        fill: #4092aa;
      }

      .cls-12 {
        fill: #61c518;
      }

      .cls-13 {
        fill: #89de2e;
      }

      .cls-14 {
        fill: #97e440;
      }

      .cls-15 {
        fill: #77cad9;
      }
    </style>
  </defs>
  <g id="Capa_1-2" data-name="Capa 1">
    <g>
      <path class="cls-8" d="m13.9,26.52c.22-1.05,1.05-1.71,1.68-2.45,2.95-3.42,6.16-6.56,9.69-9.41,4.06-3.28,8.49-5.94,13.19-8.18,5.7-2.71,11.68-4.56,17.89-5.56,3.54-.57,7.14-1.06,10.73-.9,6.22.28,12.38,1.03,18.36,2.93,3.72,1.18,7.34,2.59,10.85,4.28,4.18,2.01,7.93,4.69,11.61,7.46.51.38.9.92,1.35,1.39.58.73,1.15,1.46,1.75,2.17.4.47.43.88-.05,1.29-.89.14-1.77.3-2.58-.31-.4-.3-.85-.56-1.31-.76-.8-.33-.88-.68-.26-1.32.79-.81.65-1.16-.37-1.48-.46-.14-.65.2-.93.4-.97.69-2.05.47-2.09-.57-.04-1.3-.77-1.73-1.78-2.16-.2,1.29-.11,2.51.51,3.66.37.69.06.87-.55.75-.78-.14-1.53-.45-2.31-.54-2.1-.24-3.63-1.05-3.81-3.42-.01-.17.02-.4-.2-.46-.27-.09-.37.15-.48.33-.47.83-1.12.93-2.02.68-.99-.28-2.05-.33-3.08-.49-1.96-.29-3.94-.31-5.91-.5-3.35-.33-6.67-.06-10.01-.02-2.22.03-4.44.43-6.66.5-2.38.07-4.7.59-7.06.81-1.82.16-3.62.53-5.44.72-1.2.13-1.46-.19-1.5-1.39-.01-.44.15-.92-.26-1.45-.58,1.44-1.17,2.75-1.63,4.1-.42,1.21-1.24,1.78-2.45,1.98-.63.1-.97-.13-1.07-.75-.11-.7.32-.72.85-.75,1.05-.07,1.42-.75.99-1.7-.24-.53-.45-1.06-.69-1.59-.1-.21-.06-.57-.41-.55-.36.01-.3.33-.33.58-.1,1.05-1.99.47-1.7,1.87-.21.03-.42.09-.63.09-1.27,0-2.53-.01-3.8.01-.64.01-1.07-.14-1.03-.89.01-.24.04-.54-.31-.59-.25-.03-.4.14-.51.33-.55.93-1.47,1.06-2.43,1.15-.4.04-.85-.15-1.2.18.11.29.32.36.52.42.85.26,1.68.39,2.48-.19.51-.36.88-.15,1.09.39.23.6-.21.62-.61.73-.59.17-1.14.49-1.73.6-2.98.53-5.87,1.46-8.75,2.34-4.25,1.29-8.01,3.74-12.09,5.46-.2.08-.44.19-.45.42,0,.3.3.23.49.3,1.2.4,2.43.64,3.66.95,1.15.29,2.16,1.26,3.47.63.05-.02.14.07.2.06,1.31-.08,2.53.43,3.82.5-.98.28-1.91,1.67-2.97.11-.07-.1-.34-.09-.51-.1-1.14-.04-2.31-.26-3.23.73-.42.45-.96.2-1.4.02-.47-.19-.15-.5-.02-.79.16-.35-.14-.47-.38-.48-2.07-.07-4.04-1.56-6.16-.42-.28-.43.76-.83-.08-1.19Zm31.98-12.41c-.46-.21-.84-.56-1.26-.75-.73-.33-.69.54-1.33.91,1.05.04,1.8.1,2.59-.16Z"/>
      <path class="cls-14" d="m13.9,26.52c.84.35-.2.76.08,1.19,2.12-1.14,4.08.34,6.16.42.24,0,.55.13.38.48-.13.29-.45.6.02.79.44.18.98.43,1.4-.02.92-.99,2.09-.77,3.23-.73.18,0,.44,0,.51.1,1.06,1.56,1.99.17,2.97-.11.92-.5,1.77-1.1,2.48-1.88.32-.35.56-.37,1.07-.29.79.12.82,1.01,1.59,1.11.89.11,1.75.35,2.67.33,1.25-.03,1.38.18.82,1.28-.29.56-.3.95.35,1.2,1.21.46,2.94-.02,3.74-1.04,1.2-1.52,1.2-1.52,1.99.23.22.49.5.88,1.14.76.54-.1.62-.43.67-.93.12-1.28.81-2.32,1.95-2.79,1.12-.46,2.34-.35,3.32.57.43.39.95.53,1.51.46,1.82-.21,2.76.89,3.51,2.3-.98-.01-1.63.7-2.41,1.12-.22.12-.3.39-.3.66-.02.82.04,1.63.47,2.37-.13.54-.51.42-.85.29-.39-.15-.76-.15-1.16-.05-.96.25-1.62-.12-1.99-1.09-.36-.94.33-1.21.99-1.47.74-.3.88-.74.49-1.44-.39-.69-.87-1.08-1.72-1.06-.83.02-1.48.22-1.86,1.03-.2.42-.38,1.09-.7,1.17-1.76.46-3.26,1.67-5.04,1.91-1.35.19-2.75-.06-3.79,1.13-.12.14-.39.19-.6.22-1.27.17-2.17,1.1-3.29,1.61-.54.24-.52.78-.34,1.32.48,1.42,1.94,1.81,2.91,2.7.57.53,1.17.84,1.23,1.68.02.24-.05.58.31.59.29,0,.38-.29.48-.52.26-.61.54-1.24,1.25-1.4,1.98-.44,2.95-1.83,3.72-3.57.51-1.15,1.36-2.12,2.74-2.41,1.56-.32,2.65.27,3.36,1.66.05.09.13.17.2.26.74.89,1.28.97,2.23.33.21-.14.43-.25.65-.37.62.37.16.77-.01,1.1-.48.93-.38,1.88-.2,2.84.15.8.59,1.13,1.38.69.33.02.63-.03.95-.16.86-.33,1.2-.11,1.26.79.03.44-.04.86-.25,1.26-.66,1.28-.66,1.29.59,1.84.38.17.74.37.69.85-.05.47-.41.69-.81.75-.67.1-1.37.2-2.04.14-.83-.06-1.7-.21-1.74-1.37-.01-.34-.27-.56-.61-.4-1.26.59-2.29.25-3.24-.68-.29-.28-.72-.34-1.11-.1-.27.16-.48.43-.37.72.44,1.15-.1,2.38.37,3.53.17.4.2.89-.27,1.16-.4.24-.84.21-1.23-.06-.39-.28-.76-.57-1.28-.46-.04-.41-.3-.83-.66-.65-1.2.58-2.59.14-3.75.76-.94.5-1.53,1.4-2.29,2.1-.37.34-.74.79-1.26.76-.81-.06-1.25.42-1.73.91-.27.28-.56.52-.94.69-1.14.51-1.31,1.01-.87,2.23-.19.34-.38.67-.58,1.01-.58-.06-1.17-.07-1.63.34-.69.62-1.42,1.06-2.4.95-.44-.05-.7.34-.94.64-.28.37-.45.85-.79,1.14-.91.78-.7,1.36.22,1.89-.23,1.46-.43,2.91-.47,4.39,0,.39-.12.88-.61.89-.5.01-.56-.49-.64-.87-.05-.24-.03-.5-.03-.76,0-.79.11-1.59-.2-2.35.01-.38,0-.75-.22-1.09-.16-.68-.52-1.19-1.26-1.29-1.17-.17-2.34-.32-3.52-.44-1.11-.12-1.81-.79-1.71-1.93.17-2.07.28-4.17.74-6.18.7-3.1,1.67-6.15,2.52-9.22.6-2.16.86-4.34.38-6.57-.15-.7-.55-1.28-1.19-1.39-1.37-.25-2.68-.73-4.1-.78-1.41-.05-2.69.34-4,.68.16-.45.33-.89.49-1.34.22-.37.25-.81.41-1.19.41-.98-.04-1.31-.9-1.59-.74-.24-1.47-.19-2.21-.24.28-.42.49-.9.84-1.23.57-.52.87-1.03.71-1.85-.12-.59.32-.92.9-.97.36-.03.72-.01,1.08-.02Zm17.61,1.5c.05-.36-.19-.43-.39-.35-.76.31-1.29.88-1.56,1.66-.08.24.1.48.35.34.7-.39,1.21-.98,1.6-1.65Z"/>
      <path class="cls-12" d="m131.45,45.36c.8,2.13,1.38,4.33,1.87,6.55.06.27.17.56,0,.84-.44-.64-.89-1.29-1.33-1.93-.33-.47-.44-1.41-1.12-1.23-.8.21-.51,1.17-.39,1.7.31,1.3.06,3.01,2.01,3.37.35.06.34.42.34.72-.08.56-.53.36-.86.41-.58-.78-1.25-1.96-2.08-1.84-1.33.18-2.67-.38-3.99.3-1.1.57-1.29.75-.51,1.76.25.32.4.78.89.88,0,.49.27.87.48,1.28-.42.4-1.26-.22-1.51.77-.29,1.18-.82,2.3-1.26,3.44-.89,2.36-1.7,4.75-2.86,6.99-1.66,3.19-3.44,6.32-5.51,9.26-.4.57-.63,1.48-1.59,1.45-.95-.02-1.85.23-2.76.4-.41.07-.99.31-1.22-.31-.34-.87-1.06-.78-1.73-.71-.82.09-1.62.28-2.44.42-.25.04-.38.18-.42.42-.14,0-.28,0-.42.01-.53-.35-.73-.02-.88.42h0c-.32,0-.63,0-.64.45,0,0,0,0,0,0-.29-.01-.59.03-.86-.05-1.66-.49-3.04-.09-4.16,1.25-.22.27-.54.48-.86.63-.43.2-.83.13-.76-.46.09-.79-.38-.87-.97-.94-.87-.11-1.59.44-2.42.46-.52-.16-.89-.46-1.01-1.02.28-.08.59-.13.61-.52.14-.07.29-.15.43-.22.67.07,1.19-.57,1.87-.43.93.19,1.51-.34,2.02-.98.52-.64.98-1.33,1.5-1.98,1.14-1.44,1.92-3.12,3.18-4.48,1.02-1.1,1.82-2.38,2.37-3.8.27-.68.05-1.13-.62-1.35-.43-.15-.84-.29-.76-.87.53,0,1.06-.04,1.58,0,.69.06.87-.28.8-.88.46,0,.83-.12,1.13-.51.27-.36.21-1.14.69-1.08.57.08.51.87.76,1.34.15.28.26.6.35.91.28.96-.24,1.81-1.18,1.65-.89-.15-.67.48-.76.81-.15.52.3.54.67.58,1.61.16,2.41-.26,2.99-1.72.86-2.18,1.67-4.38,2.5-6.57.2-.53.24-.92-.53-.85-.26.02-.63.11-.7-.3-.05-.33.2-.57.45-.67.77-.3,1.19-.85,1.47-1.61.18-.48,2.65-1.23,3.12-1.01.13.06.23.17.34.26,1.33,1.1,1.8.98,2.65-.61.22-.41.39-1.06,1.01-1.01,1.15.1,2.15-.64,3.3-.47.3.04.67-.05.59-.43-.15-.73.29-.63.73-.65,1.09-.04,1.45-.45,1.48-1.54.02-1.11-.4-2.12-.74-3.14-.18-.55-.52-.67-.96-.23-.31.31-.59.65-1.1.58-.15-.29-.3-.59-.45-.88.11-.14.19-.31.33-.42.57-.44.73-1.08.47-1.65-.34-.75-.74.15-1.15.11-.21-.02-.43,0-.65.02-1.43.12-2.34.95-2.94,2.18-1.1-.17-1.14-1.2-1.54-1.93.64-.34.29-1.41,1.16-1.58.13,0,.26,0,.39,0,.16.85.82.88,1.49.9.63.02,1.03-.24,1.14-.89.11-.66.49-.74,1.01-.44.58.33,1.17.52,1.85.47.44-.03.77-.18.96-.57.13-.26-.02-.47-.19-.68-.32-.39-.65-.1-.99-.06-.6.08-1.14.74-1.8.19.67-.51.35-1,.04-1.56-.64-1.13-1.99-1.14-2.84-1.91-.66-.34-1.19-.78-1.67-1.39-.26-.33-.84-.11-.92.46-.06.42-.1.86.14,1.25.02.98.65,1.78.81,2.72-1.48-.02-2.08.87-2.26,2.19-.33-.23-.13-.62-.27-.89-.18-.35-.58-.87-.85-.5-.41.57-1.14.89-1.29,1.65-.09-.06-.18-.12-.26-.19-.41-.42-.93-.46-1.4-.24-.53.24-.28.77-.21,1.16.11.67.11,1.37.44,2,.34.66.14,1.18-.52,1.53-.23-.02-.47,0-.64-.2.9-1.11.92-1.56.06-2.16-1.35-.38-2.63-.88-3.63-1.92-.2-.2-.44-.37-.67-.54-.74-.54-1.4-.52-1.88.34-.23.41-.53.67-1.03.61-.83-.54-1.2-.21-1.25.67-.03.58-.02,1.13-.54,1.57-1.22,1.04-1.26,1.36-.59,2.97.02.12.03.25.05.37-.12.22-.24.44-.37.66-.75-.28-1.47,0-2.17.17-.71.18-.7.6-.13,1.03,0,.51-.17.74-.61.29-.57-.57-1.05-1.2-.91-2.09,0-.15,0-.29,0-.44.15-.22.29-.43.44-.65.59-.09,1.2-.14,1.78-.28.42-.1.86-.31.81-.84-.09-.97.15-1.88.45-2.78.07-.07.14-.15.22-.22.61-.08.84-.46.88-1.04.02-.39.14-.77.2-1.16.13-.79.66-1.18,1.37-.97.69.21,1.1.01,1.52-.45.25-.27.58-.48.95-.47.86.02,1.2-.45,1.38-1.21.2-.84,1.17-1.38,1.8-.88.79.62,1.54,1.11,2.58,1.06.31-.01.38.38.39.68.01.22.03.48.31.48.36,0,.35-.32.33-.56-.05-.57.12-1.1.45-1.53,1.23-1.62,2.62-3.06,4.66-3.64.34-.1.65-.14.89-.51.71-1.1,1.41-1.11,2.26-.08.3.36.47.83.96.99.88.3,1.75.61,2.18,1.59.04-.72-.26-1.29-.53-1.86.63-.38,1.21-.85,1.93-1.08.37.39.66.73.05,1.23-.45.37-.26.68.32.72.36.03.84-.18.95.42-.94-.06-1.51.62-2.18,1.09-.12-.01-.38-.12-.35,0,.15.52.23,1.17,1.03,1.09.14.14.27.28.41.43-.02.35,0,.67.47.66.51.3.78.82,1.1,1.28.69.99,1.29,1.06,2.31.25.67.55.92,1.47,1.67,1.96Zm-1.23.65c-.05-.5-.33-.83-.87-.87-.29-.02-.63,0-.63.39,0,.57.39.92.88,1.07.38.11.57-.19.62-.59Zm-20.22-1.77c-.27.04-.74-.13-.67.29.09.55.54.92,1.13,1.01.25.04.61.02.6-.28-.03-.63-.51-.89-1.06-1.02Z"/>
      <path class="cls-15" d="m5.11,92.91c-1.59-3.44-2.61-7.08-3.45-10.76C.49,77.05-.13,71.88.02,66.63c.87-.21,1.08-.98,1.42-1.65.1-.2.18-.66.45-.36.4.43.96.69,1.16,1.37.66,2.27,1.4,4.52,2.13,6.77,1.3,4,3.26,7.65,5.74,11.03,1.12,1.53,2.37,2.91,3.71,4.28,1.28,1.3,2.87,2.13,4.11,3.45.7.74,1.69,1.2,2.52,1.82,1.05.79,2.35,1.11,3.41,1.85.66.46,1.27.63,2,.31,1.37,1.58,3.17,2.8,4.06,4.79.09.1.19.19.28.29.2.19.4.39.6.58.09.08.18.15.28.23h-.03c.33.78.83,1.44,1.55,1.92,0,.46.34.71.63.96,1.28,1.1,2.57,2.19,3.87,3.27.29.24.55.49.45.91-.06.26-.29.3-.51.3-1.54,0-3.11.2-4.6-.07-2.81-.5-5.59-1.17-8.26-2.3-3.86-1.63-7.54-3.6-10.91-6.07-2.64-1.94-5.07-4.15-7.3-6.57-.45-.49-.94-.91-1.68-.82Z"/>
      <path class="cls-5" d="m60.49,133.99c-7.93-.64-15.42-2.85-22.56-6.32.13-.21.34-.32.55-.24,2.22.77,4.55.92,6.86,1.16,2.13.22,4.27.6,6.41.1.56-.13,1.04-.36.97-1.07,1.45.28,2.91.52,4.34.86.89.21,1.37,0,1.45-.83.87-.22,1.68.31,2.57.14,3.08-.6,6.07-1.52,9.01-2.59,6.89-2.52,13.56-5.52,19.88-9.26,1.75-1.04,3.71-1.8,4.89-3.63.09-.14.25-.27.58-.15-.35.86-.11,1.72.03,2.6.16,1.01.36,1.17,1.24.63,1.2-.73,2.33-1.55,3.49-2.35.37-.26.96-.41.86-.99-.11-.66-.73-.45-1.16-.47-.66-.03-.72-.44-.74-.96-.01-.54.16-.77.74-.79,1.05-.02,1.99.09,2.69,1.01.48.63,1.01.52,1.33-.22.11-.26.16-.55.27-.82.63-1.64,1.93-2.22,3.52-1.49.4.18.57.07.84-.15.27-.23.34-.66.75-.74.63,1.18.05,2.21-.38,3.26-.47.29-.5.8-.61,1.26-.52.77-1.11,1.52-1.32,2.44-.21.93-.55,1.77-1.07,2.57-.38.58-.81,1.05-1.57.9-.75-.15-1.02-.67-1.09-1.4-.07-.73-.45-.78-1-.34-.59.48-.78,1.59,0,2.4,1,1.03.27,1.36-.45,1.81-.31.19-.66.32-.93.55-.74.62-1.38.44-2-.16-.24-.22-.49-.44-.7-.68-.43-.48-.83-.51-1.26,0-.45.53-1.05.87-1.64,1.22-4.15,2.47-8.47,4.62-12.81,6.72-4.11,1.99-8.36,3.62-12.85,4.59-.95.21-1.89.71-2.81.67-1.89-.08-3.73.43-5.61.29-.37-.03-.63.1-.7.51Z"/>
      <path class="cls-6" d="m126.28,56.88c-.49-.1-.64-.56-.89-.88-.78-1.01-.59-1.19.51-1.76,1.32-.68,2.67-.12,3.99-.3.83-.11,1.5,1.07,2.08,1.84.18.93.97,1.58,1.19,2.51.08.32.45.31.74.31.42.68.29,1.4.26,2.15-.08,2.02-.65,3.93-1.13,5.86-.27.04-.42.18-.4.47h0c-.07.07-.15.14-.22.22h0c-.95.16-1.15.36-1.11,1.11.03.31,0,.65.24.9.14,1.65.47,2.01,2.13,2.3-.11.96-.18,1.94-.48,2.87-.52-.09-.81.27-1.08.59-2.04,2.46-4.16,4.86-6.06,7.42-2.24,3.01-4.76,5.75-7.28,8.51-.9.98-1.72,2.02-2.43,3.15-.23.37.02,1.01-.64,1.13-.29-1.04-.86-1.56-1.98-1.1-.09.04-.21,0-.32.01-.05-.66-.38-1.27-.29-1.95.87.11,1.52-.26,2.07-.9.3-.34.35-.67.17-1.08-.21-.48-.61-.44-1-.4-.39.04-.77.13-1.15.21-.39-.9-.73-1.83-1.64-2.37.04-.15.07-.3.11-.45.04,0,.08,0,.12-.01,1.68.04,2.39-.29,2.56-1.33.15-.95.23-1.93.24-2.9.02-1.11-.38-1.32-1.4-.8-.41.21-.89.32-1.19.71-.05,0-.11,0-.16-.01l-.08-.43c.22-.18.44-.36.67-.53.27-.21.72-.31.6-.78-.14-.52-.6-.41-.98-.43-.33-.02-.64.06-.93.23-.75.44-1.56.7-2.41.88-.07-.07-.14-.13-.2-.2.04-.14.06-.28.12-.41.17-.35.77-.59.43-1.08-.35-.49-.89-.27-1.38-.19-.73.12-1.46.22-2.2.32.04-.24.16-.37.42-.42.81-.13,1.62-.33,2.44-.42.67-.07,1.39-.16,1.73.71.24.62.82.38,1.22.31.92-.17,1.81-.42,2.76-.4.96.02,1.19-.88,1.59-1.45,2.07-2.94,3.86-6.07,5.51-9.26,1.16-2.24,1.98-4.63,2.86-6.99.43-1.14.97-2.26,1.26-3.44.24-.99,1.09-.37,1.51-.77.09.11.18.22.27.34.07,1.19.53,2.19,1.52,3.27-.17-.72-.28-1.17-.38-1.62,1.18-.79,1.23-1.03.38-2.03-.39-.45-.81-.87-1.18-1.33-.43-.53-.76-.4-1.08.1Zm4.13,9.1c1.81-.56,2.05-1.47.69-3.08-.4-.47-.71-1.42-1.62-1.08-1.08.4-.24,1.22-.29,1.85.13,1.29.9,2.36,1.23,3.58v-1.27Z"/>
      <path class="cls-10" d="m26.67,95.49c-.74.32-1.34.14-2-.31-1.06-.73-2.37-1.05-3.41-1.85-.83-.63-1.82-1.08-2.52-1.82-1.23-1.31-2.83-2.14-4.11-3.45-1.34-1.36-2.59-2.74-3.71-4.28-2.48-3.39-4.44-7.04-5.74-11.03-.73-2.25-1.48-4.5-2.13-6.77-.2-.68-.76-.93-1.16-1.37-.27-.3-.34.16-.45.36-.34.66-.56,1.44-1.42,1.65-.1-4.46.49-8.84,1.37-13.2.48-2.37,1.09-4.71,1.9-6.99.25-.02.36-.2.48-.39.9-1.42,1.69-2.94,2.75-4.25,1.71-2.12,2.72-4.45,2.84-7.16.19,0,.3-.16.45-.22,1.04-.45,1.99-1.28,3.26-.83-.16.45-.33.89-.49,1.34-.22.45-.58.89-.64,1.36-.24,1.87-1.13,3.49-1.82,5.19-.86,2.09-1.52,4.27-3.09,6.02-1.07,1.19-1.72,2.77-2.09,4.22-.62,2.44-.43,5.03.46,7.44.38,1.04.66,1.92-.04,2.94-.46.67.04,1.46.8,1.3.55-.11.51.22.63.49.61,1.37.95,2.8.77,4.31-.14,1.18.33,2.19.88,3.18.33.6,1.08.79,1.39,1.34.97,1.71,2.5,2.16,4.29,2.17.58,0,.93.32,1.36.72,1.11,1.05,2.3,2.04,3.58,2.88.63.41,1.08.78,1.21,1.51.31,1.82,1.79,2.63,3.15,3.48.58.36,1.3.43,1.97.07.56,0,1.12,0,1.68,0,.05.21.11.42.16.62.01.48.22.89.45,1.31.71,1.27.2,3.57-.97,4.44-.99.73-1.22,1.93-.62,3.16-.04.86.35,1.62.59,2.41Z"/>
      <path class="cls-2" d="m5.11,92.91c.74-.09,1.23.33,1.68.82,2.23,2.42,4.66,4.64,7.3,6.57,3.37,2.47,7.04,4.43,10.91,6.07,2.67,1.13,5.45,1.8,8.26,2.3,1.49.26,3.06.06,4.6.07.23,0,.45-.04.51-.3.1-.42-.16-.67-.45-.91-1.3-1.08-2.59-2.17-3.87-3.27-.29-.25-.64-.5-.63-.96,1.51.61,2.75,1.79,4.39,2.15.03,0,.06.04.09.06,2.09,1.19,3.1,3.1,3.59,5.37-.26.59-.69,1.24.48,1.3.06,0,.11.01.17.02.17.65.34,1.3.8,1.83.06.45.19.87.5,1.22,0,.18.03.34.19.45.1.68.77.95,1.07,1.5-.9,0-1.8-.02-2.7.02-.64.03-1.06-.1-.98-.87.03-.24.05-.55-.29-.6-.28-.04-.29.24-.4.41-.99,1.5-5.13,1.62-5.81-.69.48-.08,1.32.24,1.39-.22.19-1.27,1.07-.8,1.72-.85.68-.06,1.37-.02,2.06-.01.43,0,.65-.13.69-.61.11-1.66-1.13-3-2.79-3.09-1.92-.1-2.88,1-3.5,2.61-.3.05-.79-.12-.82.3-.05,1-.74.78-1.31.79-.69.01-1.37-.02-2.06.01-.32.02-.85-.23-.92.25-.06.42.3.79.72,1,.79.39,1.53.27,2.25-.2.53-.35.81.07,1.06.4.37.47-.1.6-.39.79-1.26.85-3.35.75-4.44-.22-1.24-1.11-1.47-2.84-.63-4.42.12-.23.54-.49.28-.72-.23-.21-.67-.24-1.02-.25-.47-.02-.32.4-.33.65-.02.52-.36.53-.74.55-1.43.09-1.43.1-1.44,1.58,0,.29,0,.58,0,.87.03.79.48,1.07,1.22,1,.34-.04.73-.44.97.2.19.52.3.97-.24,1.33-.39,0-.78-.02-1.17.01-1.12.09-1.98-.31-2.53-1.31-.22-.95-.23-1.91-.22-2.88,0-.3.1-.75-.35-.78-.65-.03-.77-.37-.75-.91,0-.25-.15-.36-.39-.43-1.84-.54-3.65-1.25-5.63-1.1-3.16-3.6-5.64-7.66-7.85-11.89-.85-1.62-1.7-3.25-2.26-5.01Z"/>
      <path class="cls-1" d="m60.49,133.99c.07-.4.33-.53.7-.51,1.88.14,3.72-.37,5.61-.29.93.04,1.87-.47,2.81-.67,4.48-.98,8.73-2.6,12.85-4.59,4.34-2.1,8.66-4.25,12.81-6.72.59-.35,1.19-.69,1.64-1.22.43-.5.83-.48,1.26,0,.21.24.46.45.7.68.62.59,1.26.78,2,.16.27-.23.62-.36.93-.55.72-.45,1.45-.77.45-1.81-.78-.8-.59-1.92,0-2.4.55-.45.93-.39,1,.34.07.73.34,1.26,1.09,1.4.76.15,1.19-.32,1.57-.9.52-.79.86-1.64,1.07-2.57.21-.92.8-1.67,1.32-2.44.21.01.42.02.64.04.43.03.83.31,1.28.13,1.37-.23,2.88-.4,3.87-1.36,3.12-3.01,6.47-5.85,8.21-10.02.42-1,1.21-1.84,1.88-2.81.25.52-.06.8-.21,1.1-.46.94-.97,1.85-1.43,2.78-.35.7.11.68.59.6-3.64,5.96-8.14,11.15-13.43,15.73-7.48,6.47-15.96,10.93-25.41,13.69-4.28,1.25-8.66,1.88-13.09,2.35-3.49.37-6.96.18-10.43-.06-.1,0-.19-.08-.29-.12Z"/>
      <path class="cls-7" d="m123.15,102.39c-.48.07-.94.1-.59-.6.46-.94.97-1.85,1.43-2.78.15-.3.46-.58.21-1.1-.66.97-1.46,1.81-1.88,2.81-1.74,4.17-5.09,7.01-8.21,10.02-.99.96-2.5,1.13-3.87,1.36.3-.3.62-.57.9-.89.5-.57,1.01-1.22.78-2.01-.24-.84-.14-1.62.02-2.43,0-.14,0-.28,0-.42.62-1.17,1.5-2.27.73-3.73-.21-.4.08-.82.27-1.22.34-.73,1-1.33.97-2.22.02-.23,0-.48.24-.63.41-.03.63-.24.64-.66,0-.07,0-.14.01-.2.44-.03.44-.34.42-.66.08-.29.16-.58.24-.86.17-.1.21-.26.2-.44,0-.14.01-.28.02-.43.66-.12.41-.76.64-1.13.71-1.13,1.53-2.17,2.43-3.15,2.52-2.76,5.04-5.5,7.28-8.51,1.9-2.56,4.03-4.96,6.06-7.42.27-.33.56-.68,1.08-.59-.28.89-.56,1.78-.84,2.66-.47,1.24-.86,2.52-1.42,3.72-1.66,3.59-3.09,7.23-3.34,11.23-.03.07-.06.13-.09.19-.66,1.21-.54,2.77-1.73,3.75-.22.18-.03.46.13.67.36.5.88.57,1.44.56-.52,1.54-1.5,2.83-2.32,4.21-.42.7-1.19.71-1.86.93Z"/>
      <path class="cls-11" d="m22.55,115.9c.55,1,1.41,1.39,2.53,1.31.39-.03.78-.01,1.17-.01.09.94.77,1.36,1.53,1.63,1.32.47,2.64.98,3.99,1.33,4.15,1.07,8.38,1.59,12.68,1.63.99,0,1.6-.3,1.77-1.3,1.76,1.81,3.92,3.24,5.18,5.52.26.47.62.88,1.06,1.2.04.17.07.35.27.42.07.71-.41.94-.97,1.07-2.14.5-4.28.12-6.41-.1-2.31-.24-4.64-.39-6.86-1.16-.21-.07-.42.03-.55.24-6.14-2.82-11.61-6.62-16.5-11.27.13-.71.7-.44,1.12-.5Z"/>
      <path class="cls-14" d="m110.96,19.56c.48-.41.45-.83.05-1.29-.6-.71-1.17-1.45-1.75-2.17,1.42-.64,2.63-.52,3.84.62,6.21,5.91,11.31,12.62,15.04,20.36.14.29.23.6.35.9-.46-.01-.61-.42-.9-.67-.81-.69-1.03-2.04-2.37-2.14-.42-.29-.35-1.08-1.08-1.08,0-.08,0-.16,0-.24-.02-.19-.1-.32-.26-.44-1.98-1.5-4.11-2.75-6.32-3.89-2.97-1.53-6.3-1.56-9.44-2.37-.46-.12-.87.04-.91.63,0,0,0,.01,0,.01-.19-.02-.35.02-.45.2-.79-.03-1.03-.27-.61-1.08.38-.73.36-1.48-.68-1.75-.24-.43-.56-.72-1.1-.64-.01-.12-.03-.23-.04-.35.68-.6,1.49-.22,2.23-.3.15.13.31.26.54.23.19.39.57.49.93.61.46.39.69,1.05,1.38,1.17.34,1.1.83,1.27,2.24.77.2-.07.47-.04.45-.34-.02-.29-.25-.44-.52-.44-.72-.02-1.43-.01-2.15-.02-.1-.32.33-.67-.04-.98,1.1-.22,2.19-.62,3.48-.13-.58-1.23-1.71-.55-2.4-1.15.65-.32,1.25-.36,1.86-.36.5,0,1.01.03,1.43-.35.23-.2.66-.27.48-.71-.13-.32-.41-.52-.77-.51-.64.03-1.28.1-1.93.15-.07-.15-.14-.3-.22-.45,1.18-.14,2.33-.25,3.43.4.48.28.93.25.88-.51.16-.73-.36-1.73-1.07-1.91-.7-.18-1.19.08-1.31.86-.19.07-.44-.07-.59.16-.55-.21-.79-1.25-1.66-.62,0-.07-.03-.13-.07-.19Z"/>
      <path class="cls-4" d="m9.36,34.65c-.12,2.71-1.12,5.04-2.84,7.16-1.05,1.3-1.84,2.82-2.75,4.25-.12.19-.23.37-.48.39,1.39-4.52,3.22-8.84,5.76-12.84.1.35.2.69.3,1.04Z"/>
      <path class="cls-5" d="m127.59,92.08c.25-4,1.68-7.64,3.34-11.23.56-1.2.95-2.48,1.42-3.72-.75,5.2-2.03,10.27-4.11,15.11-.19-.14-.39-.29-.65-.16Z"/>
      <path class="cls-3" d="m22.55,115.9c-.42.06-.99-.22-1.12.5-1.46-1.15-2.73-2.49-3.92-3.92.7-.57,1.2-.29,1.55.4.38.74,1.04.47,1.5.32.51-.16.18-.68.05-1.03-.54-1.51-2.39-1.94-4.21-1-.5-.37-.84-.86-1.18-1.37,1.98-.14,3.78.56,5.63,1.1.24.07.4.18.39.43-.02.53.1.87.75.91.44.02.35.47.35.78,0,.97,0,1.93.22,2.88Z"/>
      <path class="cls-9" d="m9.36,34.65c-.1-.35-.2-.69-.3-1.04-.32-1.34.07-2.37,1.32-3.03.74.05,1.47,0,2.21.24.85.27,1.31.61.9,1.59-.16.38-.19.82-.41,1.19-1.27-.45-2.22.38-3.26.83-.15.06-.26.23-.45.22Z"/>
      <path class="cls-13" d="m125.22,35.16c1.34.1,1.56,1.45,2.37,2.14.29.25.44.65.9.67,1.23,2.37,2.24,4.82,2.96,7.39-.75-.48-1-1.4-1.67-1.96-.77-1.69-1.62-3.34-2.8-4.79-.11-.6-.59-.39-.95-.42-.58-.05-.77-.35-.32-.72.61-.5.31-.84-.05-1.23-.02-.41-.57-.6-.43-1.08Z"/>
      <path class="cls-6" d="m132.82,55.37c0-.29,0-.65-.34-.72-1.95-.36-1.7-2.07-2.01-3.37-.13-.53-.41-1.49.39-1.7.68-.17.79.76,1.12,1.23.44.64.89,1.29,1.33,1.93-.09.8.22,1.62-.13,2.41-.12.07-.24.14-.36.21Z"/>
      <path class="cls-6" d="m127.59,92.08c.26-.12.45.02.65.16.71,1.85.05,3.46-.91,5.01-.56.02-1.07-.06-1.44-.56-.16-.22-.34-.5-.13-.67,1.19-.98,1.07-2.54,1.73-3.75.03-.06.06-.13.09-.19Z"/>
      <path class="cls-2" d="m16.4,111.18c1.82-.95,3.67-.51,4.21,1,.12.35.45.87-.05,1.03-.46.15-1.12.42-1.5-.32-.35-.68-.85-.97-1.55-.4-.42-.39-.84-.78-1.11-1.3Z"/>
      <path class="cls-12" d="m133.67,71.6c-1.66-.29-1.99-.65-2.13-2.3.61-.29.98.25,1.46.42.43.55,1.03,1.05.67,1.88Z"/>
      <path class="cls-9" d="m132.82,55.37c.12-.07.24-.14.36-.21-.18.5.15.87.3,1.3.24.69.66,1.35.41,2.14-.29,0-.66.01-.74-.31-.22-.93-1-1.57-1.19-2.51.33-.05.78.15.86-.41Z"/>
      <path class="cls-11" d="m132.99,69.72c-.48-.18-.85-.72-1.46-.42-.25-.26-.21-.59-.24-.9.43-.31.84-.64,1.11-1.11,0,0,0,0,0,0,.07-.07.15-.15.22-.22,0,0,0,0,0,0,.14-.09.27-.18.41-.27.24.98.04,1.95-.03,2.92Z"/>
      <path class="cls-7" d="m133.02,66.8c-.14.09-.27.18-.41.27-.02-.29.13-.42.4-.47.03.06.04.13,0,.2Z"/>
      <path class="cls-4" d="m110.96,19.56c.04.06.06.12.07.19-.06.48.46.64.57,1.03-.23.13-.27.35-.25.59.07.15.14.3.22.45.02.38-.07.71-.48.84-.92.3-1.39,1.07-1.92,1.79-.15,0-.21-.09-.23-.22-.57-.58-1.21-.3-1.83-.14-.22.03-.38-.09-.54-.23-.37-.42-.86-.42-1.37-.46-1.49-.11-2.86.47-4.29.66.05-.48-.12-.71-.58-.98-1.68-.97-3.54-.57-5.27-.67-2.04-.12-4.13.28-6.16.66-1.95.36-3.62.02-5.11-1.27-.85-.74-1.81-1.3-2.84-1.74-.34-.14-.84-.4-.68.39-.14-.05-.28-.09-.42-.14-.18-.57-.66-.59-1.14-.6-.79-.01-1.59,0-2.38,0-1.02-.01-1.92.27-2.62,1.04-.22.24-.47.55-.81.46-1.18-.32-2.3.06-3.45.2-2.21.26-4.43.33-6.65.47-.38.02-.7.14-.97.41q-1.15,1.01-2.83.02c-1.04,0-2.08-.03-3.12.02-.84.04-1.71-.24-2.52.2-.64.3-.98.91-1.39,1.43-.54.68-.28,1.23.6,1.32.78.07,1.58.12,2.33-.21.63-.2,1.05-.7,1.53-1.12.64.02,1.25.08,1.44.85.21.84.68.87,1.38.54,1.26-.59,2.44-.55,3.43.59.54.62,1.15,1.19,1.64,1.84.68.9.37,1.79-.72,2.19-.41.15-.82.3-1.03.73-.85,1.74.35,4.28,2.3,4.88.82.19,1.62.15,2.38-.23.83-.55,1.21-1.51,1.93-2.16,1.03-.32,1.89-.79,1.94-2.04,0-.04.02-.09.03-.13,1.02-.03,2.04,0,3.03-.27.13.3.28.59.24.93-.2,1.48.33,2.77,1.36,3.71,1.31,1.21,1.39,2.69,1.48,4.26.09,1.73.58,3.4.62,5.18.03,1.46.13,2.93-.08,4.38-.08.54-.12,1.05,0,1.59.13.65.35,1.3-.31,1.88-.47.42-.13.76.35.95-.34.71-.68,1.42-1.02,2.14-.12.06-.3.1-.33.19-.05.15.11.23.24.27l-.09.63c-.79-.13-.93.51-1.2,1.01-.8,1.52-1.92,2.25-2.89,1.84-1.75-.76-3.43-.66-5.06.31-.21.13-.39.37-.66.16-.23-.18-.23-.42-.13-.68.09-.23.23-.52-.14-.62-.36-.1-.37.25-.45.48-.42,1.26-.83,2.52-1.25,3.79-.26.04-.57-.02-.67.34-.19.05-.39.09-.58.14-.09.03-.18.07-.27.1-.14.04-.28.08-.42.11-.31-.34-.4-.12-.45.18h0c-.07.05-.14.09-.21.13-.07.03-.14.06-.21.1-.24-.01-.49-.05-.65.2-.17.14-.33.28-.5.42-.06.04-.11.08-.17.12-.06.04-.12.09-.18.13-.08.06-.17.12-.25.17,0,0-.02.02-.02.02-.07.06-.13.12-.2.18,0,0-.03.03-.03.03-.06.06-.12.12-.19.17l-.04.04c-.06.06-.12.12-.18.18,0,0-.04.04-.04.04-.06.06-.12.12-.18.18,0,0-.04.04-.04.04-.06.06-.12.12-.18.18l-.03.04c-.06.07-.12.13-.18.2l-.02.02c-.06.07-.13.14-.19.21,0,0,0,.01,0,.01-.17.08-.2.24-.21.4-.82.71-.88,1.82-1.37,2.7-.54-.12-.7.34-.88.64-.41.68-.71,1.44-.75,2.24-.04.79-.33.85-.94.53-.19-.1-.41-.13-.61-.19h0c.07-.38-.13-.67-.34-.96-.21-.27-.32-.71-.73-.67-.39.04-.1.6-.43.76-.25-.68-.82-1.11-1.27-1.64-.14-.17.36-.59-.13-.69-.37-.07-.71.17-.94.45-1.12,1.41-1.82,3.01-2.01,4.81-.09.83.5,1.23,1.07,1.61.54.36,1,0,1.49-.25.86-.45,1.27-1.36,2.02-1.91.33.38.22.81.11,1.23-.51,1.86-2.51,2.42-4.21,1.89-1.38-.43-1.66-.4-2.22.9-.3.69-.46,1.44-.93,2.05-.22.28-.18.62-.14.94.23,1.65,1.97,3.15,3.67,3.2.53.01,1.12-.07,1.31.65-.47.01-.94-.02-1.41.05-1.63.22-2.98-.25-3.99-1.59-1.17-1.55-3.19-1.75-4.64-2.87-.17-.13-.48-.11-.73-.13-1.44-.08-2.88-.16-4.32-.22-.71-.03-1.35-.18-1.85-.74-.36-.39-.75-.44-1.07.05-.31.47-.74.67-1.28.65-.76-.02-1.3.28-1.64.99-.17.37-.52.6-.97.55-.97-.11-1.38.38-1.39,1.3-.56,0-1.12,0-1.68,0,.02-.15.03-.29.05-.44,0-.69-.5-.91-1.03-1.06-.76-.22-1.12-.73-1.19-1.49-.11-1.15-.23-2.29-.36-3.43-.12-1.12-.71-1.78-1.89-1.82-.73-.02-1.22-.36-1.4-1.1.18-.59.79-1.02.61-1.73.16-.91.04-1.77-.93-2.09-.93-.31-1.27.55-1.66,1.17-.09.15-.16.32-.23.48-.63,1.1-1.54,1.49-2.77,1.07-.45-.44-.67-.96-.76-1.6-.31-2.23.06-4.42.25-6.62.08-.21.17-.42.25-.63.43-.43.98-.6,1.56-.62.5-.02.88-.2,1.23-.57,1.05-1.08,1.16-1.09,2.23-.04.41.4.73.44,1.21.09,1.13-.85,3.27-.8,4.4.04.31.76.2,1.56.2,2.35,0,.25-.02.51.03.76.08.38.14.88.64.87.49-.01.6-.51.61-.89.03-1.48.23-2.94.47-4.39.73-.78,1.22-1.88,2.33-2.16,1.6-.39,2.45-1.52,3.2-2.82.19-.34.38-.67.58-1.01,1.06-.8,2.01-1.93,3.2-2.3,1.58-.49,2.56-1.52,3.59-2.6.59-.62,1.26-.93,2.11-.86,1.04.09,1.91-.25,2.6-1.03.52-.11.89.18,1.28.46.38.27.83.3,1.23.06.46-.27.43-.76.27-1.16-.47-1.15.07-2.38-.37-3.53-.11-.29.1-.56.37-.72.39-.24.82-.18,1.11.1.95.93,1.97,1.27,3.24.68.33-.16.59.07.61.4.04,1.16.9,1.31,1.74,1.37.67.05,1.37-.05,2.04-.14.4-.06.77-.28.81-.75.05-.49-.31-.68-.69-.85-1.25-.56-1.25-.56-.59-1.84.21-.4.28-.82.25-1.26-.06-.9-.4-1.12-1.26-.79-.31.12-.62.18-.95.16-.26-.42-.26-.88-.25-1.35.02-.86.07-1.72.04-2.57-.02-.55-.11-1.17-.95-.71-.22.12-.44.23-.65.37-.95.63-1.5.55-2.23-.33-.07-.08-.15-.16-.2-.26-.71-1.39-1.8-1.99-3.36-1.66-1.37.28-2.23,1.26-2.74,2.41-.77,1.74-1.74,3.13-3.72,3.57-.7.16-.99.79-1.25,1.4-.1.23-.19.53-.48.52-.35-.01-.29-.35-.31-.59-.06-.84-.66-1.16-1.23-1.68-.96-.89-2.43-1.28-2.91-2.7-.18-.54-.21-1.08.34-1.32,1.11-.5,2.01-1.43,3.29-1.61.21-.03.47-.08.6-.22,1.04-1.19,2.44-.94,3.79-1.13,1.78-.25,3.28-1.45,5.04-1.91.32-.08.5-.75.7-1.17.38-.8,1.03-1,1.86-1.03.85-.03,1.33.37,1.72,1.06.4.7.25,1.14-.49,1.44-.65.26-1.34.53-.99,1.47.37.97,1.03,1.34,1.99,1.09.4-.1.77-.1,1.16.05.34.13.72.26.85-.29.5-.11.5-.56.6-.92.17-.64.56-1.05,1.2-1.27,1.34-.47,1.42-.85.45-1.95-.75-1.41-1.69-2.51-3.51-2.3-.56.07-1.08-.07-1.51-.46-.99-.91-2.21-1.02-3.32-.57-1.14.47-1.83,1.51-1.95,2.79-.05.49-.13.83-.67.93-.64.11-.92-.27-1.14-.76-.79-1.75-.8-1.75-1.99-.23-.8,1.02-2.53,1.5-3.74,1.04-.64-.24-.64-.63-.35-1.2.56-1.1.43-1.31-.82-1.28-.92.02-1.78-.21-2.67-.33-.76-.1-.79-.99-1.59-1.11-.52-.08-.75-.06-1.07.29-.71.78-1.55,1.38-2.48,1.88-1.29-.07-2.51-.59-3.82-.5-.07,0-.16-.09-.2-.06-1.32.63-2.32-.34-3.47-.63-1.22-.31-2.46-.55-3.66-.95-.19-.06-.49,0-.49-.3,0-.24.24-.34.45-.42,4.07-1.72,7.84-4.17,12.09-5.46,2.88-.88,5.77-1.8,8.75-2.34.59-.11,1.15-.43,1.73-.6.4-.11.84-.12.61-.73-.21-.55-.59-.76-1.09-.39-.8.58-1.63.45-2.48.19-.2-.06-.41-.13-.52-.42.35-.33.8-.14,1.2-.18.95-.09,1.88-.21,2.43-1.15.11-.19.27-.36.51-.33.35.05.33.35.31.59-.04.75.4.9,1.03.89,1.27-.02,2.53,0,3.8-.01.21,0,.42-.06.63-.09-.29-1.4,1.6-.83,1.7-1.87.02-.24-.04-.56.33-.58.35-.01.32.34.41.55.24.52.45,1.06.69,1.59.43.95.05,1.63-.99,1.7-.53.03-.96.05-.85.75.1.62.44.85,1.07.75,1.2-.19,2.03-.77,2.45-1.98.46-1.35,1.05-2.66,1.63-4.1.41.53.25,1.01.26,1.45.04,1.2.3,1.52,1.5,1.39,1.82-.2,3.62-.56,5.44-.72,2.36-.21,4.68-.74,7.06-.81,2.22-.07,4.44-.47,6.66-.5,3.33-.04,6.66-.31,10.01.02,1.96.2,3.95.21,5.91.5,1.03.15,2.09.21,3.08.49.91.25,1.55.15,2.02-.68.1-.18.2-.42.48-.33.21.07.18.29.2.46.17,2.36,1.7,3.17,3.81,3.42.78.09,1.53.4,2.31.54.61.11.92-.07.55-.75-.63-1.14-.72-2.37-.51-3.66,1.02.43,1.74.86,1.78,2.16.04,1.04,1.11,1.26,2.09.57.28-.2.47-.55.93-.4,1.02.32,1.15.67.37,1.48-.63.64-.54.99.26,1.32.46.19.91.45,1.31.76.81.62,1.69.45,2.58.31Zm-64.53,52.93c.6-.06,1.18-.18,1.69-.62-1.2-.69-.83-1.96-1.22-2.92-.09-.21.2-.35.37-.48,1.19-.92,1.9-2.16,2.22-3.6.19-.85.57-1.23,1.46-1.08.69.12,1.11-.17,1.11-.93,1.7-.59,2.74-1.8,3.34-3.48.75-2.08.2-4.83-1.36-6.22-1.36-1.22-2.73-1.27-4.9-.17-1.22,0-2.44-.17-3.65.11-3.14.72-5.72,2.27-7.83,4.78-1.84,2.18-2.31,6.58-1.04,9.05.16.31.33.56.71.57-.2.43-.66.55-.99.8-1.13.86-1.31,2.36-.34,3.39.34.36.75.67,1.13,1,.58,1.12,1.65,1.6,2.77,1.72,2.42.25,4.74-.03,6.56-1.92Zm3.36-48.44c.41-.04.9-.17.96-.72.06-.55-.46-.58-.83-.59-.47-.02-.84.21-.89.73-.05.49.28.6.76.59Z"/>
      <path class="cls-4" d="m45.88,14.11c-.78.27-1.53.2-2.59.16.64-.37.59-1.25,1.33-.91.42.19.79.54,1.26.75Z"/>
      <path class="cls-13" d="m25.42,83.11c-.02.15-.03.29-.05.44-.67.37-1.4.29-1.97-.07-1.36-.85-2.84-1.66-3.15-3.48-.13-.73-.58-1.1-1.21-1.51-1.28-.84-2.46-1.83-3.58-2.88-.42-.4-.78-.72-1.36-.72-1.79,0-3.33-.46-4.29-2.17-.31-.54-1.06-.74-1.39-1.34-.54-.99-1.02-1.99-.88-3.18.18-1.51-.16-2.94-.77-4.31-.12-.27-.08-.6-.63-.49-.76.15-1.27-.63-.8-1.3.71-1.02.42-1.9.04-2.94-.88-2.42-1.08-5-.46-7.44.37-1.46,1.02-3.03,2.09-4.22,1.57-1.75,2.24-3.93,3.09-6.02.69-1.7,1.59-3.32,1.82-5.19.06-.47.42-.91.64-1.36,1.31-.35,2.6-.73,4-.68,1.42.05,2.73.53,4.1.78.64.12,1.04.69,1.19,1.39.48,2.23.22,4.41-.38,6.57-.85,3.07-1.82,6.11-2.52,9.22-.45,2.01-.56,4.11-.74,6.18-.1,1.14.61,1.82,1.71,1.93,1.17.12,2.35.28,3.52.44.74.1,1.1.61,1.26,1.29-1.07-.82-2.4-.53-3.59-.85-.26-.07-.52.03-.68.24-.78,1.09-1.41.76-2.2-.06-.74-.76-1.34-.54-1.55.44-.11.49-.37.63-.82.66-.44.02-.85-.11-1.27-.2-.42-.09-.8.04-1.03.42-.25.4.14.58.34.8.19.22.4.42.39.74-.08.21-.17.42-.25.63-.57-.06-.85-.52-1.16-.9-.58-.7-.97-.44-1.27.21-.11.25-.13.55-.14.84-.04,1.15,0,2.29-.19,3.44-.16.98-.08,2.02-.02,3.02.04.59.1,1.21.56,1.7.42.45.98.58,1.53.76.75.25.57-.87,1.19-.84,1.22.42,2.13.03,2.77-1.07.64.78,1.43.78,2.3.46.16-.06.35-.02.52-.02.17.71-.43,1.15-.61,1.73-.52-.04-1.07.15-1.54-.3-.25-.24-.5-.79-.95-.34-.43.44-.79,1.01-.39,1.64.59.93,1.16,1.92,2.4,2.16.86.17,1.2.75,1.33,1.6.42,2.58,2.39,4.18,5.01,4.14Z"/>
      <path class="cls-13" d="m44.5,49.09c-.69.78-1.56,1.12-2.6,1.03-.85-.07-1.52.23-2.11.86-1.03,1.08-2.01,2.11-3.59,2.6-1.19.37-2.14,1.5-3.2,2.3-.44-1.22-.28-1.72.87-2.23.38-.17.67-.41.94-.69.48-.49.92-.96,1.73-.91.52.04.88-.41,1.26-.76.76-.7,1.35-1.6,2.29-2.1,1.17-.62,2.55-.18,3.75-.76.36-.18.62.25.66.65Z"/>
      <path class="cls-9" d="m14.32,64.26c0-.32-.2-.52-.39-.74-.2-.22-.58-.4-.34-.8.23-.38.61-.5,1.03-.42.42.09.82.23,1.27.2.45-.02.71-.16.82-.66.22-.98.82-1.2,1.55-.44.8.82,1.43,1.15,2.2.06.15-.21.42-.31.68-.24,1.19.32,2.52.03,3.59.85.22.33.23.71.22,1.09-1.13-.84-3.28-.89-4.4-.04-.48.36-.8.32-1.21-.09-1.07-1.04-1.18-1.04-2.23.04-.35.36-.73.55-1.23.57-.59.02-1.13.19-1.56.62Z"/>
      <path class="cls-13" d="m32.43,56.88c-.75,1.29-1.6,2.42-3.2,2.82-1.11.27-1.6,1.38-2.33,2.16-.92-.53-1.13-1.11-.22-1.89.34-.29.5-.78.79-1.14.24-.31.49-.69.94-.64.98.1,1.71-.33,2.4-.95.46-.42,1.05-.4,1.63-.34Z"/>
      <path class="cls-13" d="m55.45,29.95c.97,1.11.89,1.49-.45,1.95-.63.22-1.02.63-1.2,1.27-.1.36-.1.81-.6.92-.43-.74-.49-1.54-.47-2.37,0-.27.08-.54.3-.66.78-.42,1.43-1.13,2.41-1.12Z"/>
      <path class="cls-13" d="m52.41,36.64c.84-.46.93.16.95.71.03.86-.02,1.72-.04,2.57-.01.47,0,.93.25,1.35-.79.44-1.23.11-1.38-.69-.18-.96-.28-1.91.2-2.84.17-.33.63-.73.01-1.1Z"/>
      <path class="cls-4" d="m31.51,28.02c-.39.67-.9,1.26-1.6,1.65-.25.14-.43-.1-.35-.34.27-.78.8-1.35,1.56-1.66.19-.08.44-.01.39.35Z"/>
      <path class="cls-2" d="m92.49,81.04c.12.56.49.87,1.01,1.02.21.39.52.67.97.72.92.11,1.61.66,2.35,1.13.02.25-.06.64.41.3.29,0,.58,0,.87,0,1.34.53,2.78.59,4.18.86.9.18,1.27.68.9,1.52-.7,1.64-1.72,3.12-3.03,4.3-2.21,2-4.52,3.9-6.83,5.78-3.65,2.98-7.2,6.06-11.28,8.48-3.08,1.83-6.24,3.44-9.61,4.66-1.75.64-3.96-.46-3.65-2.55.18-1.2-.25-2.35-.42-3.52-.05-.31-.21-.44-.5-.45-.13-.35-.17-.7-.08-1.06.85-.39,1.13-1.25.58-1.79.12-.14.23-.28.35-.42.64.03.76-.36.73-.89.14-.13.28-.27.42-.4.92-.12,1.12-.56.6-1.33.02-.13.04-.26.06-.4.28-.23.28-.45-.02-.66-.07-.36-.3-.69-.18-1.08.17.05.35.09.51.16,1.59.67,1.56.65,2.61-.75,1.32-1.76,2.05-3.86,3.33-5.64.34-.47.62-.99,1.32-.93.32.34.44.84.88,1.09.22.34.45.69.93.59,1.75-.35,4.23-1.69,3.87-4.15-.05-.33-.13-.73.21-1.01.33.57.4,1.2.44,1.85.06.94-.04,1.75-.99,2.29-.74.41-1.39.99-2.09,1.5-.25.06-.68-.15-.72.25-.04.4.4.52.69.56.99.14,2.01.12,2.99.33,1.08.24,2.02.17,2.72-.72.82-1.05,1.09-2.2.52-3.52-.34-.8-.95-1.37-1.48-1.97-.98-1.11-1.7-2.51-3.16-3.16-.22-.14-.45-.29-.67-.43-.02-.07-.03-.14-.05-.2.83-.11,1.56.18,2.27.54,1.25.64,2.53,1.2,3.9,1.51,2,.46,2.92-.15,3.25-2.17.03-.21.15-.4.22-.6.09.03.19.06.28.09.08.15.18.28.38.26Z"/>
      <path class="cls-9" d="m123.73,49.26c.51.07.79-.27,1.1-.58.44-.44.78-.32.96.23.33,1.02.76,2.03.74,3.14-.02,1.09-.39,1.5-1.48,1.54-.44.02-.88-.08-.73.65.08.38-.29.48-.59.43-1.15-.17-2.15.57-3.3.47-.62-.05-.78.6-1.01,1.01-.85,1.59-1.32,1.71-2.65.61-.11-.09-.22-.2-.34-.26-.47-.21-2.95.54-3.12,1.01-.28.76-.7,1.31-1.47,1.61-.26.1-.51.35-.45.67.07.41.44.32.7.3.77-.07.73.32.53.85-.83,2.19-1.64,4.39-2.5,6.57-.58,1.46-1.37,1.88-2.99,1.72-.37-.04-.82-.06-.67-.58.09-.33-.13-.96.76-.81.94.16,1.46-.69,1.18-1.65-.09-.31-.19-.63-.35-.91-.25-.46-.19-1.26-.76-1.34-.48-.06-.42.72-.69,1.08-.3.39-.67.52-1.13.51-.08-.54-.5-.42-.84-.43-.74-.01-1.48,0-2.37,0,.92-1.24,1.81-2.26,2.81-3.18.47-.44.44-.96.35-1.5-.05-.33-.36-.31-.61-.31-1.37,0-2.75,0-4.12,0-.46,0-.65.18-.65.64,0,.45.16.67.63.66.61-.01,1.23-.01,1.84,0,.24,0,.56-.12.67.19.09.28-.2.44-.37.61-.76.77-1.51,1.56-2.3,2.3-.5.46-.59,1.02-.4,1.58.18.56.75.27,1.14.3.61.04,1.23.02,1.84.02-.07.58.33.72.76.87.67.23.89.67.62,1.35-.56,1.41-1.35,2.7-2.37,3.8-1.26,1.36-2.04,3.04-3.18,4.48-.51.65-.98,1.34-1.5,1.98-.51.63-1.09,1.17-2.02.98-.69-.14-1.2.5-1.87.43.4-.54.74-1.18.23-1.73-.54-.58-1.1-.05-1.61.25-.21.13-.39.29-.59.43-.09-.14-.18-.28-.26-.42.14-.11.31-.19.43-.32.24-.26.55-.57.38-.94-.21-.45-.7-.37-1.06-.28-.63.16-1.23.41-1.69.9-.19-.02-.33-.09-.41-.28.13-.28.39-.39.64-.53,1.31-.71,2.18-2.38,1.99-3.81.35.03.71.11,1.06.08,1.42-.11,2.84-.23,3.73-1.59,1.2-.33,1.56-1.37.82-2.4l.03.02c-.07-.08-.13-.16-.2-.25-.52-1.07-1.43-1.63-2.5-2.02-.47-.17-1.02.01-1.41-.38,0-.22-.02-.44,0-.65.15-1.05.31-1.12,1.16-.44,1.01.8,3.29.84,4.29.07.35-.27.49-.57.2-1.02-.3-.47-.53-.5-1.01-.19-.8.51-1.65.45-2.4-.19-.17-.14-.31-.33-.24-.56.08-.26.32-.26.54-.25.8.03,1.57-.09,2.36-.2,1.16-.16,1.48-.6,1.06-1.74-.2-.55-.47-1.07-.97-1.4-.67-.44-.43-.73.14-.95,1.02-.38,1.79-1.03,2.27-2.03.32-.67.85-1.11,1.54-1.43,1.07-.5,2.26-.88,2.97-1.91.51-.74,1.19-1.03,2.03-1.25.78-.21,1.91-.2,1.91-1.5.12.02.25.03.37.05.86,1.01,1.56,2.11,2.99,2.61.95.34,1.95.67,2.87,1.11,1.06.51,1.19.5,1.6-.64.1-.27.19-.54.26-.82.17-.68.55-.88,1.17-.52.43.58,1,.44,1.58.31,1.12-.26,2.23-.59,3.36-.71.79-.08.96-.49,1.03-1.11.1-.86-.31-1.62-.45-2.43Zm-14.09,15.01c.12-.7.62-1.13.22-1.68-.1-.14-.36-.09-.48.06-.39.5-.26.97.25,1.61Zm.82-2.89c.08-.12.17-.19.17-.26,0-.08-.06-.23-.12-.24-.17-.05-.24.09-.23.23,0,.08.09.15.17.27Z"/>
      <path class="cls-9" d="m124.14,33.84c0,.08,0,.16,0,.24-.31.27-.46.58-.44,1.01.04.74.02,1.48.02,2.22.27.57.57,1.14.53,1.86-.43-.98-1.3-1.3-2.18-1.59-.49-.16-.66-.64-.96-.99-.85-1.02-1.55-1.01-2.26.08-.24.36-.54.41-.89.51-2.05.58-3.44,2.02-4.66,3.64-.33.43-.5.95-.45,1.53.02.24.03.56-.33.56-.29,0-.3-.26-.31-.48-.01-.3-.08-.7-.39-.68-1.05.05-1.79-.44-2.58-1.06-.63-.5-1.6.04-1.8.88-.18.76-.52,1.23-1.38,1.21-.36,0-.7.2-.95.47-.42.46-.83.66-1.52.45-.71-.22-1.24.18-1.37.97-.06.39-.18.77-.2,1.16-.04.58-.27.96-.88,1.04.11-.81.27-1.62.33-2.44.1-1.48,1.44-2.46,1.56-3.94.06-.75.53-1.3,1.26-1.62.66-.29,1.05-.83,1.19-1.56.12-.62.35-1.18,1.09-1.3.65,0,1.29,0,1.94.01.54,0,1.09-.14,1.31-.6.32-.68.59-1.32,1.16-1.86.31-.29.3-.92-.09-1.28-.41-.38-.69.08-1,.29-.66.44-1.52.63-1.54,1.71,0,.33-.49.48-.89.45.02-.42-.21-.92.19-1.22,1.16-.87.55-1.65-.06-2.45.77-1.03.66-2.13.25-3.25,1.06.11,2.03.48,2.92,1.05.49.31.97.61,1.57.67,2.84.28,5.43,1.32,7.92,2.68,1.23.67,2.25,1.92,3.88,1.65Z"/>
      <path class="cls-13" d="m106.57,36.01c-.74.12-.97.68-1.09,1.3-.14.73-.53,1.27-1.19,1.56-.73.32-1.19.87-1.26,1.62-.12,1.48-1.46,2.46-1.56,3.94-.06.82-.22,1.62-.33,2.44-.07.07-.14.15-.22.22-.79.14-.91.76-.85,1.37.09,1.05-.41,1.59-1.34,1.86-.37.11-.79.16-.84.67-.15.22-.29.43-.44.65-.16.03-.37.03-.32.27.02.08.21.12.32.17-.13.89.34,1.52.91,2.09.44.44.61.22.61-.29.42-.03.85-.04,1.26-.11.59-.11,1.09-.35,1.04-1.09.12-.22.24-.44.37-.66.35.13.71.11,1.06,0,1.59-.47,3.23-.61,4.85-.91.52-.1.99-.04,1.41.29,0,1.3-1.14,1.29-1.91,1.5-.84.23-1.52.51-2.03,1.25-.71,1.03-1.9,1.41-2.97,1.91-.69.32-1.22.76-1.54,1.43-.48,1-1.25,1.64-2.27,2.03-.57.21-.81.51-.14.95.5.33.77.86.97,1.4.42,1.14.11,1.58-1.06,1.74-.79.11-1.56.23-2.36.2-.21,0-.46-.01-.54.25-.07.24.07.42.24.56.75.63,1.6.7,2.4.19.49-.31.71-.28,1.01.19.29.45.15.74-.2,1.02-1,.78-3.28.73-4.29-.07-.85-.67-1.01-.61-1.16.44-.03.21,0,.43,0,.65-.58,0-1.16,0-1.73-.01-.11-.62.25-1,.64-1.39.38-.37.85-.81.53-1.39-.39-.72-.27-1.46-.32-2.2.27-.53.77-.75,1.3-.93-.17.51-.3,1.03-.51,1.52-.29.68,0,1.26.23,1.86.06.17.25.41.37.28.55-.59,1.57-1.34,1.47-1.84-.27-1.38.51-1.42,1.36-1.51.49-.05.55-.37.69-.69.18-.43-.06-.58-.42-.69-.4-.12-.48-.34-.42-.81.24-1.67-.14-2.06-1.9-2.18.26-1.01,1.49-.77,1.96-1.52.14.03.28.08.42.1.48.05,1.03.69,1.43.01.34-.59-.16-1.05-.52-1.51-.42-.55-.92-.6-1.51-.34-.77-.99-2.05-1.45-2.67-2.59.31-.08.63-.15.94-.23,1.32-.32,1.56-.69,1.49-2.15-.05-1.14-.89-1.36-1.76-1.53-.31-.06-.65-.02-.97-.03.43-.48.99-.55,1.6-.68,1.11-.24,2.36-.15,3.25-1.06.47.02.93.03,1.4.08.79.08,1.15-.27.96-1.03-.13-.52-.3-1.04-.54-1.52-.28-.56-.31-.91.4-1.11.46-.13.7-.51.92-.97.57-1.18.74-2.8,2.62-2.75.03,0,.07-.03.1-.04.31-.16.57-.37.41-.76-.19-.44-.51-.27-.81-.12-.61.3-1.21.68-1.92.25.72-.45.65-.96.11-1.5-.31-.31-.64-.62-.6-1.1.05-.65-.28-1.09-.74-1.47.73-.63,1.07-1.65.63-2.04-.58-.51-.73.36-1.15.42.02-.32-.1-.72.2-.9,1.31-.79,1.79-2.02,1.95-3.46.02-.21.09-.45.23-.59.67-.71.83-1.63,1.08-2.51.04-.05.1-.07.17-.06.04,1.06.18,2.11-.11,3.16-.14.51-.02.98.4,1.34-.02.46.13.89.46,1.16,1.04.86,1.17,1.97,1.02,3.19-.1.83.25,1.45.89,1.94.13.29.46.47.44.84Z"/>
      <path class="cls-2" d="m118.21,53.2c-.63-.35-1-.16-1.17.52-.07.28-.16.55-.26.82-.41,1.14-.53,1.15-1.6.64-.92-.45-1.92-.78-2.87-1.11-1.43-.51-2.13-1.6-2.99-2.61.59-.09,1.17-.16,1.75-.28.46-.09.77-.33.68-.87.65-.35.86-.87.52-1.53-.33-.63-.33-1.33-.44-2-.06-.39-.32-.92.21-1.16.48-.22.99-.18,1.4.24.07.08.17.13.26.19.23.54.4,1.11.87,1.5.39.57.89,1.02,1.49,1.36.39.3.45-.07.59-.29.13.43.48.56.86.72.9.38,1.73,2.52,1.37,3.42-.12.31-.38.4-.67.44Z"/>
      <path class="cls-15" d="m111.75,50.31c.1.54-.22.78-.68.87-.58.11-1.17.19-1.75.28-.12-.02-.25-.03-.37-.05-.42-.33-.89-.38-1.41-.29-1.62.3-3.26.44-4.85.91-.35.1-.71.12-1.06,0-.02-.12-.03-.25-.05-.37,1.02-1.63,1.77-3.39,2.38-5.21.5.07.8-.2,1.03-.61.49-.86,1.14-.88,1.88-.34.23.17.47.33.67.54,1,1.04,2.28,1.54,3.63,1.92.06.44-.11.82-.31,1.2-.2.38-.25.74.25.95.17.21.41.18.64.2Z"/>
      <path class="cls-3" d="m118.21,53.2c.29-.05.55-.13.67-.44.36-.9-.47-3.04-1.37-3.42-.38-.16-.73-.29-.86-.72.14-.36-.13-.69-.11-1.04.02-.44-.23-.97.25-1.28.44-.28.61.39,1,.39.4.73.44,1.76,1.54,1.93,1.29-.51,2.67.6,3.94-.23.15.29.3.59.45.88.14.81.55,1.57.45,2.43-.07.62-.23,1.03-1.03,1.11-1.13.12-2.25.45-3.36.71-.58.13-1.14.27-1.58-.31Z"/>
      <path class="cls-13" d="m103.09,66.42c-.61,0-1.23.02-1.84-.02-.4-.03-.96.26-1.14-.3-.18-.56-.1-1.11.4-1.58.8-.73,1.54-1.52,2.3-2.3.17-.17.46-.33.37-.61-.1-.31-.43-.19-.67-.19-.61-.02-1.23-.02-1.84,0-.47.01-.63-.22-.63-.66,0-.46.2-.65.65-.64,1.37.01,2.75,0,4.12,0,.25,0,.55-.02.61.31.09.54.12,1.06-.35,1.5-1,.92-1.9,1.94-2.81,3.18.89,0,1.63,0,2.37,0,.34,0,.76-.11.84.43.07.6-.12.94-.8.88-.52-.04-1.05,0-1.58,0Z"/>
      <path class="cls-6" d="m126.98,38.61c1.19,1.45,2.03,3.1,2.8,4.79-1.02.81-1.63.74-2.31-.25-.32-.46-.59-.98-1.11-1.28-.06-.29-.2-.52-.47-.66-.14-.14-.27-.28-.41-.43-.23-.36-.45-.72-.68-1.08.67-.48,1.24-1.16,2.18-1.09Z"/>
      <path class="cls-3" d="m118.38,43.6c-.16-.94-.78-1.74-.81-2.72.23.09.48.15.7.27,1.22.7,1.21.7,1.76-.59.86.77,2.21.78,2.84,1.91.32.57.64,1.06-.04,1.56-.23-.1-.46-.18-.68-.3-1.8-.98-2.18-.82-2.66,1.08-.03.1-.09.2-.14.29-.13,0-.26,0-.39,0-.19-.5-.39-1-.58-1.5Z"/>
      <path class="cls-7" d="m105.46,80.29c.73-.11,1.47-.2,2.2-.32.49-.08,1.03-.3,1.38.19.35.49-.26.72-.43,1.08-.06.12-.08.27-.12.41-1.62-1-4.36-.38-5.5,1.23-.04-.01-.08,0-.1.04-.24.01-.5-.02-.67.22-.15,0-.29,0-.44-.01-.96-.69-1.89-.49-2.79.13-.48.33-.92.69-1.54.69.86-.78,1.68-1.62,2.61-2.31.57-.42,1.31-.47,1.81.22.31.43.59.49.94.12.25-.26.47-.53.7-.8,0,0,0,0,0,0,.31,0,.53-.15.64-.44,0,0,0,0,0,0,.35-.02.65-.14.88-.42.14,0,.28,0,.42-.01Z"/>
      <path class="cls-13" d="m119.35,45.11c.05-.1.11-.19.14-.29.48-1.9.86-2.06,2.66-1.08.22.12.45.2.68.3.66.55,1.2-.11,1.8-.19.34-.04.67-.33.99.06.17.21.32.42.19.68-.19.39-.52.54-.96.57-.68.05-1.27-.14-1.85-.47-.52-.3-.91-.22-1.01.44-.1.66-.51.91-1.14.89-.67-.02-1.33-.05-1.49-.9Z"/>
      <path class="cls-6" d="m103.52,81.17c-.23.27-.46.55-.7.8-.36.38-.64.31-.94-.12-.5-.7-1.24-.65-1.81-.22-.93.69-1.74,1.53-2.61,2.31-.08.02-.15.04-.23.06-.14-.03-.27-.06-.41-.09-.74-.47-1.44-1.02-2.35-1.13-.45-.05-.76-.33-.97-.72.83-.03,1.55-.57,2.42-.46.59.08,1.06.15.97.94-.07.6.34.66.76.46.32-.15.64-.36.86-.63,1.12-1.34,2.49-1.74,4.16-1.25.27.08.57.04.86.05Z"/>
      <path class="cls-6" d="m123.28,48.38c-1.27.83-2.65-.28-3.94.23.61-1.23,1.52-2.05,2.94-2.18.22-.02.43-.04.65-.02.4.04.81-.85,1.15-.11.26.56.1,1.21-.47,1.65-.14.11-.22.28-.33.42Z"/>
      <path class="cls-6" d="m118.38,43.6c.19.5.39,1,.58,1.5-.87.17-.52,1.24-1.16,1.58-.39,0-.56-.67-1-.39-.48.31-.23.84-.25,1.28-.02.35.25.67.11,1.04-.14.21-.2.59-.59.28.58-.81,0-1.64.04-2.47,0-.22,0-.43,0-.65.18-1.32.78-2.2,2.26-2.19Z"/>
      <path class="cls-2" d="m103.97,46.44c-.61,1.82-1.36,3.58-2.38,5.21-.67-1.61-.63-1.93.59-2.97.52-.44.51-.99.54-1.57.05-.88.42-1.21,1.25-.67Z"/>
      <path class="cls-7" d="m126.28,56.88c.32-.5.65-.63,1.08-.1.38.46.8.88,1.18,1.33.85,1,.8,1.23-.38,2.03-.43-.52-.61-1.2-1.14-1.65-.09-.11-.18-.22-.27-.34-.21-.41-.48-.79-.48-1.28Z"/>
      <path class="cls-9" d="m116.12,45.79c0,.22,0,.43,0,.65-.64.19-1.1.63-1.53,1.11-.48-.39-.65-.96-.87-1.5.15-.76.88-1.08,1.29-1.65.27-.37.68.15.85.5.14.28-.06.67.27.89Z"/>
      <path class="cls-13" d="m91.57,79.25c.2-.15.38-.31.59-.43.5-.31,1.07-.84,1.61-.25.51.55.17,1.19-.23,1.73-.14.07-.29.15-.43.22-.37-.05-.67.13-.99.26-.09-.03-.19-.06-.28-.09-.09-.48-.17-.96-.26-1.43Z"/>
      <path class="cls-6" d="m120.02,40.56c-.54,1.3-.54,1.29-1.76.59-.21-.12-.46-.18-.7-.27-.24-.4-.2-.84-.14-1.25.08-.57.66-.79.92-.46.47.6,1.01,1.04,1.67,1.39Z"/>
      <path class="cls-6" d="m123.72,37.31c0-.74.02-1.48-.02-2.22-.02-.43.14-.74.44-1.01.72,0,.65.79,1.08,1.08-.13.47.42.67.43,1.08-.72.22-1.3.69-1.93,1.08Z"/>
      <path class="cls-9" d="m97.88,51c.05-.51.47-.56.84-.67.93-.28,1.43-.82,1.34-1.86-.05-.61.07-1.23.85-1.37-.3.9-.54,1.81-.45,2.78.05.54-.4.75-.81.84-.58.14-1.19.19-1.78.28Z"/>
      <path class="cls-15" d="m101.27,52.68c.05.74-.45.98-1.04,1.09-.41.07-.84.08-1.26.11-.58-.42-.58-.85.13-1.03.7-.17,1.43-.45,2.17-.17Z"/>
      <path class="cls-14" d="m130.22,46.01c-.05.39-.24.7-.62.59-.5-.14-.88-.49-.88-1.07,0-.4.34-.41.63-.39.54.04.82.36.87.87Z"/>
      <path class="cls-2" d="m110,44.24c.54.13,1.03.39,1.06,1.02.01.3-.35.32-.6.28-.59-.09-1.03-.46-1.13-1.01-.07-.42.4-.25.67-.29Z"/>
      <path class="cls-13" d="m111.11,50.11c-.49-.21-.45-.57-.25-.95.2-.38.37-.76.31-1.2.86.59.84,1.04-.06,2.16Z"/>
      <path class="cls-9" d="m124.8,39.71c.23.36.45.72.68,1.08-.8.08-.88-.57-1.03-1.09-.03-.11.22,0,.35,0Z"/>
      <path class="cls-6" d="m105.04,80.3c-.22.28-.52.41-.88.42.14-.44.35-.77.88-.42Z"/>
      <path class="cls-9" d="m92.11,80.78c.32-.14.62-.31.99-.26-.02.39-.32.44-.61.52-.2.02-.3-.1-.38-.26Z"/>
      <path class="cls-9" d="m125.89,41.22c.27.14.41.37.47.66-.48.01-.5-.31-.47-.66Z"/>
      <path class="cls-6" d="m104.17,80.73c-.11.3-.33.44-.64.44.01-.44.33-.44.64-.44Z"/>
      <path class="cls-9" d="m97.44,52.09c-.11-.06-.3-.1-.32-.17-.05-.23.16-.23.32-.27,0,.15,0,.29,0,.44Z"/>
      <path class="cls-9" d="m26.67,95.49c-.24-.79-.63-1.55-.59-2.41.13-.12.27-.36.39-.35,1.54.13,3.04-.19,4.62.51,2.76,1.21,5.76,1.68,8.77,2.08,2.96.39,5.88.17,8.8-.12,2.38-.24,4.67-1.03,7.14-.62,1.66.27,3.45-.22,4.96.92.14,0,.29,0,.43,0,.65.35,1.3.35,1.95,0,.65,0,1.3,0,1.95,0,.7-.25,1.22-.17,1.74.48.49.6,1.22,1.04,1.95.18.14,0,.28,0,.43,0-.29.82-.75,1.53-1.37,2.15-1.12,1.15-2.32,2.24-2.74,3.9-.14.55-.53.9-1.09,1.1-5.29,1.93-10.64,3.62-16.29,4.2-1.35.14-2.71.09-4.07.33-1.22.21-2.35-.21-3.39-1.15-1.12-1-2.31-2.06-3.92-2.36-.38-.07-.73-.25-1.05-.51-1.02-.82-2.39-1.17-3.12-2.38-.03-.06-.2-.03-.31-.04,0,0,.03,0,.03,0-.09-.08-.18-.15-.28-.23-.2-.19-.4-.39-.6-.58-.09-.1-.19-.19-.28-.29-.89-1.99-2.69-3.21-4.06-4.79Z"/>
      <path class="cls-12" d="m31.86,101.38c.11.01.28-.01.31.04.72,1.21,2.1,1.56,3.12,2.38.33.26.67.44,1.05.51,1.61.29,2.8,1.36,3.92,2.36,1.05.93,2.17,1.36,3.39,1.15,1.36-.24,2.72-.19,4.07-.33,5.65-.58,11-2.26,16.29-4.2.56-.2.95-.55,1.09-1.1.42-1.65,1.62-2.75,2.74-3.9.61-.63,1.08-1.33,1.37-2.15.24-.36.31-.83.68-1.1.07.03.13.05.2.08-.41,1.87-1.16,3.52-2.72,4.74-.87.68-1.04,1.6-.86,2.7.17,1.07.48,2.27-.49,3.17-.48.44-.7.97-.85,1.57-.35,1.4-1.36,2.23-2.79,2.31-.32.02-.67-.04-.77.4-.55-.02-1,.1-1.36.61-.32.45-.8.78-1.22,1.17-.61.09-.41.57-.44.93-.06.67.18,1.39-.12,2.02-.94,1.98-4.75,3.33-6.83,2.46.69-1.82,1.39-3.63,2.05-5.45.11-.31.53-.72.02-1.02-.62-.36-1.56.06-1.8.75-.4,1.13-.66,2.31-1.29,3.58-.48-1.41-.89-2.63-1.31-3.85-.32-.94-1.13-.54-1.66-.44-.64.12-.27.67-.11,1.05.7,1.7,1.4,3.39,2.12,5.09.34.8-.07,1.53-.93,1.61-.32.03-.65,0-.97,0-.48.04-.74.33-.88.77-.13.4-.25.81-.7.99-.89-.83-.88-2.03-1.27-3.06.29,0,.57-.03.86,0,.6.05.93-.09.92-.81-.01-.7-.4-.72-.91-.71-.71.02-1.43,0-2.15.01-.15-.11-.2-.27-.19-.45,1.41-.69,2.08-2.13,3.12-3.2.24-.25.44-1.27-.32-1.3-1.52-.06-3.07-.33-4.58.17-.06-.01-.12-.03-.18-.04-.49-2.26-1.5-4.18-3.59-5.37-.03-.02-.06-.05-.09-.06-1.64-.36-2.88-1.54-4.39-2.15-.72-.47-1.22-1.13-1.55-1.92Z"/>
      <path class="cls-12" d="m30.73,100.28c.09.1.19.19.28.29-.09-.1-.19-.19-.28-.29Z"/>
      <path class="cls-12" d="m31.61,101.15c.09.08.18.15.28.23-.09-.08-.18-.15-.28-.23Z"/>
      <path class="cls-11" d="m113.1,92.24c-.09.68.24,1.29.29,1.95-.05.36-.1.72-.15,1.07-1.34,1.36-1.64,3.4-3.09,4.69-.09.08-.02.33-.02.51.09,1.51.26,3.02.02,4.54-.49.57-.64,1.26-.74,1.97-.03.14-.06.29-.09.43-.42.07-.48.51-.75.74-.27.22-.44.33-.84.15-1.59-.73-2.89-.16-3.52,1.49-.1.27-.15.56-.27.82-.32.73-.85.85-1.33.22-.71-.92-1.64-1.04-2.69-1.01-.58.01-.75.25-.74.79.01.52.08.93.74.96.44.02,1.05-.18,1.16.47.1.58-.49.74-.86.99-1.16.79-2.29,1.62-3.49,2.35-.89.54-1.08.38-1.24-.63-.14-.88-.39-1.74-.03-2.6-.33-.12-.49,0-.58.15-1.18,1.82-3.14,2.59-4.89,3.63-6.32,3.74-12.99,6.74-19.88,9.26-2.93,1.07-5.93,1.99-9.01,2.59-.89.17-1.7-.35-2.57-.14-1.13-.57-2.28-1.09-2.55-2.54-.06-.31-.31-.56-.65-.66-.06-.05-.12-.07-.2-.08-.26-.45-.82-.7-.87-1.29.8-.7,1.63-1.35,2.62-1.79.56-.25.54-.79.19-1.28.18-.5-.65-1.07.11-1.54,1.39.07,3.22-2,3.31-3.75-.01-.43.02-.86-.04-1.28-.21-1.44.64-2.95,2.08-3.1,1.51-.15,2.73-.67,3.76-1.74.12,1.04-.59,1.48-1.36,1.83-.75.35-1.56.57-2.29.97-1.25.68-1.72,1.77-1.44,3.14.18.91.39,1.78.22,2.74-.15.87.64,1.62,1.62,1.66,1.52.07,3-.03,4.47-.53,3.96-1.34,7.79-3,11.54-4.83,1.75-.85,3.54-1.65,5.16-2.71,3.45-2.27,7.03-4.35,10.35-6.83,2.89-2.15,5.72-4.37,8.36-6.8,2.51-2.32,4.88-4.8,7.27-7.25.61-.63,1.23-1.32,1.34-2.28.91.54,1.24,1.48,1.64,2.37-.12.72-.15,1.45-.09,2.18Z"/>
      <path class="cls-6" d="m109.32,107.41c.03-.14.06-.29.09-.43.88.26,1.74.39,2.54-.21-.16.81-.26,1.59-.02,2.43.23.8-.28,1.44-.78,2.01-.28.32-.6.6-.9.89-.45.18-.85-.11-1.28-.13,0-.43-.02-.87-.03-1.3.44-1.05,1.02-2.08.38-3.26Z"/>
      <path class="cls-7" d="m55.33,124.44c.34.1.59.35.65.66.27,1.45,1.42,1.97,2.55,2.54-.08.83-.56,1.04-1.45.83-1.44-.34-2.89-.58-4.34-.86-.19-.07-.23-.25-.27-.42.73.03,1.46.31,1.86-.77.25-.67,1.22-1.03,1.01-1.99Z"/>
      <path class="cls-7" d="m108.93,110.66c0,.43.02.87.03,1.3-.21-.01-.42-.02-.64-.04.11-.47.14-.97.61-1.26Z"/>
      <path class="cls-3" d="m111.55,87.69c-.11.96-.72,1.65-1.34,2.28-2.39,2.45-4.75,4.93-7.27,7.25-2.64,2.44-5.47,4.65-8.36,6.8-3.32,2.48-6.9,4.56-10.35,6.83-1.62,1.06-3.41,1.86-5.16,2.71-3.75,1.84-7.58,3.49-11.54,4.83-1.48.5-2.96.6-4.47.53-.98-.04-1.77-.79-1.62-1.66.16-.96-.04-1.84-.22-2.74-.28-1.37.19-2.46,1.44-3.14.72-.39,1.53-.62,2.29-.97.77-.36,1.48-.8,1.36-1.83.03-.09.06-.17.09-.26.32-.07.57-.17.2-.51.02-.12.04-.24.06-.36.58-.27.58-.81.61-1.34h0c.51-.02.45-.38.43-.71.23-.69.16-1.4.17-2.11.29.01.45.14.5.45.17,1.17.61,2.32.42,3.52-.32,2.09,1.89,3.18,3.65,2.55,3.37-1.22,6.53-2.84,9.61-4.66,4.08-2.42,7.64-5.51,11.28-8.48,2.31-1.89,4.62-3.78,6.83-5.78,1.31-1.19,2.32-2.66,3.03-4.3.36-.85,0-1.35-.9-1.52-1.4-.27-2.84-.33-4.18-.86.29-.29.69-.32,1.06-.43.86-.27,1.8-.24,2.63-.65.15,0,.29,0,.44.01.37.36.57.22.67-.22.02-.04.06-.05.1-.04,1.03.04,1.9-.57,2.89-.72.82-.13,1.84-.44,2.38.09,1.07,1.04,2.27.86,3.5.9.21,1.38-.41,2.73-.1,4.11-.04.15-.07.3-.11.45Z"/>
      <path class="cls-9" d="m111.66,87.25c-.31-1.38.31-2.74.1-4.11.02-.07.05-.15.07-.22.05,0,.11,0,.16,0,.13.7.56.23.82.17.38-.09.68-.17.95.2.83,1.11-.01,3.32-1.37,3.52-.3.04-.59.03-.62.43-.04,0-.08.01-.12.01Z"/>
      <path class="cls-12" d="m113.24,95.27c.05-.36.1-.72.15-1.07.11,0,.23.03.32-.01,1.12-.46,1.7.06,1.98,1.1,0,.14-.01.28-.02.43-.28.05-.54.11-.2.44-.08.29-.16.58-.24.86-.43.03-.44.34-.42.66,0,.07,0,.14-.01.2-.41.03-.63.24-.64.66-.24.15-.22.4-.24.63-.35.02-.44.31-.58.55-.81,1.43-1.54,1.61-3.09.75.33-.39.66,0,.99,0,.43,0,.97.14,1.13-.38.33-1.13,1.2-1.84,1.89-2.71.82-1.05.31-2.01-1.02-2.11Z"/>
      <path class="cls-7" d="m129.18,63.66c.06-.63-.79-1.45.29-1.85.92-.34,1.22.61,1.62,1.08,1.36,1.61,1.12,2.51-.69,3.08-.43-.76-.49-1.71-1.23-2.31Z"/>
      <path class="cls-11" d="m111.83,82.91c-.02.07-.05.15-.07.22-1.23-.04-2.43.14-3.5-.9-.54-.53-1.56-.21-2.38-.09-.99.15-1.86.76-2.89.72,1.14-1.61,3.88-2.23,5.5-1.23.07.07.14.13.2.2.43.57,1.01.44,1.57.3.57-.15,1.05-.06,1.49.34l.08.43Z"/>
      <path class="cls-12" d="m111.78,87.23c.03-.4.32-.38.62-.43,1.35-.2,2.19-2.4,1.37-3.52-.27-.37-.58-.29-.95-.2-.26.06-.69.53-.82-.17.3-.39.78-.5,1.19-.71,1.02-.52,1.42-.31,1.4.8-.01.97-.09,1.94-.24,2.9-.17,1.03-.88,1.37-2.56,1.33Z"/>
      <path class="cls-12" d="m113.1,92.24c-.07-.73-.04-1.45.09-2.18.38-.07.77-.16,1.15-.21.39-.04.79-.07,1,.4.18.41.12.74-.17,1.08-.55.64-1.2,1-2.07.9Z"/>
      <path class="cls-7" d="m111.75,82.48c-.43-.39-.92-.48-1.49-.34-.55.14-1.13.27-1.57-.3.85-.17,1.66-.44,2.41-.88.28-.17.59-.24.93-.23.38.02.85-.09.98.43.12.47-.32.57-.6.78-.23.17-.45.35-.67.53Z"/>
      <path class="cls-11" d="m127.03,58.49c.53.45.71,1.13,1.14,1.65.11.45.21.9.38,1.62-.99-1.08-1.45-2.09-1.52-3.27Z"/>
      <path class="cls-11" d="m129.18,63.66c.73.6.8,1.55,1.23,2.31,0,.42,0,.85,0,1.27-.33-1.22-1.1-2.3-1.23-3.58Z"/>
      <path class="cls-7" d="m132.4,67.29c-.27.47-.67.8-1.11,1.11-.04-.75.16-.95,1.11-1.11Z"/>
      <path class="cls-7" d="m132.62,67.06c-.07.07-.15.15-.22.22.07-.07.15-.15.22-.22Z"/>
      <path class="cls-13" d="m60.77,95.49c-1.51-1.13-3.3-.64-4.96-.92-2.48-.41-4.77.38-7.14.62-2.92.3-5.84.52-8.8.12-3.01-.4-6.01-.87-8.77-2.08-1.58-.69-3.08-.37-4.62-.51-.12-.01-.26.22-.39.35-.61-1.23-.37-2.43.62-3.16,1.17-.87,1.68-3.17.97-4.44-.23-.41-.44-.82-.45-1.31,1.16.49,2.27,1.07,3.33,1.75,1.27.81,2.64,1.4,4.08,1.83,2.51.75,5.07,1.23,7.69,1.43,1.42.11,2.82.38,4.27.05,1.47-.34,2.99-.44,4.42.3.3.15.56.08.78-.16.53-.58,1.2-1.04,1.6-1.74.88.41.6,1.43,1.07,2.06-.03.1-.03.22-.09.31-.36.6-1.41.69-1.37,1.54.04.93,1.13.88,1.62,1.41,1.28,1.39,2.87,1.48,4.55,1,.51-.15.83-.12,1.01.4.14.41.56.67.58,1.14Z"/>
      <path class="cls-14" d="m53.39,87.63c-.4.7-1.07,1.16-1.6,1.74-.22.24-.48.31-.78.16-1.43-.74-2.95-.64-4.42-.3-1.45.34-2.86.06-4.27-.05-2.61-.2-5.17-.69-7.69-1.43-1.44-.43-2.81-1.02-4.08-1.83-1.06-.68-2.17-1.26-3.33-1.75-.06-.21-.11-.42-.16-.62,0-.92.42-1.41,1.39-1.3.46.05.8-.18.97-.55.34-.71.88-1.01,1.64-.99.54.01.97-.18,1.28-.65.32-.49.72-.44,1.07-.05.5.56,1.14.71,1.85.74,1.44.06,2.88.14,4.32.22.25.01.56,0,.73.13,1.45,1.12,3.46,1.32,4.64,2.87,1.01,1.34,2.35,1.81,3.99,1.59.46-.06.94-.03,1.41-.05,1.48.04,2.26,1.09,3.05,2.13Z"/>
      <path class="cls-3" d="m44.89,117.2c.4,1.03.39,2.23,1.27,3.06.02.07.04.15.06.22-.17,1-.78,1.31-1.77,1.3-4.29-.03-8.52-.55-12.68-1.63-1.35-.35-2.67-.85-3.99-1.33-.77-.28-1.44-.69-1.53-1.63.54-.36.43-.81.24-1.33-.24-.65-.63-.24-.97-.2-.74.08-1.19-.21-1.22-1-.01-.29,0-.58,0-.87,0-1.49,0-1.49,1.44-1.58.39-.02.72-.04.74-.55.01-.25-.14-.66.33-.65.35.01.79.04,1.02.25.26.23-.16.49-.28.72-.84,1.58-.6,3.32.63,4.42,1.09.97,3.18,1.08,4.44.22.28-.19.75-.32.39-.79-.25-.33-.53-.75-1.06-.4-.71.47-1.46.58-2.25.2-.42-.21-.78-.57-.72-1,.07-.48.6-.24.92-.25.68-.04,1.37,0,2.06-.01.58-.01,1.26.21,1.31-.79.02-.43.52-.25.81-.3-.08.77.08,1.49.43,2.17.68,2.31,4.82,2.19,5.81.69.11-.17.12-.46.4-.41.34.05.32.37.29.6-.09.77.33.9.98.87.9-.04,1.8-.02,2.7-.02.07,0,.14.01.21.01Z"/>
      <path class="cls-15" d="m34.5,115.46c-.34-.68-.51-1.4-.43-2.17.61-1.61,1.58-2.71,3.5-2.61,1.66.09,2.9,1.43,2.79,3.09-.03.48-.25.62-.69.61-.69-.01-1.38-.05-2.06.01-.65.05-1.53-.42-1.72.85-.07.46-.91.14-1.39.22Zm2.78-1.91c.42-.24,1.23.37,1.29-.52.05-.66-.54-.83-1.15-.84-.71,0-1.34.3-1.32.97.02.67.77.19,1.18.39Z"/>
      <path class="cls-9" d="m41.65,110.92c1.51-.49,3.06-.22,4.58-.17.75.03.56,1.05.32,1.3-1.04,1.06-1.71,2.5-3.12,3.2-.31-.35-.44-.77-.5-1.22.21-.7,1.41-.99,1.12-1.65-.22-.49-1.26-.09-1.92-.18-.05-.01-.11-.02-.17-.02-.1-.42-.2-.84-.3-1.26Z"/>
      <path class="cls-9" d="m44.89,117.2c-.07,0-.14,0-.21-.01-.29-.54-.96-.82-1.07-1.5.72,0,1.43,0,2.15-.01.51-.01.9.01.91.71.01.71-.32.86-.92.81-.28-.02-.57,0-.86,0Z"/>
      <path class="cls-12" d="m42.12,112.2c.67.09,1.7-.31,1.92.18.29.66-.91.95-1.12,1.65-.46-.53-.63-1.18-.8-1.83Z"/>
      <path class="cls-15" d="m41.65,110.92c.1.42.2.84.3,1.26-1.17-.06-.74-.71-.48-1.3.06.02.12.03.18.04Z"/>
      <path class="cls-6" d="m110.25,100.47c1.55.86,2.28.68,3.09-.75.14-.24.23-.53.58-.55.03.89-.63,1.49-.97,2.22-.18.4-.48.82-.27,1.22.76,1.46-.11,2.57-.73,3.73-.61-.44-1.03-1.12-1.8-1.34.24-1.51.07-3.03-.02-4.54,0,0,.06,0,.06,0h.06Z"/>
      <path class="cls-12" d="m110.15,105c.77.22,1.19.91,1.8,1.34,0,.14,0,.28,0,.42-.8.6-1.67.48-2.54.21.1-.71.26-1.41.74-1.97Z"/>
      <path class="cls-6" d="m114.16,98.54c.01-.42.23-.63.64-.66,0,.42-.23.63-.64.66Z"/>
      <path class="cls-6" d="m114.82,97.67c-.02-.32-.01-.63.42-.66.02.32.02.63-.42.66Z"/>
      <path class="cls-6" d="m115.47,96.15c-.34-.33-.08-.39.2-.44,0,.18-.03.34-.2.44Z"/>
      <path class="cls-6" d="m46.22,120.48c-.02-.07-.04-.15-.06-.22.45-.18.58-.59.7-.99.14-.44.4-.73.88-.77-.35,1.24,0,1.66,1.26,1.51.24-.03.48-.13.72-.22,1.2-.44,1.52-1.55,1.92-2.59,2.08.87,5.89-.48,6.83-2.46.3-.63.05-1.35.12-2.02.03-.36-.17-.84.44-.93.02.75-.08,1.51.18,2.25.11.3.06.66-.21.9-1.31,1.19-2.05,3.27-4.47,2.73-.61-.14-.78.41-.69.94.1.6.57.59,1.01.51.2-.04.38-.2.56-.31.59-.38.83-.23.81.48-.02.87-.43,1.34-1.29,1.4-.32.02-.65,0-.97,0-1.2.05-2.2,1.83-1.62,2.87.84,1.53,1.18,1.63,2.59.84.06-.03.14-.02.21-.04.07,0,.14.03.2.08.21.96-.76,1.32-1.01,1.99-.4,1.08-1.13.81-1.86.77-.45-.32-.8-.72-1.06-1.2-1.26-2.28-3.42-3.72-5.18-5.52Z"/>
      <path class="cls-13" d="m124.14,33.84c-1.64.27-2.65-.98-3.88-1.65-2.49-1.36-5.07-2.39-7.92-2.68-.61-.06-1.08-.36-1.57-.67-.89-.57-1.86-.94-2.92-1.05-.21,0-.42,0-.63-.01.04-.59.45-.75.91-.63,3.14.8,6.47.84,9.44,2.37,2.21,1.14,4.34,2.39,6.32,3.89.16.12.24.26.26.44Z"/>
      <path class="cls-12" d="m107.22,27.78c.21,0,.42,0,.63.01.41,1.12.52,2.22-.25,3.25-1.27-.35-2.42-.86-3.1-2.08-.18-.32-.46-.28-.73-.08-.43-.36-.54-.83-.4-1.34.29-1.05.15-2.1.11-3.16.26-.2.58-.17.88-.2.01.12.03.23.04.35.27.97.24,2.06,1.07,2.82,0,.22,0,.43,0,.65-.41.55-.05.97.35,1.2.45.26.69-.09.76-.54.28-.02.42-.17.43-.45.17-.09.21-.25.21-.42h0Z"/>
      <path class="cls-8" d="m109.17,24.47c.52-.72,1-1.49,1.92-1.79.4-.13.49-.46.48-.84.64-.05,1.28-.12,1.93-.15.36-.02.64.19.77.51.17.43-.26.51-.48.71-.42.38-.93.35-1.43.35-.61,0-1.22.04-1.86.36.69.59,1.82-.09,2.4,1.15-1.29-.48-2.37-.09-3.48.13-.08-.14-.15-.28-.23-.41Z"/>
      <path class="cls-8" d="m104.34,24.17c-.3.03-.61,0-.88.2-.07-.02-.12,0-.17.06-.43.03-.86.05-1.28.08-.35.03-.61.23-.38.55.61.9,0,.9-.63.97-.6.06-1.19.18-1.79.27.65-.68.4-2.05,1.71-2.22,1.44-.19,2.81-.77,4.29-.66.51.04,1,.03,1.37.46-.75.08-1.55-.29-2.23.3Z"/>
      <path class="cls-8" d="m111.35,21.38c-.02-.24.02-.46.25-.59.39.01.77.04,1.16.03.14,0,.41.08.36-.21-.03-.19-.25-.22-.43-.24.15-.23.4-.09.59-.16.83.28,1.68.49,2.38,1.05.04.76-.41.79-.88.51-1.1-.65-2.26-.54-3.43-.4Z"/>
      <path class="cls-8" d="m109.45,25.86c.72,0,1.43,0,2.15.02.27,0,.5.15.52.44.02.3-.25.27-.45.34-1.4.5-1.89.33-2.24-.77,0,0,.02-.02.02-.02Z"/>
      <path class="cls-13" d="m105.46,27.99c0-.22,0-.43,0-.65.42-.31.11-.62-.01-.92-.17-.43-.37-.84.04-1.25,1.04.26,1.06,1.02.68,1.75-.42.8-.18,1.05.61,1.08.08.07.16.15.23.22-.02.27-.16.43-.43.45-.51,0-.7-.52-1.11-.66Z"/>
      <path class="cls-9" d="m115.67,21.27c-.7-.56-1.56-.77-2.38-1.05.11-.77.61-1.03,1.31-.86.71.18,1.23,1.17,1.07,1.91Z"/>
      <path class="cls-9" d="m105.48,25.17c-.41.41-.21.83-.04,1.25.12.3.44.61.01.92-.83-.76-.8-1.84-1.08-2.82.54-.08.86.21,1.1.64Z"/>
      <path class="cls-13" d="m112.69,20.37c.18.01.4.04.43.24.05.29-.21.21-.36.21-.39,0-.77-.02-1.16-.03-.11-.39-.63-.55-.57-1.03.87-.63,1.11.41,1.66.62Z"/>
      <path class="cls-9" d="m109.17,24.47c.08.14.15.28.23.41.37.31-.06.66.04.98,0,0-.02.02-.02.02-.69-.12-.92-.78-1.38-1.17.08-.58.55-.42.9-.47.02.13.07.23.23.22Z"/>
      <path class="cls-8" d="m108.95,24.25c-.36.05-.82-.11-.9.47-.36-.13-.74-.22-.93-.61.63-.15,1.26-.44,1.83.14Z"/>
      <path class="cls-9" d="m107.01,28.21c-.08-.07-.16-.15-.23-.22.1-.18.26-.22.45-.2,0,.17-.05.33-.21.42Z"/>
      <path class="cls-10" d="m100.92,24.08c-1.31.17-1.06,1.54-1.71,2.22.07.79.05,1.58-.09,2.36-.32.23-.62.49-.8.85-.33.91-.69,1.82-.2,2.78-.46,1.01-1.12,1.66-2.35,1.67-.47,0-1.11.04-1.39.65-.55-.11-1.12-.47-1.63.04-.51.52-.11,1.08,0,1.62.04.21.13.41.19.62-.09.16-.17.33-.26.49-.42.06-.84.15-1.26.19-.68.07-1.36.23-1.36,1.04,0,.78.04,1.66,1.07,1.93.64.37,1.14.1,1.6-.36.29-.29.47-.73,1-.67.13.16.26.33.4.49.38,1,.44,2.14,1.35,2.89.5.41,1.12.4,1.7.52.61.58,1.05,1.23.85,2.13-.89.92-2.15.82-3.25,1.06-.61.13-1.17.2-1.6.68.04,1.23.37,2.45.11,3.69-.01.06.12.16.19.24.62,1.14,1.9,1.6,2.67,2.59.24.56.24,1.15.18,1.74-.46.75-1.7.5-1.96,1.52-.4.56-.16,1.18-.16,1.77.01.85-.07,1.65-.72,2.27-.52.18-1.02.4-1.3.93-.59.53-.81,1.34-1.48,1.8-.75-.53-1.59-.16-2.38-.25-.72-.08-.66.29-.4.77.37.68,1.18.58,1.7.99-.44,1.05-1.55,1.71-1.73,2.92-.3.53-.61,1.07-.91,1.6-1.32.58-2.43,2.98-2.07,4.55.4,1.73-.32,3.23-.87,4.78-.32.92-1.15,1.12-1.85,1.52-.18.1-.3.29-.45.44-.97-.21-1.54.25-2.03,1.04-.53.85-.69,1.89-1.41,2.64-.68-.13-.99.51-1.49.75-1.52.72-3.09,1.33-4.66,1.93-1.79.68-3.28,1.91-4.9,2.9-.99.61-1.53,1.24-1.34,2.4-.54.01-1.08.02-1.62.04-1.51.07-3.03.22-4.24-1.02-.17-.18-.54-.27-.8-.24-1.95.18-3.46-.72-4.85-1.92-.47-.63-.19-1.64-1.07-2.06-.79-1.04-1.56-2.09-3.05-2.13-.18-.72-.78-.63-1.31-.65-1.7-.05-3.44-1.55-3.67-3.2-.04-.31-.08-.66.14-.94.47-.61.63-1.37.93-2.05.56-1.29.84-1.33,2.22-.9,1.69.53,3.7-.03,4.21-1.89.11-.41.21-.85-.11-1.23.04-.8-.07-1.59-.23-2.38.33-.16.04-.72.43-.76.41-.04.52.4.73.67.22.29.41.58.34.96-.58.61-.18,1.29-.08,1.91.15.94-.05,1.61-.81,2.26-.9.77-2,1.2-2.98,1.92,1.08.84,2.1.78,3.16.19.95-.53,1.28-1.35,1.39-2.39.14-1.37-.35-2.61-.67-3.89.2.06.43.09.61.19.61.32.9.26.94-.53.04-.79.34-1.55.75-2.24.18-.31.34-.77.88-.64-.03.75-.53,1.56.3,2.18.09.04.18.09.27.13.06-.01.11,0,.16.04.03.23.11.43.32.53,1.14.57,2.66-.02,3.05-1.23.94-2.88,3.42-4.96,7.02-3.91.65.19,1.27.53,1.98.47,1.11.88,1.65,2.08,1.91,3.43-.58.77-.42,1.25.4,1.58.83.33,1.64-.06,2.43.03.88.11,1.47-.15,1.93-.83.49-.73.64-1.45.17-2.32-1.01-1.89-2.23-3.56-3.98-4.85-.51-.38-.88-.53-1.41-.22,0,0-.02-.01-.02-.02.21-.41-.11-.77-.12-1.16,1.21-.5,1.42-1.1.79-2.34-.54-1.07-1.84-1.75-2.96-1.54-1.75.32-2.7,1.33-2.84,3.03-.58.06-1.15.12-1.73.18.42-1.26.83-2.53,1.25-3.79.07-.22.08-.57.45-.48.36.1.23.39.14.62-.1.26-.1.5.13.68.27.21.45-.03.66-.16,1.63-.98,3.31-1.07,5.06-.31.96.42,2.08-.32,2.89-1.84.26-.5.41-1.13,1.2-1.01.06.81,0,1.63.41,2.37.05.16.11.31.16.47-.02.07-.03.13-.05.2-.13.06-.25.16-.39.18-2.38.37-3.02,1.13-3.01,3.47,0,1.22.54,2.11,1.59,2.6,1.35.63,2.72.55,4-.29.28-.19.3-.44.16-.76-.44-.98-1.07-.37-1.6-.18-.86.31-1.58.19-2.09-.58-.5-.76-.35-1.95.25-2.51.59-.55,1.47-.54,1.73.15.36.95.89.75,1.53.47.3.1.6.21.9.31,1.26.51,2.38.06,3.49-.51.67.13,1.32-.4,2.01-.06.06.03.28-.12.33-.23.46-1.06,1.26-1.74,2.54-2.07q-1.77-.49-1.66-2.28c.09-1.47-1.06-3.23-2.35-3.57-2.34-2.54-4.41-2.67-6.76-.42-.48-.19-.82-.52-.35-.95.65-.59.44-1.24.31-1.88-.11-.54-.07-1.05,0-1.59.22-1.45.11-2.91.08-4.38-.03-1.78-.52-3.44-.62-5.18-.08-1.57-.16-3.06-1.48-4.26-1.02-.94-1.56-2.23-1.36-3.71.05-.34-.1-.63-.24-.93.76-1.27,1.97-1.63,3.35-1.65.28,0,.57.02.82-.17.9-.04.85-1.23,1.67-1.39.58-.12.89-.56,1.14-1.06,1.03-.5,1.53-1.59,1.21-2.73-.16-.58-.4-1.13-.61-1.7.05-.4.16-.82-.38-1.01-.37-.19-.75-.37-1.12-.56-.17-.8.34-.54.68-.39,1.03.44,1.98,1,2.84,1.74,1.49,1.29,3.16,1.63,5.11,1.27,2.03-.37,4.12-.78,6.16-.66,1.74.1,3.6-.3,5.27.67.46.27.64.5.58.98Zm-18.45,7.34c.85.17,1.66-.08,2.45-.31.69-.2.99-.66.17-1.18-.84-.66-1.74-.01-2.62-.1-.44-.04-1.05.06-1.08.67-.03.65.43.94,1.08.92Zm8.49,28.79c-.35-.38-.58-.62-1.12-.35.35.28.63.39,1.12.35Z"/>
      <path class="cls-14" d="m80.28,20.48c.37.19.75.37,1.12.56-1.23.05-1.27.1-.87,1.21.1.26.26.5.39.75,0,.14,0,.29,0,.43-.36.02-.66.22-.75.53-.19.67-.64,1.01-1.26,1.2-.42.13-.66.51-.74.87-.24,1.05-1.07,1.16-1.89,1.29-.42.07-.86.03-1.29.01-.61-.03-1.07.17-1.22.81-.22.93-.98,1.26-1.72,1.11-2.11-.42-3.18.78-4.09,2.34-.16.28-.3.6-.53.81-.6.52-.66,1.46-1.49,1.79-.62.24-.96.73-1.06,1.39-1.95-.6-3.15-3.14-2.3-4.88.21-.43.61-.58,1.03-.73,1.09-.4,1.4-1.29.72-2.19-.49-.65-1.1-1.22-1.64-1.84-.98-1.14-2.17-1.18-3.43-.59-.7.33-1.17.3-1.38-.54-.19-.77-.81-.83-1.45-.84.44-.54-.43-.86-.24-1.36.93-.22,1.91.1,2.82-.28q1.67.99,2.83-.02c3.86.13,7.67-.56,11.51-.69.66-.02,1.35-.22,1.77-.89.35-.56.94-.62,1.53-.59,1.07.05,2.13.38,3.21.18.14.05.28.09.42.14Z"/>
      <path class="cls-1" d="m72.21,71.59c-.26-1.35-.8-2.55-1.91-3.43-2.79-2.88-8.02-1.66-9.55,2.22q-.78,1.98-2.83,1.92s-.1-.05-.16-.04c-.09-.04-.18-.09-.27-.13-.83-.63-.33-1.44-.3-2.18.5-.88.55-1.98,1.37-2.7.24-.04.18-.25.21-.4,0,0,0-.01,0-.01.06-.07.13-.14.19-.21,0,0,.02-.02.02-.02.06-.07.12-.13.18-.2,0,0,.03-.04.03-.04.06-.06.12-.12.18-.18,0,0,.04-.04.04-.04.06-.06.12-.12.18-.18,0,0,.04-.04.04-.04.06-.06.12-.12.18-.18,0,0,.04-.04.04-.04.06-.06.12-.12.19-.17,0,0,.03-.03.03-.03.07-.06.13-.12.2-.18,0,0,.02-.02.02-.02.08-.06.17-.12.25-.17.06-.04.12-.09.18-.13.11.03.16,0,.17-.12.17-.14.33-.28.5-.42.25.06.49.06.65-.2.07-.03.14-.06.21-.1.12.04.19-.01.21-.13,0,0,0,0,0,0,.18.01.34-.02.45-.18.14-.04.28-.08.42-.11.12.05.21.01.27-.1.19-.05.39-.09.58-.14.95-.06,1.9-.13,2.85-.19.29.04.57.07.86.11.13.16.29.18.47.1.42.11.84.22,1.27.32.7.38,1.39.77,2.09,1.15,0,0,.02.01.02.01.01.18.22.33.09.54-1.11-.3-2.03-1.17-3.27-1.07-.11-.05-.23-.11-.34-.16,0,0-.04.07-.06.1.13.02.26.04.39.07.91.41,1.74.95,2.58,1.49,1.09.7,1.58,1.94,2.64,2.63.03.01.06.02.09.04-.03-.02-.05-.03-.08-.05,0-.58-.4-.96-.7-1.38-.39-.57-1.07-.93-1.26-1.66.48-.15.73.22,1,.48,1.14,1.09,1.95,2.4,2.42,3.9.23.75.61,1.55-.34,2.11-.86.51-2.04.32-2.71-.44Zm-7.94-6.43c-.55-.45-1.04-.59-1.53-.35-2.37,1.18-4.16,2.9-4.9,5.53-.09.32-.25.84.14.98.51.18.64-.37.74-.72.84-2.77,2.68-4.54,5.55-5.44Zm8.26,3.96c.04.95.31,1.57.66,2.31.59-.99.19-1.57-.66-2.31Z"/>
      <path class="cls-1" d="m49.13,52.99c2.17-1.09,3.54-1.05,4.9.17,1.55,1.4,2.11,4.14,1.36,6.22-.6,1.69-1.64,2.89-3.34,3.48-2.21.19-3.49-.48-4.39-2.34-.46-.95-.63-1.98-.75-3.01.02-.15.04-.29.06-.44.05-.06.06-.13.02-.2,0-.09,0-.18,0-.28.41-.32.5-.78.5-1.26.1-.24.2-.49.3-.73.27-.09.43-.27.41-.57l.05-.03v-.06c.45-.17.6-.63.88-.96Zm2.7,4.84c-.19-.67-.4-1.44-.61-2.2-.06-.2-.21-.31-.41-.23-.74.32-1.58.67-1.69,1.52-.12.95.42,1.8.92,2.6.02.04.13.05.19.04.36-.02,1.59-1.29,1.6-1.74Zm2.56-1.78c-.15-.37-.3-.81-.5-1.22-.14-.28-.32-.62-.73-.41-.37.19-.89.36-.81.87.07.44.38.84.54,1.27.13.35.27.62.68.37.33-.21.9-.19.83-.88Z"/>
      <path class="cls-8" d="m37.11,72.69c-.38-.33-.78-.64-1.13-1-.97-1.03-.8-2.53.34-3.39.34-.26.8-.37.99-.8.14-.01.29-.02.43-.03,1.42-.48,2.88-.43,4.35-.4.29.33.67.43,1.09.43.82.71,1.77,1.29,2.18,2.38-.01,1.01-.46,1.74-1.3,2.31-1.33.91-2.81,1.15-4.37,1.18-.86-.23-1.73-.45-2.59-.68Z"/>
      <path class="cls-10" d="m43.18,67.49c-.42,0-.8-.1-1.09-.43.6-.24.79-.72.64-1.29-.31-1.1-.17-2.22-.19-3.34-.03-1.38-.16-1.59-1.49-1.66-.72-.04-.68-.45-.7-.94-.01-.51.1-.78.71-.82,1.83-.11,3.15,1,3.19,2.86.03,1.37.06,2.73.21,4.09.06.59.33.91.81,1.16.53.27.9-.02,1.27-.31.63-.49.82-1.26,1.18-1.92.41-.74.29-1.25-.55-1.62-1.29-.56-1.83-1.71-2.02-3.01-.2-1.37.6-2.56,1.76-2.77.12,1.04.29,2.07.75,3.01.9,1.86,2.18,2.53,4.39,2.34,0,.76-.41,1.05-1.11.93-.89-.15-1.27.23-1.46,1.08-.32,1.44-1.02,2.68-2.22,3.6-.17.13-.46.26-.37.48.39.96.02,2.24,1.22,2.92-.51.45-1.09.56-1.69.62,0-.59-.2-1.13-.07-1.78.3-1.53-1.58-3.34-3.18-3.22Z"/>
      <path class="cls-14" d="m25.42,83.11c-2.62.04-4.59-1.56-5.01-4.14-.14-.84-.47-1.43-1.33-1.6-1.24-.24-1.81-1.22-2.4-2.16-.4-.62-.04-1.2.39-1.64.45-.45.7.1.95.34.46.45,1.02.26,1.54.3.17.74.67,1.07,1.4,1.1,1.18.04,1.76.69,1.89,1.82.13,1.14.24,2.29.36,3.43.08.76.44,1.27,1.19,1.49.54.15,1.04.36,1.03,1.06Z"/>
      <path class="cls-13" d="m64.88,35.58c.1-.65.43-1.15,1.06-1.39.83-.32.89-1.27,1.49-1.79.23-.2.37-.53.53-.81.91-1.56,1.98-2.76,4.09-2.34.74.15,1.5-.18,1.72-1.11.15-.64.6-.84,1.22-.81.43.02.87.06,1.29-.01.82-.13,1.65-.25,1.89-1.29.08-.35.32-.73.74-.87.62-.2,1.07-.53,1.26-1.2.09-.31.39-.51.75-.53.01.21.03.43.04.64-.54.3-.67.8-.68,1.36,0,.44-.16.93-.63.78-1.26-.39-1.14.59-1.28,1.23-.11.47-.02.99-.02,1.49-.24.19-.54.17-.82.17-1.38.03-2.59.38-3.35,1.65-.99.27-2.02.24-3.03.27-.04.02-.08.03-.12.04-.1.04-.2.08-.3.11-.24-.81-.85-1.14-1.22-.61-1.03,1.45-2.61,2.67-2.25,4.78-.76.38-1.56.42-2.38.23Z"/>
      <path class="cls-14" d="m14.57,73.11c-.62-.03-.44,1.09-1.19.84-.54-.18-1.1-.32-1.53-.76-.46-.49-.52-1.11-.56-1.7-.07-1-.14-2.04.02-3.02.18-1.15.14-2.29.19-3.44.01-.28.03-.59.14-.84.3-.65.69-.91,1.27-.21.31.38.59.84,1.16.9-.19,2.2-.56,4.39-.25,6.62.09.64.31,1.16.76,1.6Z"/>
      <path class="cls-8" d="m52.53,72.27c.15.79.26,1.58.23,2.38-.75.55-1.16,1.46-2.02,1.91-.48.25-.94.61-1.49.25-.57-.38-1.16-.78-1.07-1.61.19-1.8.89-3.4,2.01-4.81.22-.28.57-.52.94-.45.49.1,0,.52.13.69.45.53,1.02.96,1.27,1.64Z"/>
      <path class="cls-5" d="m77.83,53.64c2.34-2.25,4.41-2.12,6.76.42,1.62,2.94,1.55,5.69-.86,8.21-1.1.58-2.22,1.02-3.49.51.82-.05,1.64,0,2.4-.48,1.9-1.2,2.82-4.29,1.97-6.55-.6-1.58-1.49-2.74-3.29-3.05-2.3-.4-4.23,2.22-4.34,4.43-.03.7.04,1.41.07,2.12-.41-.74-.35-1.57-.41-2.37.03-.21.06-.42.09-.63.03-.15.06-.31.09-.46.34-.71.68-1.42,1.02-2.14Z"/>
      <path class="cls-10" d="m37.74,67.46c-.14.01-.29.02-.43.03-.38-.01-.55-.26-.71-.57-1.27-2.47-.79-6.87,1.04-9.05,2.11-2.51,4.69-4.06,7.83-4.78,1.21-.28,2.44-.1,3.65-.11-.29.33-.43.79-.89.96-.12-.68-.64-.59-1.1-.55-3.63.3-6.65,1.83-8.94,4.67-1.13,1.4-1.8,3.04-1.76,4.89.04,1.61.55,3.1,1.29,4.51Z"/>
      <path class="cls-15" d="m43.18,67.49c1.61-.12,3.48,1.69,3.18,3.22-.13.65.08,1.19.07,1.78-1.82,1.89-4.15,2.17-6.56,1.92-1.12-.12-2.18-.6-2.77-1.72.86.22,1.73.45,2.59.67,2,.59,3.84.14,5.54-.96.71-.46.74-1.91.13-2.54-.41-1.09-1.36-1.67-2.18-2.38Z"/>
      <path class="cls-8" d="m79.86,20.34c-1.09.2-2.14-.14-3.21-.18-.6-.03-1.18.04-1.53.59-.42.66-1.1.86-1.77.89-3.84.13-7.65.81-11.51.69.27-.27.59-.39.97-.41,2.22-.14,4.45-.2,6.65-.47,1.15-.14,2.26-.52,3.45-.2.34.09.59-.22.81-.46.7-.78,1.6-1.06,2.62-1.04.79,0,1.59,0,2.38,0,.47,0,.96.02,1.14.6Z"/>
      <path class="cls-14" d="m54.91,25.1c-.75.33-1.55.28-2.33.21-.89-.08-1.14-.64-.6-1.32.41-.52.75-1.13,1.39-1.43.44.02.88.04,1.33.06-.04.83-.02,1.66.22,2.47Z"/>
      <path class="cls-9" d="m67.27,35.35c-.36-2.11,1.22-3.33,2.25-4.78.38-.53.99-.19,1.22.61-.61.6-1.15,1.25-1.54,2.01-.73.65-1.1,1.61-1.93,2.16Z"/>
      <path class="cls-14" d="m20.16,72.48c-.17,0-.37-.03-.52.02-.87.32-1.66.31-2.3-.46.08-.16.14-.33.23-.48.39-.63.73-1.48,1.66-1.17.97.32,1.09,1.18.93,2.09Z"/>
      <path class="cls-13" d="m54.91,25.1c-.23-.81-.26-1.64-.22-2.48.5-.09,1-.08,1.5,0-.19.5.68.81.24,1.36-.48.42-.89.92-1.53,1.12Z"/>
      <path class="cls-14" d="m49.79,24.04c-.48,0-.81-.09-.76-.59.05-.52.42-.75.89-.73.37.02.89.04.83.59-.06.55-.54.69-.96.72Z"/>
      <path class="cls-10" d="m69.2,33.19c.39-.76.93-1.41,1.54-2.01.1-.04.2-.08.3-.11.02.05.05.07.1.08-.04,1.25-.91,1.72-1.94,2.04Z"/>
      <path class="cls-8" d="m56.2,22.62c-.5-.08-1-.09-1.5,0-.44-.02-.88-.04-1.33-.06.81-.44,1.68-.15,2.52-.2,1.04-.05,2.08-.02,3.12-.02-.91.38-1.89.06-2.82.28Z"/>
      <path class="cls-2" d="m67.06,63.29c-.95.06-1.9.13-2.85.19.1-.36.41-.3.67-.34.58-.06,1.15-.12,1.73-.18.15.11.3.22.45.33Z"/>
      <path class="cls-2" d="m62.94,63.83c-.11.16-.27.19-.45.18.05-.3.14-.52.45-.18Z"/>
      <path class="cls-10" d="m76.82,55.77c-.03.15-.06.31-.09.46-.14-.04-.3-.12-.24-.27.03-.09.22-.13.33-.19Z"/>
      <path class="cls-2" d="m62.06,64.24c-.16.26-.39.26-.65.2.16-.25.41-.21.65-.2Z"/>
      <path class="cls-2" d="m58.79,66.83c-.03.15.03.36-.21.4,0-.16.04-.32.21-.4Z"/>
      <path class="cls-9" d="m71.14,31.15s-.08-.04-.1-.08c.04-.01.08-.03.12-.04,0,.04-.02.09-.03.13Z"/>
      <path class="cls-2" d="m59.19,66.39c-.06.07-.12.13-.18.2.06-.07.12-.13.18-.2Z"/>
      <path class="cls-2" d="m59.39,66.17c-.06.06-.12.12-.18.18.06-.06.12-.12.18-.18Z"/>
      <path class="cls-2" d="m63.63,63.62c-.06.11-.15.15-.27.1.09-.03.18-.07.27-.1Z"/>
      <path class="cls-2" d="m59.61,65.95c-.06.06-.12.12-.18.18.06-.06.12-.12.18-.18Z"/>
      <path class="cls-2" d="m58.99,66.61c-.06.07-.13.14-.19.21.06-.07.13-.14.19-.21Z"/>
      <path class="cls-2" d="m62.49,64.01c-.03.12-.09.17-.21.13.07-.04.14-.09.21-.13Z"/>
      <path class="cls-2" d="m59.83,65.73c-.06.06-.12.12-.18.18.06-.06.12-.12.18-.18Z"/>
      <path class="cls-2" d="m60.06,65.52c-.06.06-.12.12-.19.17.06-.06.12-.12.19-.17Z"/>
      <path class="cls-2" d="m60.92,64.86c0,.11-.06.15-.17.12.06-.04.11-.08.17-.12Z"/>
      <path class="cls-2" d="m60.29,65.31c-.07.06-.13.12-.2.18.07-.06.13-.12.2-.18Z"/>
      <path class="cls-2" d="m60.56,65.11c-.08.06-.17.12-.25.17.08-.06.17-.12.25-.17Z"/>
      <path class="cls-15" d="m65.97,92.83c-.19-1.16.35-1.79,1.34-2.4,1.62-.99,3.11-2.22,4.9-2.9,1.58-.6,3.14-1.2,4.66-1.93.5-.24.81-.88,1.49-.75-.06.87-.36,1.71-.22,2.59-.01.22-.02.45-.03.67-.7-.06-.98.46-1.32.93-1.28,1.78-2.02,3.88-3.33,5.64-1.05,1.4-1.03,1.42-2.61.75-.16-.07-.34-.11-.51-.16-.07-.06-.15-.11-.22-.17-.07-.03-.13-.05-.2-.08-.02-.14-.04-.27-.06-.41-.7-.72-1.78-.39-2.55-.9-.14-.1-.28-.2-.42-.3-.28-.23-.53-.5-.9-.59Z"/>
      <path class="cls-15" d="m81.81,81.19c.15-.15.27-.34.45-.44.7-.41,1.53-.6,1.85-1.52.54-1.55,1.27-3.06.87-4.78-.36-1.57.74-3.97,2.07-4.55-.12.65.15,1.18.53,1.69.44.6,1.14.86,1.69,1.32-.17.32-.36.62-.5.95-.57,1.39-.56,2.75.2,4.08.08.18.22.26.41.28.55.5,1.37.2,1.94.64.09.14.18.28.26.42.09.48.17.96.26,1.43-.08.2-.19.39-.22.6-.33,2.02-1.24,2.63-3.25,2.17-1.38-.32-2.65-.88-3.9-1.51-.71-.36-1.44-.66-2.27-.54-.13-.07-.26-.15-.38-.22Z"/>
      <path class="cls-8" d="m81.81,81.19c.13.07.26.15.38.22.02.07.03.14.05.21-.14,1.36.78,2.54.65,3.9-.37.33-.81.62-1.09,1.01-.97,1.37-2.15,1.78-3.66.93-.14-.88.16-1.73.22-2.59.72-.74.88-1.78,1.41-2.64.49-.79,1.06-1.25,2.03-1.04Z"/>
      <path class="cls-6" d="m70.11,95.12c.07.06.15.11.22.17-.12.39.11.72.18,1.08,0,.22.01.44.02.66-.02.13-.04.26-.06.4-.28.14-.04.55-.36.67-1.2.46-1.82,1.58-2.69,2.4-.31.29-.13.59.3.68.02.36.04.71.06,1.07-.09.36-.05.72.08,1.06-.01.71.06,1.42-.17,2.11-.24.18-.46.36-.43.7,0,0,0,0,0,0-.56.28-.66.78-.61,1.34-.02.12-.04.24-.06.36-.09.08-.18.16-.28.25-.43.09-.81.3-1.09.63-.95,1.16-2.2,1.49-3.63,1.3.1-.44.45-.38.77-.4,1.43-.08,2.44-.91,2.79-2.31.15-.6.37-1.13.85-1.57.97-.9.66-2.1.49-3.17-.17-1.11,0-2.03.86-2.7,1.56-1.22,2.32-2.87,2.72-4.74Z"/>
      <path class="cls-3" d="m82.91,82.04c1.46.64,2.17,2.04,3.16,3.16.53.6,1.14,1.18,1.48,1.97.57,1.32.3,2.47-.52,3.52-.7.89-1.64.97-2.72.72-.97-.22-1.99-.19-2.99-.33-.29-.04-.73-.16-.69-.56.04-.4.47-.19.72-.25,1.08.41,2.15.21,3.25.07,1.16-.15,1.65-.87,1.91-1.88.19-.74-.23-1.31-.56-1.89-.63-1.08-.99-2.37-2.21-3.02-.4-.43-.68-.93-.83-1.5Z"/>
      <path class="cls-11" d="m83.74,83.55c1.22.65,1.58,1.94,2.21,3.02.34.57.75,1.14.56,1.89-.26,1.02-.75,1.73-1.91,1.88-1.1.14-2.17.34-3.25-.07.69-.51,1.34-1.08,2.08-1.5.96-.54,1.05-1.34.99-2.29-.04-.65-.1-1.28-.44-1.85-.09-.36-.17-.73-.26-1.09Z"/>
      <path class="cls-10" d="m83.74,83.55c.09.36.17.73.26,1.09-.34.28-.26.68-.21,1.01.36,2.46-2.12,3.8-3.87,4.15-.49.1-.71-.25-.93-.59.28-.07.55-.17.83-.21,2.4-.36,3.11-1.17,3.08-3.48.13-1.36-.8-2.54-.65-3.9.22.14.45.29.67.43.15.57.43,1.07.83,1.5Z"/>
      <path class="cls-4" d="m82.89,85.51c.03,2.32-.68,3.12-3.08,3.48-.28.04-.55.14-.83.21-.43-.25-.56-.74-.88-1.09.01-.22.02-.45.03-.67,1.51.85,2.69.44,3.66-.93.28-.4.72-.68,1.09-1.01Z"/>
      <path class="cls-11" d="m101.78,83.12c-.83.42-1.77.38-2.63.65-.37.11-.76.14-1.06.43-.29,0-.58,0-.87,0,0-.07,0-.14,0-.2.08-.02.15-.04.23-.06.62,0,1.06-.37,1.54-.69.89-.61,1.83-.81,2.79-.13Z"/>
      <path class="cls-7" d="m67.72,101.17c-.43-.09-.61-.39-.3-.68.87-.83,1.49-1.95,2.69-2.4-.08.22-.16.44-.24.65-.14.13-.28.27-.42.4-.37.19-.61.49-.73.89-.12.14-.23.28-.35.42,0,0-.03.01-.03.01-.31.11-.43.35-.45.66-.06.01-.11.03-.17.05Z"/>
      <path class="cls-3" d="m67.72,101.17c.06-.02.11-.03.17-.05.47,0,.49-.31.45-.66,0,0,.03-.01.03-.01.55.54.27,1.4-.58,1.79-.02-.36-.04-.71-.06-1.07Z"/>
      <path class="cls-3" d="m69.87,98.75c.08-.22.16-.44.24-.65.32-.12.08-.54.36-.67.52.77.32,1.21-.6,1.33Z"/>
      <path class="cls-11" d="m68.72,100.04c.12-.4.36-.7.73-.89.03.52-.09.92-.73.89Z"/>
      <path class="cls-3" d="m97.23,84c0,.07,0,.14,0,.2-.46.35-.38-.05-.41-.3.14.03.27.06.41.09Z"/>
      <path class="cls-3" d="m70.53,97.02c0-.22-.01-.44-.02-.66.3.21.3.43.02.66Z"/>
      <path class="cls-8" d="m89.25,72.88c-.55-.46-1.25-.72-1.69-1.32-.38-.51-.65-1.03-.53-1.69.3-.53.61-1.07.91-1.6,1.1-.53,2.21-1.03,3.43-1.25.58,0,1.16,0,1.73.01.4.39.95.21,1.41.38,1.08.39,1.99.95,2.5,2.02,0,.14.02.25.2.25,0,0-.03-.02-.03-.02-.03.15-.05.3-.08.45-1.08,1.06-2.05,2.28-3.69,2.52-.98.14-1.95.3-2.92.45-.42-.07-.84-.14-1.26-.21Z"/>
      <path class="cls-14" d="m89.25,72.88c.42.07.84.14,1.26.21.14.08.28.17.42.25.09.2.26.24.45.21.07,0,.14,0,.2.02.19,1.43-.68,3.1-1.99,3.81-.25.14-.51.25-.64.53-.77-1.32-.77-2.69-.2-4.08.14-.33.33-.63.5-.95Z"/>
      <path class="cls-12" d="m91.31,78.83c-.57-.44-1.39-.14-1.94-.64.47-.48,1.07-.74,1.69-.9.36-.09.86-.17,1.06.28.17.37-.14.68-.38.94-.12.13-.28.22-.43.32Z"/>
      <path class="cls-6" d="m91.59,73.57c-.07,0-.14-.02-.2-.02,0-.06.02-.11.03-.17,1.76,0,3.41-.4,4.9-1.39l.06.07c-.89,1.36-2.31,1.48-3.73,1.59-.35.03-.71-.05-1.06-.08Z"/>
      <path class="cls-6" d="m97.12,70.12c.03-.15.05-.3.08-.45.73,1.03.38,2.07-.82,2.4,0,0-.06-.07-.06-.07.3-.61,1.03-1.04.8-1.88Z"/>
      <path class="cls-12" d="m109.64,64.27c-.52-.64-.64-1.11-.25-1.61.11-.15.37-.2.48-.06.4.55-.1.97-.22,1.68Z"/>
      <path class="cls-12" d="m110.46,61.38c-.08-.12-.16-.19-.17-.27-.01-.14.05-.28.23-.23.06.02.12.16.12.24,0,.07-.09.14-.17.26Z"/>
      <path class="cls-6" d="m97.22,69.68c-.18,0-.21-.1-.2-.25.07.08.13.16.2.25Z"/>
      <path class="cls-2" d="m103.76,28.87c.27-.2.55-.24.73.08.69,1.22,1.84,1.73,3.1,2.08.62.8,1.22,1.58.06,2.45-.4.3-.18.81-.19,1.22-.42.24-.85.43-1.34.45-.63-.49-.99-1.12-.89-1.94.15-1.22.02-2.33-1.02-3.19-.33-.27-.48-.7-.46-1.16Z"/>
      <path class="cls-14" d="m106.13,35.17c.49-.02.92-.21,1.34-.45.39.03.88-.12.89-.45.02-1.07.88-1.27,1.54-1.71.32-.21.59-.67,1-.29.39.36.4.99.09,1.28-.57.54-.84,1.18-1.16,1.86-.22.46-.77.61-1.31.6-.65,0-1.29,0-1.94-.01.02-.37-.31-.55-.44-.84Z"/>
      <path class="cls-15" d="m94.38,34.62c.27-.61.91-.64,1.39-.65,1.23-.01,1.89-.67,2.35-1.67.37.19.41.72.86.83.06.04.12.08.19.12.34.32.8.18,1.19.27.46.38.8.82.74,1.47-.04.48.3.79.6,1.1.54.54.61,1.05-.11,1.5-.77.07-1.48.25-1.84,1.05-.15.33-.43.46-.78.45-.45-.37-.9-.73-1.35-1.1-.99-.89-2.16-1.6-2.8-2.82-.15-.18-.29-.36-.44-.54Z"/>
      <path class="cls-14" d="m98.97,39.08c.35.01.63-.11.78-.45.36-.8,1.07-.98,1.84-1.05.71.42,1.31.05,1.92-.25.3-.15.62-.31.81.12.17.39-.1.6-.41.76-.03.02-.07.05-.1.04-1.88-.05-2.05,1.57-2.62,2.75-.22.46-.46.84-.92.97-.71.2-.68.55-.4,1.11.24.48.41,1,.54,1.52.2.76-.17,1.12-.96,1.03-.46-.05-.93-.05-1.4-.08.2-.9-.24-1.55-.85-2.13.39-.06.85-.33.6-.65-.46-.61-.05-1.04.08-1.54.47-.2,1.05-.35.62-1.07.19-.34.54-.62.46-1.08Z"/>
      <path class="cls-14" d="m98.97,33.13c-.45-.11-.49-.64-.86-.83-.49-.97-.13-1.87.2-2.78.43-.01.86,0,1.28-.04.42-.05,1.03-.15.97-.62-.08-.68-.64-.26-1.02-.22-.14.02-.28.01-.43.02.14-.78.17-1.57.09-2.36.6-.09,1.19-.21,1.79-.27.64-.06,1.25-.07.63-.97-.22-.32.04-.52.38-.55.43-.03.85-.05,1.28-.08-.25.88-.41,1.8-1.08,2.51-.14.14-.21.39-.23.59-.16,1.43-.64,2.66-1.95,3.46-.31.18-.19.59-.2.9-.07.14-.15.29-.22.43-.5.04-.67.34-.64.81Z"/>
      <path class="cls-14" d="m93.52,61.12c.65-.63.73-1.42.72-2.27,0-.59-.24-1.21.16-1.77,1.77.12,2.14.5,1.9,2.18-.07.47.02.68.42.81.36.11.6.26.42.69-.14.32-.19.64-.69.69-.85.08-1.63.13-1.36,1.51.1.5-.92,1.25-1.47,1.84-.12.13-.31-.11-.37-.28-.23-.6-.52-1.18-.23-1.86.21-.49.34-1.01.51-1.52Z"/>
      <path class="cls-14" d="m91.37,67.03c-1.22.22-2.33.72-3.43,1.25.18-1.21,1.29-1.87,1.73-2.92.49-.41.84-.91,1.07-1.51.67-.46.9-1.28,1.48-1.8.05.74-.07,1.49.32,2.2.32.58-.15,1.02-.53,1.39-.4.39-.76.77-.64,1.39Z"/>
      <path class="cls-14" d="m93.5,51.22c-.07-.08-.2-.18-.19-.24.26-1.24-.07-2.46-.11-3.69.32,0,.66-.04.97.03.87.17,1.71.38,1.76,1.53.07,1.46-.17,1.83-1.49,2.15-.31.08-.62.15-.94.23Z"/>
      <path class="cls-14" d="m96.36,55.56c.06-.59.06-1.18-.18-1.74.59-.26,1.08-.21,1.51.34.35.46.86.92.52,1.51-.4.68-.95.04-1.43-.01-.14-.02-.28-.06-.42-.1Z"/>
      <path class="cls-9" d="m99.61,32.33c.07-.14.15-.29.22-.43.42-.05.57-.93,1.15-.42.44.38.1,1.41-.63,2.04-.4-.09-.85.05-1.19-.27.12-.32.49-.52.45-.92Z"/>
      <path class="cls-12" d="m114.58,47.55c.43-.48.89-.92,1.53-1.11-.04.82.54,1.65-.04,2.47-.6-.34-1.1-.78-1.49-1.36Z"/>
      <path class="cls-11" d="m102.89,82.91c-.1.45-.3.58-.67.22.17-.24.43-.21.67-.22Z"/>
      <path class="cls-14" d="m65.97,92.83c.37.09.63.36.9.59-.24.99-1.17,1.39-1.78,2.07-.65,0-1.3,0-1.95,0-.65-.34-1.3-.34-1.95,0-.14,0-.29,0-.43,0-.02-.47-.44-.73-.58-1.14-.18-.52-.5-.55-1.01-.4-1.68.48-3.26.39-4.55-1-.49-.54-1.58-.48-1.62-1.41-.04-.85,1.01-.93,1.37-1.54.05-.09.06-.2.09-.31,1.4,1.2,2.9,2.1,4.85,1.92.26-.02.63.07.8.24,1.21,1.24,2.73,1.09,4.24,1.02.54-.03,1.08-.03,1.62-.04Z"/>
      <path class="cls-13" d="m65.1,95.49c.61-.68,1.53-1.08,1.78-2.07.14.1.28.2.42.3,0,.32-.02.64-.02.96,0,1.29.16,1.44,1.51,1.45h0c-.73.87-1.46.44-1.95-.17-.53-.65-1.05-.74-1.74-.48Z"/>
      <path class="cls-13" d="m61.2,95.49c.65-.34,1.3-.34,1.95,0-.65.35-1.3.35-1.95,0Z"/>
      <path class="cls-13" d="m69.84,94.63c.02.14.04.27.06.41-.37.28-.45.74-.68,1.1-.14,0-.28,0-.43,0,0,0,0,0,0,0,.27-.56.42-1.21,1.06-1.51Z"/>
      <path class="cls-9" d="m51.65,117.2c-.4,1.04-.72,2.14-1.92,2.59-.23.09-.47.19-.72.22-1.26.15-1.61-.26-1.26-1.51.33,0,.65.03.97,0,.87-.08,1.27-.81.93-1.61-.71-1.69-1.42-3.39-2.12-5.09-.15-.37-.52-.93.11-1.05.53-.1,1.33-.49,1.66.44.42,1.22.83,2.44,1.31,3.85.63-1.27.89-2.45,1.29-3.58.24-.69,1.19-1.11,1.8-.75.51.3.09.71-.02,1.02-.66,1.83-1.36,3.64-2.05,5.45Z"/>
      <path class="cls-7" d="m61.61,110c1.43.19,2.67-.14,3.63-1.3.28-.34.66-.54,1.09-.63.03.09.05.17.08.26-.03.09-.06.18-.09.26-1.03,1.07-2.25,1.58-3.76,1.74-1.44.15-2.3,1.66-2.08,3.1.06.42.03.86.04,1.28-.38.16-.63.47-.88.77-.82.98-1.45,2.12-2.43,2.98-.75.46.07,1.03-.11,1.54-.52.64-1.22.94-2,1.08-1.28.23-1.54.9-.81,1.99.05.59.61.84.87,1.29-.07.01-.15,0-.21.04-1.42.79-1.75.69-2.59-.84-.58-1.04.42-2.82,1.62-2.87.32-.01.65.01.97,0,.87-.06,1.27-.53,1.29-1.4.02-.7-.22-.86-.81-.48-.18.12-.36.28-.56.31-.44.08-.91.09-1.01-.51-.09-.53.09-1.08.69-.94,2.41.54,3.15-1.54,4.47-2.73.27-.25.32-.6.21-.9-.26-.74-.16-1.5-.18-2.25.41-.39.89-.72,1.22-1.17.36-.51.81-.63,1.36-.61Z"/>
      <path class="cls-9" d="m110.25,100.47h-.06s-.06,0-.06,0c0-.17-.07-.43.02-.51,1.45-1.29,1.75-3.33,3.09-4.69,1.33.1,1.84,1.06,1.02,2.11-.68.87-1.55,1.58-1.89,2.71-.15.52-.7.39-1.13.38-.33,0-.66-.4-.99,0Z"/>
      <path class="cls-5" d="m54.27,123.07c-.73-1.09-.46-1.76.81-1.99.79-.14,1.49-.44,2-1.08.35.49.37,1.02-.19,1.28-.99.45-1.82,1.1-2.62,1.79Z"/>
      <path class="cls-5" d="m57.19,118.46c.98-.86,1.61-2,2.43-2.98.25-.3.5-.61.88-.77-.09,1.75-1.92,3.82-3.31,3.75Z"/>
      <path class="cls-11" d="m66.65,107.46c-.05-.56.04-1.06.61-1.34-.03.53-.02,1.07-.61,1.34Z"/>
      <path class="cls-11" d="m67.26,106.12c-.03-.34.19-.53.43-.7.02.33.08.69-.43.7Z"/>
      <path class="cls-11" d="m66.4,108.33c-.03-.09-.05-.17-.08-.26.09-.08.18-.16.28-.25.37.34.12.44-.2.51Z"/>
      <path class="cls-2" d="m37.28,113.55c-.4-.2-1.16.28-1.18-.39-.02-.66.61-.97,1.32-.97.61,0,1.19.17,1.15.84-.06.89-.87.28-1.29.52Z"/>
      <path class="cls-9" d="m105.46,27.99c.42.15.6.67,1.11.66-.07.45-.32.8-.76.54-.4-.23-.76-.65-.35-1.2Z"/>
      <path class="cls-1" d="m77.06,59.24c-.03-.71-.1-1.42-.07-2.12.11-2.2,2.04-4.82,4.34-4.43,1.8.31,2.69,1.47,3.29,3.05.86,2.26-.07,5.35-1.97,6.55-.76.49-1.58.43-2.4.48-.3-.1-.6-.21-.9-.31-.99-.55-1.6-1.42-2-2.46.05-.14,0-.23-.12-.29-.05-.16-.11-.31-.16-.47Zm3.44-1.29c-.2-.79-.38-1.48-.56-2.18-.11-.42-.34-.35-.64-.2-1.3.6-1.62,1.44-1,2.91.15.36.15,1.16.8.87.6-.27,1.29-.65,1.41-1.4Zm2.75-1.61c0-.82-.8-2.11-1.2-2.04-.49.08-1.06.43-.95.85.16.65.33,1.49,1.03,1.75.27.1.98-.12,1.12-.56Z"/>
      <path class="cls-4" d="m77.34,60c.4,1.04,1,1.91,2,2.46-.64.28-1.17.48-1.53-.47-.26-.69-1.14-.7-1.73-.15-.6.56-.75,1.75-.25,2.51.51.77,1.23.89,2.09.58.53-.19,1.16-.8,1.6.18.14.32.13.57-.16.76-1.28.84-2.65.92-4,.29-1.05-.49-1.59-1.38-1.59-2.6,0-2.34.63-3.1,3.01-3.47.14-.02.26-.12.39-.18.05.04.11.07.17.09Z"/>
      <path class="cls-4" d="m67.06,63.29c-.15-.11-.3-.22-.45-.33.14-1.7,1.09-2.7,2.84-3.03,1.12-.21,2.42.47,2.96,1.54.63,1.24.42,1.85-.79,2.34-.65.23-1.31-.52-1.96,0-.42-.11-.84-.22-1.27-.32-.1-.28-.23-.42-.47-.1-.29-.04-.57-.07-.86-.11Z"/>
      <path class="cls-2" d="m71.84,65.53c.13-.21-.07-.36-.09-.54.53-.3.9-.16,1.41.22,1.75,1.29,2.97,2.96,3.98,4.85.46.87.32,1.59-.17,2.32-.46.68-1.04.94-1.93.83-.79-.1-1.6.3-2.43-.03-.82-.33-.98-.81-.4-1.58.67.75,1.85.95,2.71.44.94-.56.57-1.36.34-2.11-.47-1.51-1.28-2.81-2.42-3.9-.27-.26-.52-.63-1-.48,0,0,0,0,0,0Z"/>
      <path class="cls-2" d="m57.93,72.29q2.05.06,2.83-1.92c1.53-3.88,6.76-5.09,9.55-2.22-.71.07-1.33-.28-1.98-.47-3.6-1.06-6.09,1.03-7.02,3.91-.39,1.21-1.91,1.8-3.05,1.23-.21-.11-.29-.3-.32-.53Z"/>
      <path class="cls-15" d="m83.73,62.27c2.41-2.51,2.48-5.27.86-8.21,1.29.34,2.45,2.1,2.35,3.57q-.11,1.79,1.66,2.28c-1.28.32-2.08,1.01-2.54,2.07-.05.11-.26.26-.33.23-.69-.33-1.34.19-2.01.06Z"/>
      <path class="cls-13" d="m94.81,35.16c.65,1.23,1.82,1.94,2.81,2.82-.81.74-2.1,1.12-1.92,2.6-.23-.03-.35-.15-.42-.39-.27-.9-.45-.93-1.14-.18-.13-.16-.26-.33-.4-.49.02-.25-.02-.52.07-.74.16-.42.16-.75-.21-1.05-.44-.36-.58.32-.93.24,0-.2,0-.39,0-.59.09-.16.17-.33.26-.49.76.09,1.13-.33,1.22-1.01.06-.43.08-.79.64-.73Z"/>
      <path class="cls-2" d="m54.02,73.15c.32,1.28.81,2.52.67,3.89-.1,1.03-.44,1.86-1.39,2.39-1.07.59-2.08.65-3.16-.19.99-.72,2.09-1.15,2.98-1.92.76-.65.96-1.32.81-2.26-.1-.62-.5-1.3.08-1.91,0,0,0,0,0,0Z"/>
      <path class="cls-9" d="m78.36,28.93c0-.5-.09-1.02.02-1.49.15-.63.03-1.62,1.28-1.23.47.15.63-.34.63-.78,0-.56.14-1.06.68-1.36.74.75.42,1.58.2,2.41-.25.49-.55.94-1.14,1.06-.82.16-.77,1.35-1.67,1.39Z"/>
      <path class="cls-14" d="m92.69,37.39c0,.2,0,.39,0,.59-.54.84-1.13,1.65-1.53,2.57-1.03-.26-1.07-1.14-1.07-1.93,0-.82.67-.98,1.36-1.04.42-.04.84-.13,1.26-.19Z"/>
      <path class="cls-9" d="m91.15,40.55c.4-.92.99-1.73,1.53-2.57.35.07.49-.61.93-.24.37.3.37.64.21,1.05-.09.22-.05.49-.07.74-.52-.07-.71.37-1,.67-.45.46-.95.73-1.6.36Z"/>
      <path class="cls-13" d="m97.89,41.23c-.13.5-.54.93-.08,1.54.25.32-.22.59-.6.65-.59-.11-1.21-.1-1.7-.52.04-.64.7-1.21.22-1.91.24,0,.48,0,.72,0,.44.33.96.19,1.44.22Z"/>
      <path class="cls-15" d="m81.17,26.48c.21-.83.53-1.66-.2-2.41-.01-.21-.03-.43-.04-.64,0-.14,0-.29,0-.43.28-.32.57-.63.85-.95.2.57.45,1.12.61,1.7.32,1.14-.18,2.23-1.21,2.73Z"/>
      <path class="cls-14" d="m94.81,35.16c-.57-.07-.59.3-.64.73-.09.68-.46,1.1-1.22,1.01-.07-.21-.15-.41-.19-.62-.11-.54-.52-1.11,0-1.62.51-.51,1.08-.14,1.63-.04.15.18.29.36.44.54Z"/>
      <path class="cls-15" d="m90.74,63.85c-.23.59-.58,1.1-1.07,1.51-.52-.41-1.33-.31-1.7-.99-.26-.48-.33-.85.4-.77.79.09,1.64-.28,2.38.25Z"/>
      <path class="cls-13" d="m85.09,29.94c.82.52.52.97-.17,1.18-.78.23-1.6.48-2.45.31-.07-.49.21-.96.54-1.09.65-.25,1.38-.28,2.07-.4Z"/>
      <path class="cls-14" d="m95.72,41c.47.7-.18,1.27-.22,1.91-.91-.75-.97-1.89-1.35-2.89.69-.75.87-.72,1.14.18.07.24.19.35.42.39,0,.14.02.28.02.41Z"/>
      <path class="cls-14" d="m85.09,29.94c-.7.12-1.43.15-2.07.4-.33.13-.61.6-.54,1.09-.64.03-1.11-.26-1.08-.92.03-.6.64-.71,1.08-.67.87.09,1.78-.56,2.62.1Z"/>
      <path class="cls-9" d="m81.78,22.05c-.28.32-.57.63-.85.95-.13-.25-.3-.49-.39-.75-.4-1.11-.36-1.16.87-1.21.53.19.43.61.38,1.01Z"/>
      <path class="cls-4" d="m99.11,28.66c.14,0,.28,0,.43-.02.38-.04.94-.47,1.02.22.05.47-.55.57-.97.62-.42.05-.85.03-1.28.04.18-.36.48-.62.8-.85Z"/>
      <path class="cls-2" d="m69.65,63.82c.65-.53,1.31.23,1.96,0,.02.39.34.74.12,1.16-.7-.38-1.39-.77-2.09-1.15Z"/>
      <path class="cls-15" d="m90.96,60.21c-.49.05-.78-.06-1.12-.35.54-.27.78-.04,1.12.35Z"/>
      <path class="cls-5" d="m77.34,60c-.06-.02-.12-.05-.17-.09.01-.07.03-.14.05-.2.12.06.17.16.12.29Z"/>
      <path class="cls-2" d="m57.5,72.11c.09.04.18.09.27.13-.09-.04-.18-.09-.27-.13Z"/>
      <path class="cls-3" d="m64.27,65.15c-2.87.9-4.71,2.67-5.55,5.44-.11.35-.24.9-.74.72-.39-.14-.23-.65-.14-.98.74-2.63,2.53-4.35,4.9-5.53.49-.24.97-.1,1.53.35Z"/>
      <path class="cls-5" d="m68.58,64.45c1.24-.1,2.16.77,3.27,1.07,0,0,0,0,0,0,.19.73.86,1.09,1.26,1.66.29.43.7.8.7,1.38h0c-1.06-.68-1.55-1.92-2.64-2.62-.84-.54-1.66-1.08-2.58-1.49h0Z"/>
      <path class="cls-11" d="m72.53,69.12c.85.74,1.25,1.32.66,2.31-.36-.74-.62-1.36-.66-2.31Z"/>
      <path class="cls-2" d="m67.92,63.39c.23-.32.36-.18.47.1-.18.08-.34.06-.47-.1Z"/>
      <path class="cls-5" d="m68.57,64.46c-.13-.02-.26-.04-.39-.07.02-.04.06-.1.06-.1.12.05.23.1.34.16,0,0,0,.01,0,.01Z"/>
      <path class="cls-5" d="m73.79,68.57s.05.03.08.05c-.03-.01-.06-.02-.09-.04,0,0,0-.01,0-.01Z"/>
      <path class="cls-4" d="m37.74,67.46c-.75-1.41-1.25-2.9-1.29-4.51-.04-1.85.62-3.49,1.76-4.89,2.29-2.84,5.31-4.36,8.94-4.67.46-.04.98-.13,1.1.55,0,0,0,.06,0,.06,0,0-.05.03-.05.03-.37.02-.47.23-.41.57-.1.24-.2.49-.3.73-.59.25-.59.74-.5,1.26,0,.09,0,.18,0,.28-.06.04-.12.08-.18.12.05.03.11.05.16.08-.02.15-.04.29-.06.44-1.15.21-1.96,1.4-1.76,2.77.19,1.29.73,2.45,2.02,3.01.85.37.97.88.55,1.62-.37.66-.56,1.43-1.18,1.92-.37.29-.75.58-1.27.31-.49-.25-.75-.57-.81-1.16-.15-1.36-.18-2.73-.21-4.09-.04-1.87-1.36-2.98-3.19-2.86-.61.04-.72.31-.71.82.01.49-.03.9.7.94,1.33.07,1.46.28,1.49,1.66.02,1.11-.11,2.23.19,3.34.16.57-.03,1.05-.64,1.29-1.46-.03-2.93-.08-4.35.4Z"/>
      <path class="cls-2" d="m51.83,57.82c0,.45-1.24,1.72-1.6,1.74-.07,0-.17,0-.19-.04-.5-.8-1.04-1.66-.92-2.6.11-.85.95-1.2,1.69-1.52.2-.08.35.02.41.23.22.76.43,1.53.61,2.2Z"/>
      <path class="cls-5" d="m54.4,56.04c.07.69-.5.67-.83.88-.41.26-.55-.02-.68-.37-.16-.43-.47-.83-.54-1.27-.08-.51.43-.68.81-.87.42-.21.59.13.73.41.21.41.35.85.5,1.22Z"/>
      <path class="cls-10" d="m46.99,56.6c-.09-.52-.1-1.01.5-1.26,0,.49-.08.94-.5,1.26Z"/>
      <path class="cls-10" d="m47.79,54.6c-.06-.33.04-.55.41-.57.02.3-.14.48-.41.57Z"/>
      <path class="cls-10" d="m46.98,57.07c-.05-.03-.11-.05-.16-.08.06-.04.12-.08.18-.12.04.07.03.14-.02.2Z"/>
      <path class="cls-3" d="m45.36,69.87c.61.63.58,2.07-.13,2.54-1.69,1.1-3.53,1.55-5.54.96,1.55-.04,3.03-.28,4.37-1.18.84-.57,1.29-1.3,1.3-2.31Z"/>
      <path class="cls-14" d="m69.84,94.63c-.64.31-.78.95-1.06,1.51-1.35-.02-1.51-.16-1.51-1.45,0-.32.01-.64.02-.96.78.51,1.85.19,2.55.9Z"/>
      <path class="cls-11" d="m68.34,100.47c.04.35.02.66-.45.66.02-.31.13-.55.45-.66Z"/>
      <path class="cls-3" d="m97.12,70.12c.22.84-.5,1.27-.8,1.88-1.48.99-3.14,1.38-4.9,1.39-.16-.02-.33-.03-.49-.05-.14-.08-.28-.17-.42-.25.97-.15,1.95-.31,2.92-.45,1.64-.24,2.61-1.46,3.69-2.52Z"/>
      <path class="cls-9" d="m90.93,73.34c.16.02.32.03.49.05-.02.06-.03.11-.03.17-.19.02-.36-.01-.45-.21Z"/>
      <path class="cls-12" d="m95.72,41c0-.14-.02-.28-.02-.41-.18-1.48,1.11-1.86,1.92-2.6.45.37.9.73,1.35,1.1.08.46-.27.73-.46,1.08-.42,0-.84-.03-1.26.03-.45.06-.96.14-.81.82-.24,0-.48,0-.72,0Z"/>
      <path class="cls-13" d="m99.61,32.33c.04.4-.34.6-.45.92-.06-.04-.12-.08-.19-.11-.03-.46.14-.77.64-.81Z"/>
      <path class="cls-15" d="m96.44,41.01c-.15-.68.37-.76.81-.82.41-.06.84-.02,1.26-.03.43.73-.15.87-.63,1.07-.49-.03-1,.11-1.44-.22Z"/>
      <path class="cls-3" d="m80.5,57.95c-.12.74-.81,1.13-1.41,1.4-.65.29-.65-.51-.8-.87-.62-1.47-.3-2.31,1-2.91.31-.14.54-.21.64.2.18.7.36,1.39.56,2.18Z"/>
      <path class="cls-5" d="m83.25,56.33c-.15.44-.85.66-1.12.56-.71-.26-.87-1.1-1.03-1.75-.1-.42.47-.77.95-.85.41-.07,1.2,1.22,1.2,2.04Z"/>
    </g>
  </g>
</svg>