<?xml version="1.0" encoding="UTF-8"?>
<svg id="Capa_2" data-name="Capa 2" xmlns="http://www.w3.org/2000/svg" viewBox="0 0 139.98 140.02">
  <defs>
    <style>
      .cls-1 {
        fill: #3a9d0c;
      }

      .cls-1, .cls-2, .cls-3, .cls-4, .cls-5, .cls-6, .cls-7, .cls-8, .cls-9, .cls-10, .cls-11, .cls-12, .cls-13, .cls-14, .cls-15 {
        stroke-width: 0px;
      }

      .cls-2 {
        fill: #99e540;
      }

      .cls-3 {
        fill: #e2ab47;
      }

      .cls-4 {
        fill: #5db3c7;
      }

      .cls-5 {
        fill: #7bcbdb;
      }

      .cls-6 {
        fill: #54bb13;
      }

      .cls-7 {
        fill: #050403;
      }

      .cls-8 {
        fill: #7cd92e;
      }

      .cls-9 {
        fill: #a2a2a2;
      }

      .cls-10 {
        fill: #bee9f0;
      }

      .cls-11 {
        fill: #91d9e4;
      }

      .cls-12 {
        fill: #67c91c;
      }

      .cls-13 {
        fill: #1c5068;
      }

      .cls-14 {
        fill: #a4e0eb;
      }

      .cls-15 {
        fill: #3f8fa7;
      }
    </style>
  </defs>
  <g id="Capa_1-2" data-name="Capa 1">
    <g>
      <path class="cls-15" d="m47.51,136.16c-3.03-.81-5.86-2.11-8.65-3.49-5.66-2.81-10.88-6.27-15.53-10.58.36-.51.69-.08.99.06,7.07,3.23,14.43,5.1,22.25,4.99,1.07-.01,1.69-.35,1.85-1.42,1.39,1.31,2.79,2.62,4.18,3.93.05.05.09.12.14.18.49.74.95,1.49,1.47,2.2.28.38.59.73,1.14.89,1.39.4,2.79.68,4.21.91.54.08,1.12.08,1.33-.39.29-.63-.39-.8-.81-1.03-.56-.32-1.29-.51-1.38-1.26-.1-.77-.56-1.24-1.09-1.69-.53-.45-1-.96-1.26-1.62.05-1.28,1.04-1.39,1.97-1.62.61-.15,1.49-.13,1.1-1.22,0-.56-.21-1.13-.01-1.69,1.78-.43,2.35-2.01,3.18-3.35h0c.25-.06.28-.27.34-.46.24-.52.2-1.08.08-1.59-.22-.94.14-1.59.75-2.28.67-.76,1.51-.87,2.38-.97,1.49-.17,2.97-1.25,3.26-2.66.21-1,.73-1.75,1.31-2.51.25,1.17-.3,2.22-.47,3.33-.25,1.57-1,2.7-2.64,3.13-.59.15-1.14.46-1.69.73-1.02.5-1.11,1.43-.98,2.38.14.97.77,1.66,1.73,1.78.9.11,1.83.12,2.76-.1,4.37-1.03,8.46-2.79,12.45-4.77,4.17-2.07,8.2-4.41,12.06-7.03,3.47-2.35,6.77-4.91,9.98-7.61,3.5-2.94,6.6-6.22,9.6-9.64.74-.84,1.39-1.93,2.81-1.66.04.16.07.32.11.48-.04.26-.04.51.18.7.46.77.92,1.54,1.38,2.31.18,1.01-.44,2.01,0,3.02.08.39.17.77.25,1.16-.03.45-.06.9-.09,1.34-1.3,1.58-1.95,3.57-3.21,5.18-.15.19-.17.43-.09.66.4,2.18.15,4.28-.84,6.27-.49.05-.36-1-1.15-.57-.95.53-1.13.9-.25,1.93.64.75.52,1.27-.06,1.89-.16.17-.26.39-.41.56-.29.34-.53.89-1.06.73-.47-.14-.2-.67-.28-1.03-.08-.34-.15-.68-.21-1.01-.07-.33.14-.89-.18-.94-.39-.06-.92.14-1.24.41-.42.35-.27.97-.18,1.42.46,2.35-.47,3.84-2.58,4.86-.78.37-1.26.54-1.81-.22-.64-.89-1.32-1.57-2.11-.09-.11.21-.41.33-.64.48-5.76,3.8-11.89,6.91-18.15,9.81-5.43,2.52-10.97,4.62-16.81,5.95-1.7.39-3.44.22-5.13.57-2.42.49-4.87.87-7.31.69-2.17-.16-4.39-.07-6.5-.75-.32-.1-.4.11-.44.36Z"/>
      <path class="cls-2" d="m9.63,32.93c.82-.95,1.62-1.92,2.47-2.84.25-.27.41-.46.39-.87-.06-1.51-.03-1.51,1.49-1.56.23,0,.47.03.63-.19.1.07.2.14.3.21-.02.36-.4.63-.28,1.06.53.08.78-.37,1.15-.57,1.61.33,3.22.68,4.83,1,.39.08.74.06.69.66-.09,1,.21,1.19,1.15.75.41-.19.78-.48,1.17-.73.1-.06.2-.13.3-.19.06,0,.1-.02.12-.07.16-.04.32-.08.48-.12.17.04.35.08.52.12.06.27.16.42.36.08.36.03.71.07,1.07.1.09.32.12.67.28.96.2.36.45.41.55-.09.18-.01.36-.02.55-.04.9,1.24,1.97,1.34,3.15.3.75-.21,1.16-.83,1.61-1.38.14-.17.43-.44.12-.67-.23-.18-.53-.07-.73.13-.52.49-1.13.94-1.18,1.75-.52,0-.9-.21-1.04-.75.1-.09.21-.18.31-.26.71-.52,1.63-.89,2.09-1.58.96-1.43,2.27-.73,3.45-.84.17-.02.51.22.53.37.15,1.31,1.11,1.14,1.99,1.15,1.33.02,1.48.26.83,1.39-.52.92-.32,1.35.71,1.45,1.59.15,3-.11,3.86-1.68.18-.32.47-.66.91-.62.52.05.45.55.59.89.06.14.06.31.13.44.25.5.53,1,1.2.87.62-.12.89-.58.88-1.19-.02-.61.26-1.1.57-1.6.76-1.24,1.96-1.3,3.21-1.28.29.1.65.12.85.31,1,.94,2.17,1.19,3.49,1.05.57-.06.98.34,1.33.78.53.67,1.11,1.31,1.67,1.97.22.87-.06,1.42-.98,1.61-.79.17-1.19.66-1.37,1.49-.19.91-.7,1.59-1.8.93-.26-.15-.51-.03-.78.05-1.02.33-1.71-.04-2.11-1.1-.38-1,.32-1.31,1.05-1.57.73-.26.83-.7.52-1.35-.34-.7-.77-1.22-1.65-1.23-.98-.02-1.82.24-2.16,1.2-.44,1.27-1.39,1.66-2.58,1.76-.49.04-.97.05-1.35.49-.68.79-1.58,1-2.61.95-.76-.04-1.61-.27-2.26.26-1.49,1.21-3.39,1.56-4.99,2.52-.73.44-1.02.86-.56,1.64.75,1.29,2.1,1.92,3.19,2.79.58.46,1.08.78,1.16,1.54.03.25-.09.61.25.69.4.09.48-.31.6-.58.28-.63.67-1.16,1.35-1.35,1.93-.52,2.95-1.87,3.73-3.62.59-1.32,1.6-2.35,3.13-2.68,1.56-.33,2.42.53,3.21,1.69,1.06,1.54,1.43,1.56,3.09.43.1,1.34-.8,2.43-.94,3.7-1.48-.05-2.96-.21-4.44-.03-1.88-.11-3.6.46-5.26,1.28-4.2,1.98-6.87,5.24-8.19,9.69-.28.96-.3,1.95-.61,2.89-.98.14-1.34.98-1.77,1.67-.75,1.2-1.69,2.54-2.91,2.8-1.56.32-2.24,1.37-3.13,2.29-1,1.04-.65,2.96.54,3.66-.02.39-.04.79-.06,1.18-.49.11-.32.53-.38.83-.11.61-.43.84-1.02.56-.04-.93-.08-1.86-.12-2.79.24-.96-.53-2.31-1.57-2.47-1.13-.18-2.29-.54-3.42-.28-.96.23-1.67.01-2.47-.49-.99-.62-1.73-.28-2.06.79-.12.39-.33.83-.75.7-.46-.14-.75-.69-.54-1.13.98-2.13.32-4.39.53-6.57.28-2.8.58-5.61.84-8.41.19-2.04-.47-3.95-.32-5.93.01-.16-.15-.34-.26-.5-.98-1.38-2.14-2.4-4.01-1.97.15-1.19.36-2.35.99-3.4.25-.41.59-.83.5-1.38,1.2-1.73,1.01-2.36-.87-3.06-.42-.16-.66-.09-1.02.14-.66.4-1.39.67-2.1.99Z"/>
      <path class="cls-10" d="m14.91,27.68c-.1-.07-.2-.14-.3-.21.32-1.29,1.37-2.1,2.17-3.04,4.52-5.26,9.69-9.8,15.57-13.52,3-1.9,6.1-3.64,9.35-5.04,5.08-2.19,10.36-3.87,15.81-4.82,3.32-.58,6.69-.92,10.08-1.01,9.47-.27,18.56,1.55,27.36,4.97,6.11,2.38,11.67,5.76,16.91,9.67.41.3.72.38,1.24.3,1.26-.18,2.56-.27,3.31,1.13,0,.1,0,.21,0,.31-.49-.15-.99-.16-1.48-.03-.28.08-.71.05-.77.4-.08.41.33.55.63.72.12.33.17.71.59.82.13.42.45.7.76.99.35.33.33.65.07,1-.16.01-.33.03-.49.04-.05-.02-.09-.04-.13-.07-3.87-2.45-8.07-4.1-12.43-5.49-6.68-2.12-13.54-3.07-20.49-3.37-4.81-.21-9.64-.09-14.46.22-1.76.11-3.53.28-5.27.51-2.5.33-5.06.3-7.5,1.06-.33.1-.83.2-1.08-.16-.25-.38.08-.74.31-1.03.64-.84,1.02-1.76,1.08-2.91-.17.11-.31.15-.34.23-.77,1.72-1.96,2.6-3.94,2.11-.55-.14-.38.28-.27.58.27.69,1.02.82,1.79,1.3-2.03.39-3.78.73-5.54,1.06-5.25.98-10.43,2.29-15.46,4.1-5.82,2.09-11.37,4.77-16.11,8.86-.29.25-.63.25-.97.32Z"/>
      <path class="cls-5" d="m4.85,95.35c-1.45-3.29-2.46-6.72-3.22-10.22C.48,79.78-.1,74.34.01,68.85c.06-2.93.27-5.85.74-8.75.29-.05.48-.21.58-.48.62-1.73,1.61-3.27,2.56-4.83.25-.41.52-.76,1.06-.72-.13,2.59-.15,5.17.76,7.65.36.98.57,1.87-.04,2.84-.39.62-.12,1.53.5,1.44,1.03-.15.88.52,1.12.99.54,1.07.64,2.2.62,3.37-.07,3.49,2.21,6.56,5.55,7.55-.02.37-.3.5-.57.66-1.33.77-1.24.89-.52,2.18,1.2,2.12,2.71,3.93,4.47,5.61,2.43,2.31,5.01,4.43,7.71,6.38.89.64,1.7,1.31,2.35,2.17.14,1.51.24,3.03,1.09,4.36,0,.49.43.7.71,1,.84.9,1.95,1.65,2.47,2.7.9,1.81,2.38,3.07,3.63,4.54.1.87.77,1.37,1.26,1.99.17.21.43.44.24.7-.22.32-.5.03-.71-.08-1.21-.65-2.61-1-3.8-.54-1.77.68-3.14.03-4.61-.65-.22-.1-.41-.49-.67-.16-.12.15-.09.44-.09.67,0,.33.18.49.5.5.31,0,.62.04.93,0,.88-.1.93.44.87,1.09-.07.75-.66.58-1.06.53-1.05-.13-1.42.29-1.27,1.3.04.26,0,.54,0,.81,0,1.49.2,1.68,1.68,1.48.39-.06.58.01.68.39.1.36.37.72,0,1.07-1.08.99-3.77.16-4.2-1.27-.33-1.1.21-2.49-.33-3.27-.81-1.15-.9-1.76.02-2.84.32-.37.21-1.27.88-1.71-.54.07-1.11.08-1.46.37-.76.6-1.37.33-2.12,0-3.16-1.41-5.92-3.46-8.57-5.58-1.96-1.56-3.98-3.13-5.6-5.14-.61-.75-1.25-1.81-2.51-1.82Z"/>
      <path class="cls-1" d="m118.24,97.66c-.08-.39-.17-.77-.25-1.16,1.02-.06,1.84-.46,2.39-1.35.3-.49.3-1.06.08-1.54-.26-.58-.87-.36-1.34-.34-.37.01-.75.14-1.12.21-.46-.77-.92-1.54-1.38-2.31,1.17-.23,2.52-.1,3.02-1.61.56-1.71,1.69-3.1,2.77-4.48,4.06-5.18,7.29-10.81,9.9-16.84.4-.92.44-2.29,1.94-2.44.26-.03.21-.36.13-.59-.14-.36-.27-.72-.41-1.08-.13-1.26-.65-2.33-1.52-3.24-.64-.81-.93-1.84-1.68-2.59-.3-.3-.34-.72,0-1.03.33-.32.67-.18,1.05.02,1.1.59,1.79,1.62,2.69,2.41.91.8,1.06,1.53.43,2.59-.5.85-.05,1.5.83,1.21.88-.29,1.26.18,1.77.66.6.56.95,1.45,1.94,1.5.15,1.3-.7,2.41-.73,3.67-.37.48-.75.94-1.26,1.28-.65.43-.85.94-.2,1.54.35,2.48.42,2.56,2.09,2.3-.24,2.07-.46,4.15-1.42,6.05-.55,1.43-1.03,2.89-1.66,4.28-1.41,3.16-2.77,6.33-3.12,9.83-.06.61-.13,1.15.56,1.44.46,1.55.24,2.95-.53,4.43-.83,1.6-1.64,3.22-2.58,4.77-.48.78-1.09,1.28-2.05,1.25-.82,0-.84-.36-.54-1.02.56-1.23,1.46-2.31,1.68-3.71-.94,1.13-1.87,2.26-2.45,3.6-1.12,2.59-2.85,4.73-4.83,6.69-.9.9-1.92,1.68-2.77,2.63-1.58,1.76-3.65,1.96-5.8,2.01-.72.02-.97-.39-.6-.95.85-1.29,1.08-2.67.82-4.16.32.12.57.43.95.35,1.47-.28,3.46-3.13,2.86-4.45-.46-1.02-.02-1.66.28-2.45.08-.21.3-.47.24-.62-.48-1.16.36-1.81.97-2.5.51-.58.75-1.23.97-1.94.68-2.23.24-2.75-2.02-2.32-.04,0-.08,0-.12,0Zm16.58-31.26c-.04,1.41,1.04,2.48,1.08,3.87.34-1.5-.36-2.68-1.08-3.87Z"/>
      <path class="cls-13" d="m114.1,111.57c.26,1.49.04,2.87-.82,4.16-.37.56-.12.97.6.95,2.14-.05,4.22-.25,5.8-2.01.85-.94,1.87-1.73,2.77-2.63,1.97-1.96,3.71-4.1,4.83-6.69.58-1.34,1.51-2.47,2.45-3.6-.22,1.4-1.12,2.47-1.68,3.71-.3.66-.28,1.02.54,1.02-2.49,3.97-5.26,7.73-8.47,11.15-10.86,11.56-24.13,18.66-39.74,21.35-4.84.83-9.72,1.29-14.63.89-6.22-.51-12.35-1.52-18.23-3.72.04-.25.12-.46.44-.36,2.11.68,4.33.59,6.5.75,2.44.18,4.89-.19,7.31-.69,1.69-.35,3.44-.18,5.13-.57,5.84-1.33,11.38-3.43,16.81-5.95,6.26-2.9,12.39-6.01,18.15-9.81.22-.15.53-.27.64-.48.78-1.48,1.47-.79,2.11.09.55.77,1.03.6,1.81.22,2.11-1.02,3.05-2.51,2.58-4.86-.09-.45-.24-1.07.18-1.42.32-.27.85-.47,1.24-.41.32.05.12.61.18.94.07.34.14.68.21,1.01.08.35-.19.89.28,1.03.53.16.77-.4,1.06-.73.15-.17.25-.39.41-.56.58-.62.69-1.14.06-1.89-.88-1.03-.7-1.4.25-1.93.79-.44.66.62,1.15.57.03.15.05.3.08.45Z"/>
      <path class="cls-4" d="m4.85,95.35c1.26,0,1.91,1.07,2.51,1.82,1.62,2.01,3.64,3.57,5.6,5.14,2.66,2.12,5.42,4.18,8.57,5.58.75.33,1.36.6,2.12,0,.35-.28.92-.3,1.46-.37-.67.44-.56,1.34-.88,1.71-.92,1.07-.83,1.68-.02,2.84.54.77,0,2.17.33,3.27.43,1.42,3.12,2.26,4.2,1.27.38-.34.1-.71,0-1.07-.1-.37-.28-.44-.68-.39-1.47.21-1.67.01-1.68-1.48,0-.27.03-.55,0-.81-.15-1.01.22-1.43,1.27-1.3.4.05.99.22,1.06-.53.06-.65,0-1.18-.87-1.09-.3.03-.62,0-.93,0-.32,0-.51-.17-.5-.5,0-.23-.03-.52.09-.67.26-.32.46.06.67.16,1.47.68,2.84,1.33,4.61.65,1.19-.46,2.59-.11,3.8.54.21.11.49.4.71.08.18-.27-.07-.49-.24-.7-.49-.62-1.17-1.12-1.26-1.99,1.71.76,3.19,2,5.05,2.46.18.22.36.44.53.66-1.01-.01-2.1-.63-2.88.63-.91,1.45-.65,3.89.63,4.93,1.42,1.14,4.03.92,5.22-.44.23.52.39,1.08.7,1.54.7,1.04.46,2.5,1.55,3.34,1.04,1.18,1.7,2.55,2.13,4.05.11.38.47.68.71,1.01-.16,1.07-.78,1.4-1.85,1.42-7.82.11-15.18-1.77-22.25-4.99-.3-.14-.64-.56-.99-.06-2.97-2.43-5.52-5.27-7.92-8.25-4.05-5.01-7.26-10.52-9.8-16.44-.29-.67-.51-1.37-.76-2.05Zm28.69,18.55c.39,0,.77,0,1.16,0,1.22,0,1.37-.19,1.21-1.44-.16-1.17-1.13-2.21-2.29-2.47-1.49-.32-3.1.28-3.76,1.41-.67,1.16-.63,3.2.08,4.05,1.23,1.47,2.67,1.87,4.67,1.19.54-.18,1.32-.38.97-1.24-.33-.81-.91-.44-1.43-.16-.9.5-1.71.27-2.43-.36-.22-.19-.45-.49-.3-.81.14-.29.48-.16.73-.17.46-.02.93,0,1.39,0Z"/>
      <path class="cls-6" d="m133.97,64.14c.14.36.27.72.41,1.08.09.23.13.56-.13.59-1.5.15-1.54,1.52-1.94,2.44-2.61,6.03-5.85,11.66-9.9,16.84-1.08,1.38-2.21,2.77-2.77,4.48-.5,1.51-1.85,1.38-3.02,1.61-.23-.19-.23-.44-.18-.7,1.87-.03,2.01-.22,2.31-1.78.41-2.18.12-2.44-2.07-1.95-.03-.28-.06-.56-.08-.83.12-.31.4-.44.65-.63.32-.25.85-.49.67-.96-.21-.54-.79-.38-1.23-.31-.41.07-.8.28-1.2.41-.73.24-1.38.7-2.17.73-.06-.05-.11-.11-.17-.16.02-.28.13-.51.32-.72.2-.22.5-.44.3-.79-.19-.33-.55-.23-.84-.21-1.85.17-3.78.12-5.23,1.61-.27.28-.64.35-.95.13-.87-.63-1.75-.31-2.65-.14.22-.75.85-.66,1.42-.68,1.13-.04,2.32.27,3.19-.85.17-.22.64-.25.98-.3,1-.14,1.94-.49,2.89-.78,1.19-.36,2-1.11,2.76-2.1,1.02-1.32,1.8-2.78,2.64-4.2,1.94-3.28,3.81-6.6,5.18-10.19.86-2.26,1.4-4.65,2.6-6.79.5-.89,1.87-1.62,2.81-1.4.49.12,1.01.37,1.38-.13.32-.44-.1-.87-.21-1.3-.05-.2-.37-.32-.2-.57.18-.15.31-.03.45.02,1.51.59,2.39,0,2.17-1.62-.17-1.25-.56-2.47-.95-3.67-.19-.6-.62-.89-1.2-.27-.31.33-.59.74-1.12.75-.07-.14-.15-.28-.22-.42.26-.5.74-.85.86-1.46.06-.35.19-.67-.1-.96-.32-.32-.59-.04-.91.06-.68.21-1.39.52-2.13.2.09-.23.25-.37.47-.46.76-.01,1.26-.56,1.85-.92.53.12,1.06.29,1.62.23.06.64.57.84,1.05.9,2.21.27,3.44,2.22,5.31,3.07.09.04.1.27.15.42-.24.03-.45.09-.59.31-.55.84.15,4.29.98,4.83.09.06.24.16.3.13.66-.34.85.29,1.2.57,0,.21.01.43.02.64-.33.2-1,.33-.64.83.52.72.19,2.08,1.56,2.18.7,1.58.19,3.13-.16,4.67-.99-.05-1.35-.94-1.94-1.5-.51-.48-.89-.94-1.77-.66-.88.29-1.33-.36-.83-1.21.63-1.06.47-1.79-.43-2.59-.9-.8-1.59-1.83-2.69-2.41-.38-.2-.72-.33-1.05-.02-.33.32-.29.73,0,1.03.75.75,1.04,1.78,1.68,2.59.16,1.25.58,2.37,1.52,3.24Z"/>
      <path class="cls-12" d="m136.81,51.5c-.05-.14-.06-.38-.15-.42-1.87-.85-3.09-2.8-5.31-3.07-.48-.06-.99-.26-1.05-.9.04,0,.08,0,.11-.02.8-.24,1.03-.83.71-1.52-.39-.85-.83-.3-1.35-.01-.44.24-1,.68-1.57.14.47-.55.17-1.06-.06-1.58,1.56-.32,2.08-1.21,1.51-2.59-.06-.13-.03-.3-.05-.45.03-.03.06-.07.09-.1-.03.03-.07.06-.1.09-.27,0-.54-.01-.76-.21-.66-.57-1.22-.88-2-.02-.49.55-.91.05-.92-.57,0-.62-.05-1.23-.29-1.8-.12-.28-.3-.61-.65-.53-.35.07-.25.45-.22.69.15,1.01-.23,1.36-1.27,1.29-1.05-.07-1.44.48-1.27,1.52.06.38.17.74.26,1.12.28.81.57,1.63.85,2.44-.53-.05-.98.21-1.37.49-.36.26-1.07.4-.68,1.14,0,.46,0,.93-.01,1.39-.7.34-.98,1.22-1.81,1.41-.4-.62-.81-1.25-1.21-1.87.21-.49.42-.98.62-1.47.11-.28.07-.53-.19-.71-.25-.17-.42.03-.61.15-.69.45-1.21,1.03-1.42,1.85-.21,1.24.07,2.42.46,3.59.13.4.13.87-.32,1.13-.36.21-.8.23-1.09-.02-.39-.33-.21-.78.03-1.15.44-.7.3-1.28-.51-1.38-1.72-.21-2.71-1.49-3.92-2.46.11-.55.44-1.11-.04-1.64-.31-.34-.72-.25-1.08-.18-.5.11-.73.55-.89.99-.24.67-.46,1.21-1.06.25-.22-.34-.54-.43-.91-.3-.4.14-.47.51-.42.86.16,1-.29,1.69-1.02,2.29-.71.59-.87,1.32-.37,2.14-.02.22-.04.45-.05.67-.5.15-1.01.31-1.54.23-.63-.1-1.07.18-1.41.67-.19-1.22-.78-2.31-1.21-3.45.57-.32,1.21-.29,1.81-.22,1.5.2,2.29-.67,2.85-1.85.23-.48.37-1.01.46-1.54.11-.62.4-.98,1.03-1.05,1.16-.13,2.17-.71,3.28-1,.41-.11.87-.33.96-.76.3-1.34,1.32-1.54,2.42-1.73.93-.16,1.65-.61,2.33-1.34,1.39-1.48,3.16-2.42,5.22-2.56.77-.05,1.54-.11,2.27-.33.93-.29,1.64-.15,2.41.55.68.62,1.44,1.45,2.6.93.77-.25,1.4-.74,2.08-1.16.39.48.35.89-.16,1.27-.24.17-.35.42-.2.71.16.3.39.29.69.2.5-.14,1-.22,1.3.38-.23,0-.47-.04-.69,0-1.35.25-1.71,1.17-.95,2.27.5.73,1.22,1.27,1.7,2.04.9,1.43,1.08,1.46,2.75,1.02.66.64.74,1.78,1.78,2.09.81,2.09,1.33,4.25,1.84,6.42.08.33.15.68-.02,1.02-1.01-1-1.4-2.39-2.21-3.52Zm-7.41-11.37c-.08-.15-.16-.3-.23-.46-.04-.1-.07-.2-.11-.3-.03.02-.09.06-.08.06.05.09.1.18.15.27.08.15.16.3.24.45.04.1.07.2.11.3.03-.02.09-.06.08-.06-.05-.09-.1-.18-.15-.27Zm6.24,8.13c.55-.51-.11-.78-.23-1.16-.3-.65-.61-.64-.94-.02-.44.4-.17.79.03,1.18.38.64.76.62,1.14,0Zm-20.2-2.02c.11-.24.2-.49.32-.72.28-.5.12-.93-.41-.92-.93.01-1.41-.39-1.69-1.22-.09-.27-.39-.49-.76-.39-.36.1-.41.39-.46.72-.19,1.21.21,2.03,1.48,2.28-.03.46.22.8.54,1.08.38.32.88.47,1.25.14.41-.37-.16-.64-.28-.96Z"/>
      <path class="cls-2" d="m123.47,23.21c3.36,3.83,6.37,7.89,8.55,12.53.59,1.27,1.57,2.34,1.96,3.71-.66-.14-.96-.69-1.35-1.15-.61-.71-1.11-1.56-2.09-1.86-.08-.15-.16-.3-.25-.45.03-.45-.28-.73-.59-.94-1.59-1.07-3.18-2.15-4.81-3.16-3.54-2.2-7.68-2.53-11.59-3.53-.52-.13-1.39-.37-1.56.66-.07,0-.15,0-.22.01-1.32-.04-1.47-.15-1.16-.83.77-1.65.21-2.63-1.65-2.87-.08-.08-.16-.16-.24-.24.81-.5,1.71-.18,2.56-.3.43.22.84.44,1.37.24.33-.13.75-.19.93.3-.43.07-.79.19-.32.68.3.32.56.71,1.07.73.11,1.19.7,1.51,2.09,1.13.31-.08.8,0,.78-.47-.03-.49-.46-.66-.92-.66-.65,0-1.3,0-1.95,0,0-.26,0-.53,0-.79.97-.03,1.86-.69,2.88-.33.27.09.65.31.74-.15.08-.43-.3-.52-.65-.62-.62-.18-1.37.04-1.85-.59.26-.03.51-.05.77-.08.15.25.26.21.35-.04.5-.02,1-.03,1.49-.05.68-.04,1.41,0,1.58-.91.08-.4.37-.2.59-.27,1.21-.37,2.26.78,3.46.32Z"/>
      <path class="cls-11" d="m4.95,54.08c-.54-.04-.81.31-1.06.72-.94,1.56-1.93,3.1-2.56,4.83-.1.28-.3.43-.58.48.51-4.21,1.49-8.31,2.92-12.31.6-.04.83-.49,1.06-.95.46-.94,1.03-1.8,1.69-2.61,1.99-2.43,3.47-5.05,3.32-8.33.31.12.47-.21.69-.25,1.08-.2,1.95-1.27,3.19-.8.09.55-.25.97-.5,1.38-.64,1.05-.84,2.22-.99,3.4-.19.2-.27.45-.38.69-1.26,2.71-1.85,5.76-3.72,8.13-1.36,1.73-1.95,3.81-3.07,5.62Z"/>
      <path class="cls-14" d="m9.74,35.91c.15,3.28-1.33,5.9-3.32,8.33-.66.81-1.23,1.67-1.69,2.61-.22.45-.45.91-1.06.95.46-2.11,1.37-4.07,2.24-6.02.95-2.12,2.05-4.18,3.11-6.25.1-.2.3-.34.45-.51.24.25.23.58.26.9Z"/>
      <path class="cls-15" d="m133.74,96.05c-.69-.29-.62-.83-.56-1.44.35-3.5,1.71-6.67,3.12-9.83.62-1.4,1.11-2.85,1.66-4.28-.54,4.7-1.83,9.21-3.42,13.64-.23.65-.53,1.27-.8,1.91Z"/>
      <path class="cls-8" d="m130.54,36.43c.98.3,1.48,1.15,2.09,1.86.39.46.69,1.02,1.35,1.15,1.27,2.63,2.47,5.29,3.22,8.12-1.04-.32-1.12-1.45-1.78-2.09-.65-1.92-2-3.48-2.8-5.33-.29-.6-.8-.53-1.3-.38-.3.09-.53.1-.69-.2-.15-.29-.04-.53.2-.71.51-.37.56-.79.16-1.27-.15-.39-.3-.77-.46-1.16Z"/>
      <path class="cls-9" d="m123.47,23.21c-1.2.47-2.25-.69-3.46-.32-.22.07-.52-.13-.59.27-.17.92-.9.88-1.59.91,0-.3.24-.33.45-.42.26-.11.66-.17.56-.57-.09-.34-.44-.39-.75-.36-.56.05-1.11.13-1.67.19-.29-.43-.26-.89-.13-1.36q1.21.05,1.03-.64c.1-.02.2-.05.3-.07,1,.27,2.03.45,2.91,1.06.19.13.44.25.62.03.19-.22,0-.46-.13-.62-.57-.72-1.18-1.41-2.05-1.78-.25-.57-1.17-.3-1.38-1.05.49-.14.94.67,1.33-.03,1.72,1.39,3.29,2.91,4.55,4.75Z"/>
      <path class="cls-8" d="m9.74,35.91c-.03-.31-.02-.64-.26-.9.03-.7-.24-1.42.16-2.09.7-.32,1.44-.59,2.1-.99.37-.22.6-.3,1.02-.14,1.88.7,2.07,1.33.87,3.06-1.24-.46-2.11.6-3.19.8-.22.04-.38.37-.69.25Z"/>
      <path class="cls-1" d="m136.81,51.5c.81,1.13,1.2,2.51,2.21,3.52-.23.76.47,1.64-.32,2.33-.35-.29-.53-.91-1.2-.57-.06.03-.21-.07-.3-.13-.83-.55-1.53-3.99-.98-4.83.14-.21.36-.28.59-.31Z"/>
      <path class="cls-2" d="m118.92,18.46c-.39.7-.84-.11-1.33.03.21.75,1.13.48,1.38,1.05-.5.39-1.04.74-1.36,1.32-.1.02-.2.05-.3.07-.37-.2-.73-.41-1.1-.61.26-.35.28-.68-.07-1-.3-.29-.63-.57-.76-.99.61-.47,1.87.23,2.01-1.1,0,0,.14,0,.21,0,.55.29.99.72,1.31,1.25Z"/>
      <path class="cls-15" d="m137.28,72.16c-.65-.61-.45-1.11.2-1.54.51-.34.89-.8,1.26-1.28.16,1.16.06,2.32,0,3.48-.46-.29-.68-1.11-1.47-.65Z"/>
      <path class="cls-12" d="m137.28,72.16c.79-.45,1.01.37,1.47.65.59.4.91.9.62,1.64-1.67.26-1.74.18-2.09-2.3Z"/>
      <path class="cls-12" d="m139.63,60.99c-1.37-.1-1.04-1.46-1.56-2.18-.35-.49.31-.63.64-.83.5.7.83,1.46.87,2.34-.03.02-.09.05-.09.06.01.06.05.12.07.17.02.15.04.29.07.44Z"/>
      <path class="cls-9" d="m117.61,17.21c-.07,0-.21,0-.21,0-.15,1.33-1.4.63-2.01,1.1-.42-.11-.47-.5-.59-.82.45-.1.9-.29,1.35-.29.97,0,.47-.44.28-.8,0-.1,0-.21,0-.31.58.18.98.54,1.2,1.11Z"/>
      <path class="cls-6" d="m139.57,60.55c-.03-.06-.06-.11-.07-.17,0-.01.06-.04.09-.06,0,.08,0,.16-.01.24Z"/>
      <path class="cls-4" d="m116.32,90.01c-1.42-.28-2.08.82-2.81,1.66-3,3.42-6.1,6.7-9.6,9.64-3.21,2.7-6.52,5.26-9.98,7.61-3.86,2.62-7.89,4.96-12.06,7.03-3.99,1.98-8.09,3.74-12.45,4.77-.93.22-1.85.21-2.76.1-.96-.12-1.59-.8-1.73-1.78-.13-.95-.05-1.88.98-2.38.55-.27,1.1-.58,1.69-.73,1.64-.43,2.39-1.56,2.64-3.13.18-1.11.73-2.16.47-3.33,0-1.29.01-2.59.02-3.88.63-.5,1.34-.95,1.35-1.89h0c.69-.07.94-.51.96-1.14.54-.79.49-1.66.33-2.55.04-.09.08-.17.12-.26.47.01.62.39.83.72,1.75,2.71,4.06,2.55,6.33,1.04,2.13-1.43,4.29-2.8,6.32-4.4,2.48-1.95,4.89-3.97,7.1-6.22,1.4-1.43,2.41-3,1.72-5.17-.12-.39-.21-.93.24-1.28.74.37,1.19,1.18,2.04,1.39.73.42,1.66.38,2.31.99.2.36.5.52.92.41.08,0,.15,0,.23.01.79.5,1.41-.05,1.98-.41.8-.52,1.57-.74,2.49-.4.31.11.68.07,1.02.1,1.17.03,2.27-.36,3.39-.57,1.07-.2,2.12-.19,2.96.54.92.79,1.96,1,3.1.97-.05.86-.1,1.72-.15,2.57Z"/>
      <path class="cls-6" d="m48.43,125.71c-.24-.34-.61-.64-.71-1.01-.43-1.51-1.09-2.87-2.13-4.05.7-.24,1.42-.27,2.16-.26.84,0,1.69-.04,2.38-.64.34-.29.58-.75,1.12-.75-.08.68.37.84.9.92,1.1.15,2.3-.46,2.84-1.52.47-.91.85-1.87,1.11-2.87.14.06.32.08.4.19,1.35,1.73,2.08,1.77,3.78.41,1.21-.97,2.34-2.18,4.05-2.21,1.73-.04,2.75-.9,3.24-2.52.09-.3.1-.73.59-.73-.19,2.61-1.03,3.46-3.62,3.71-1.73.16-3.19,2.07-2.92,3.77.08.49.26,1.17-.09,1.45-1.34,1.09-1.77,3.54-4.29,2.9-.5-.13-.9.18-1.09.66-.1.26-.09.56.15.75.41.34.86.29,1.28,0,.27-.19.54-.34.83-.09.31.26.26.63.2.97-.06.34-.45.54-.43.93,0,0-.01.02-.01.02-.39.02-.81-.12-1.15.18-.29.01-.57.03-.86.04-.85-.27-2.16.48-2.26,1.55-.09.99-.45,1.69-1.13,2.32-.05-.06-.09-.13-.14-.18-1.39-1.31-2.79-2.62-4.18-3.93Z"/>
      <path class="cls-1" d="m58.17,125.7c-.02-.39.36-.59.43-.93.06-.34.11-.71-.2-.97-.29-.25-.56-.1-.83.09-.42.29-.86.33-1.28,0-.24-.19-.25-.49-.15-.75.19-.48.59-.79,1.09-.66,2.52.64,2.95-1.81,4.29-2.9.35-.29.17-.96.09-1.45-.27-1.7,1.19-3.61,2.92-3.77,2.59-.24,3.43-1.1,3.62-3.71.31-.16.54-.39.69-.7.56-.27.68-.73.72-1.32.08-1.13-.3-2.2-.26-3.32,0-.36.06-.67.4-.89,1.01-.66,1.63-1.69,2.39-2.58.37-.16.42-.48.49-.83.1-.44.22-.91.78-1.01.16.88.21,1.76-.33,2.55-.44.28-.87.56-.96,1.14,0,0,0,0,0,0-.66.48-1.31.97-1.35,1.89,0,1.29-.01,2.59-.02,3.88-.59.76-1.11,1.51-1.31,2.51-.29,1.41-1.77,2.49-3.26,2.66-.88.1-1.71.22-2.38.97-.61.69-.97,1.33-.75,2.28.12.51.15,1.07-.08,1.59-.25.05-.36.2-.34.45,0,0,0,0,0,0-.38-.06-.66.11-.92.36-.93.87-1.7,1.84-2.25,2.99-.2.57,0,1.13.01,1.69-.47.16-.67.77-1.26.72Z"/>
      <path class="cls-1" d="m52.75,129.82c.68-.63,1.04-1.33,1.13-2.32.1-1.07,1.41-1.83,2.26-1.55-.5.44-1.2.89-1.07,1.57.1.54.86.14,1.29.3.25.67.72,1.17,1.26,1.62.53.45.99.92,1.09,1.69.1.75.82.95,1.38,1.26.41.23,1.09.4.81,1.03-.21.46-.79.47-1.33.39-1.42-.22-2.82-.51-4.21-.91-.55-.16-.85-.51-1.14-.89-.53-.71-.98-1.47-1.47-2.2Z"/>
      <path class="cls-6" d="m114.1,111.57c-.03-.15-.05-.3-.08-.45.99-2,1.24-4.09.84-6.27.64.08,1.29.23,1.93.21.67-.02,1.46-.71,1.11-1.09-1.08-1.19.08-1.36.62-1.84,1.32-1.15,1.17-2.47-.36-3.12.03-.45.06-.9.09-1.34.04,0,.08,0,.12,0,2.25-.43,2.7.08,2.02,2.32-.21.7-.46,1.36-.97,1.94-.6.69-1.44,1.34-.97,2.5.06.15-.16.41-.24.62-.3.79-.74,1.43-.28,2.45.59,1.32-1.39,4.17-2.86,4.45-.38.07-.63-.24-.95-.35Z"/>
      <path class="cls-12" d="m118.16,99.01c1.54.65,1.69,1.97.36,3.12-.54.47-1.7.64-.62,1.84.34.38-.44,1.07-1.11,1.09-.64.02-1.28-.13-1.93-.21-.08-.23-.06-.47.09-.66,1.26-1.61,1.91-3.6,3.21-5.18Z"/>
      <path class="cls-12" d="m116.32,90.01c.05-.86.1-1.72.15-2.57.06-.23.13-.46.19-.69,2.19-.49,2.48-.23,2.07,1.95-.3,1.56-.44,1.75-2.31,1.78-.04-.16-.07-.32-.11-.47Z"/>
      <path class="cls-6" d="m118,93.49c.37-.08.74-.2,1.12-.21.47-.02,1.08-.23,1.34.34.22.49.23,1.05-.08,1.54-.54.89-1.37,1.29-2.39,1.35-.43-1.01.19-2.01,0-3.02Z"/>
      <path class="cls-13" d="m56.36,127.82c-.43-.17-1.2.24-1.29-.3-.12-.68.58-1.13,1.07-1.57.29-.02.58-.03.86-.04.4.03.82.19,1.15-.18,0,0,.01-.02.01-.02.59.06.79-.56,1.26-.72.39,1.09-.49,1.07-1.1,1.22-.93.22-1.92.34-1.97,1.62Z"/>
      <path class="cls-13" d="m59.42,123.29c.55-1.15,1.32-2.13,2.25-2.99.27-.25.55-.42.92-.36-.82,1.34-1.39,2.92-3.18,3.35Z"/>
      <path class="cls-13" d="m62.6,119.93c-.02-.25.08-.41.34-.45-.06.19-.08.41-.34.45Z"/>
      <path class="cls-14" d="m116.28,21.56c-.12.47-.16.93.13,1.36-.29.75-1.25.63-1.63,1.25,0,.35.01.7-.5.66.1-.71-.37-1.08-.88-1.36-.71-.38-1.45-.73-2.21-1-3.48-1.25-7.09-2.08-10.75-2.44-1.92-.19-3.89-.25-5.85-.1-2.07.16-4.16.33-6.22.21-1.54-.09-3.07-.16-4.61-.17-.39,0-.9-.18-1.01.46-1.53.1-3.18-.43-4.56.3-1.35.71-2.54,1.17-4.16,1.25-1.75.09-3.55.37-5.33.59-1.28.16-2.61-.11-3.84.43-.31.14-.67.19-.87.51-.43.72-.92.68-1.49.16-.64-.58-1.44-.5-2.19-.37-.84.14-1.69.19-2.52.09-1.54-.19-2.74.22-3.7,1.51-.44.6-.39.92.15,1.3-.1.54.28,1.27-.4,1.56-.56.24-.99-.26-1.38-.64-.28-.27-.42-.59-.14-.92.38-.44.28-.94.27-1.43.17-.29.7-.54.2-.92-.38-.29-.9-.31-1.3-.08-.44.25-.61.68-.2,1.14.05.87-.1,1.72-.24,2.57-1.25-.02-2.45.04-3.21,1.28-.31.5-.58.98-.57,1.6.02.61-.26,1.07-.88,1.19-.66.12-.95-.38-1.2-.87-.07-.14-.07-.3-.13-.44-.14-.34-.07-.84-.59-.89-.44-.04-.74.3-.91.62-.86,1.57-2.27,1.83-3.86,1.68-1.03-.1-1.24-.53-.71-1.45.64-1.13.5-1.37-.83-1.39-.88-.01-1.84.16-1.99-1.15-.02-.15-.36-.39-.53-.37-1.18.1-2.49-.59-3.45.84-.46.68-1.38,1.06-2.09,1.58-.77.12-1.49-.17-2.23-.31-1.11-.2-2.23-.33-3.33.07-.16.04-.32.08-.48.12,0,0-.09,0-.09,0l-.04.08c-.1.06-.2.13-.3.19.13-.97-.58-1.15-1.27-1.27-1.24-.22-2.45-.55-3.68-.83-.96-.22-2.05-.53-2.9.41-.37.2-.62.66-1.15.57-.13-.43.26-.69.28-1.06.34-.06.68-.06.97-.32,4.74-4.1,10.29-6.77,16.11-8.86,5.02-1.8,10.2-3.11,15.46-4.1,1.76-.33,3.51-.67,5.54-1.06-.77-.48-1.51-.61-1.79-1.3-.12-.3-.28-.72.27-.58,1.98.49,3.17-.39,3.94-2.11.04-.08.17-.12.34-.23-.06,1.15-.44,2.07-1.08,2.91-.22.3-.56.65-.31,1.03.24.36.75.26,1.08.16,2.45-.76,5-.73,7.5-1.06,1.74-.23,3.51-.4,5.27-.51,4.81-.31,9.64-.43,14.46-.22,6.95.3,13.81,1.26,20.49,3.37,4.36,1.38,8.56,3.04,12.43,5.49.04.03.08.05.13.06.11.44.2.89.56,1.22Z"/>
      <path class="cls-11" d="m26.88,94.91c-.65-.87-1.46-1.53-2.35-2.17-2.71-1.96-5.29-4.07-7.71-6.38-1.76-1.68-3.27-3.48-4.47-5.61-.73-1.29-.81-1.41.52-2.18.27-.16.56-.29.57-.66,1.22-.05,2.38,0,3.1,1.25.23.39.74.54,1.1.81,1.15.85,2.24,1.77,3.36,2.67.04.13.08.27.12.4.05.17.1.33.15.5.03.14.06.28.08.43.81,1.58,2.04,2.68,3.74,3.17.56.16,1.26.25,1.48-.61,0-.72-.53-.98-1.09-1.14-.81-.24-1.2-.77-1.28-1.58-.11-1.1-.23-2.21-.34-3.31-.13-1.42-.55-1.89-1.96-2.08-.75-.1-1.35-.32-1.43-1.19.28-.58.69-1.13.58-1.83.07-.82.12-1.7-.82-2.05-.99-.37-1.44.42-1.87,1.12-.1.16-.2.32-.3.48-1.02,1.51-1.19,1.57-3,1.08-.54-.65-.69-1.42-.72-2.24-.07-2.18.09-4.35.43-6.5.39-.62.88-1.05,1.69-.99.62.04,1.08-.28,1.5-.72.89-.94,1.32-.95,2.17-.02.45.49.76.59,1.33.13,1.13-.91,3.61-.74,4.69.23.04.93.08,1.86.12,2.79,0,.52.05,1.1.67,1.12.59.02.56-.6.64-1.04.09-.49.19-.97.08-1.47.02-.39.04-.79.06-1.18.22-2.18,1.34-3.56,3.44-4.18.55-.16.88-.57,1.29-.92,1.07-.92,1.48-2.33,2.5-3.27.29,2.09.65,4.15,1.55,6.1,1.11,2.4,2.86,4.24,4.78,5.97-.27.04-.57,0-.79.22-.95.03-1.78.4-2.54.95-1.44,1.04-1.54,2.54-.24,3.77.22.41.53.72.96.9.07.06.14.13.21.19.08.08.16.15.25.23-.03.33.2.47.44.61,2.24,1.3,4.59,1.4,6.99.55,1.58-.56,3.1-1.35,4.87-.9.86.22,1.74.28,2.63.23,3.3-.19,6,1.18,8.24,3.43,1.24,1.24,2.57,2.19,4.21,2.73.73.24,1.48.42,2.21.67.91.31,1.04.79.4,1.53-1.13,1.3-2.23,2.58-3.89,3.32-1.53.68-2.71,1.97-4.2,2.79-.68.38-1.46.85-1.98,1.53-.73.97.42,1.61.45,2.44,0,.04,0,.08,0,.12-1.07-.14-1.65-1.12-2.59-1.48-.72-.5-.23-1.61-1.04-2.06,0-.43-.31-.67-.57-.96-1.14-1.28-2.55-1.77-4.25-1.53-1.7.25-3.14-.24-4.19-1.63-1.21-1.6-3.26-1.81-4.74-2.96-.35-.27-.87-.25-1.34-.25-.85,0-1.71.04-2.54-.09-1.22-.19-2.58.17-3.58-.95-.3-.33-.67-.18-1.01.12-1.08.94-2.87.74-3.63,2.23-.02.05-.22,0-.33.02-1.3.19-1.61.67-1.36,2.09,0,.53.29.94.52,1.39.6,1.17.18,3.74-.79,4.36-.6.39-1.02.84-1.25,1.5Z"/>
      <path class="cls-3" d="m41.33,69.81c-1.92-1.73-3.68-3.57-4.78-5.96-.9-1.95-1.27-4.01-1.55-6.1.01-.68.03-1.36.04-2.04.31-.94.32-1.93.61-2.89,1.32-4.44,3.99-7.7,8.19-9.69,1.75-.38,3.5-.77,5.26-1.15,1.97.25,3.96.32,5.85,1.09.89.36,1.58,1.11,2.58,1.22.68.78,1.43,1.31,2.49.68,1.81,1.19,2.98,2.95,4.13,4.72.54,1.18,1.05,2.39,1.32,3.66.19.88.67,1.13,1.49.92.84.03,1.67.07,2.51.08q3.07.03,3.68-3.01c1.28-2.47,2.61-4.9,4.95-6.57.63-.13,1.23.48,1.89.01,2.77-1.97,5.92-2.72,9.27-2.78h0c.67.34,1.38.19,2.08.22.22.03.43.06.65.1.98.52,2.11.66,3.07,1.25,2.01,1.26,3.89,2.66,5.25,4.65.32.48.64.97.96,1.45.43,1.14,1.02,2.23,1.21,3.45.04.09.08.18.12.27.12.58.23,1.16.35,1.74.03.3.06.6.09.9-.1.6.02,1.21,0,1.82-.04,1.64-.57,3.17-.86,4.75-.9,1.47-1.51,3.12-2.7,4.41-.88.95-1.79,1.88-2.68,2.82-2.11,1.06-4.14,2.34-6.6,2.46-1.42.27-2.84.05-4.27.12-.11,0-.21-.01-.32-.02-.2-.01-.4-.02-.61-.03-2.24-.43-4.36-1.21-6.34-2.35-2.45-2.01-4.41-4.4-5.64-7.35-.24-1-.49-2-.71-3-.09-.4-.29-.5-.65-.4-1.78-.16-3.56-.12-5.34,0-.78-.14-.63.53-.73.91-.47,1.71-.81,3.46-1.98,4.88-1.35.51-2.43,1.33-3.05,2.67-1.54,1.31-3.05,2.63-4.9,3.51-.6.28-1.34.28-1.81.84-1.04.15-2.07.3-3.11.45-.33-.09-.65-.05-.97.06l-.06-.04s-.06.04-.06.04c-.24-.02-.48-.05-.73-.07-.24-.02-.47-.04-.71-.06-.41-.08-.82-.22-1.22.04-1.9-.86-3.89-1.52-5.67-2.65Zm3.64-2.3c.21.13.41.26.62.39,2.22.87,4.47,1.37,6.86.74,6.29-1.67,9.44-8.04,8.29-13.86-.54-2.76-1.86-5.16-3.95-6.88-2.43-2-5.38-2.95-8.63-2.38-1.43.2-2.93.22-3.9,1.58h0c-.58-.1-.93.3-1.3.61-3.65,3.14-4.61,7.2-3.88,11.77.14.85.22,1.84,1,2.49,0,0-.02-.03-.02-.03-.03.22,0,.4.25.48.41,1.77,1.58,2.95,3.01,3.94h0c.08.07.16.15.24.23h0c.33.51.87.7,1.39.92h.01Zm43.12,1.45c2.36-.04,4.68-.82,6.64-2.47,5.34-4.5,5.97-11.71,1.58-17.29-4-5.08-12.14-5.15-16.26-.17-2.43,2.93-3.33,6.23-2.89,10.03.6,5.27,5.44,9.83,10.94,9.9Z"/>
      <path class="cls-8" d="m26.17,65.89c-1.07-.97-3.56-1.13-4.69-.23-.57.46-.88.36-1.33-.13-.86-.93-1.28-.91-2.17.02-.42.44-.88.77-1.5.72-.8-.06-1.29.38-1.69.99-.7.1-1-.48-1.42-.85-.69-.64-1.12-.53-1.3.4-.11.56-.05,1.15-.13,1.72-.32,2.15-.17,4.31-.11,6.46.03,1.15,1.05,1.65,2.03,1.96.78.25.95-.44,1.2-.95,1.81.49,1.97.44,3-1.08.61.68,1.32.88,2.19.49.23-.1.53-.02.8-.03.11.71-.3,1.25-.58,1.83-.57-.01-1.16.16-1.69-.12-.37-.2-.78-.57-1.1-.1-.28.42-.52.95-.12,1.5.65.89,1.24,1.77,2.44,2.09,1.11.29,1.42,1.13,1,2.05-1.12-.89-2.21-1.82-3.36-2.67-.36-.27-.88-.42-1.1-.81-.73-1.25-1.89-1.3-3.1-1.25-3.34-.99-5.62-4.06-5.55-7.55.02-1.18-.08-2.31-.62-3.37-.24-.47-.1-1.14-1.12-.99-.62.09-.89-.81-.5-1.44.61-.97.4-1.86.04-2.84-.9-2.48-.88-5.06-.76-7.65,1.13-1.81,1.71-3.89,3.08-5.62,1.87-2.38,2.46-5.43,3.72-8.13.11-.24.19-.49.38-.69,1.87-.43,3.03.6,4.01,1.97.11.15.27.34.26.5-.15,1.98.51,3.88.32,5.93-.26,2.8-.56,5.62-.84,8.41-.22,2.19.45,4.45-.53,6.57-.2.44.08.99.54,1.13.42.12.63-.31.75-.7.32-1.07,1.07-1.41,2.06-.79.8.5,1.51.72,2.47.49,1.13-.27,2.29.1,3.42.28,1.04.16,1.81,1.51,1.57,2.47Z"/>
      <path class="cls-14" d="m54.48,38.16c-1.66,1.13-2.03,1.12-3.09-.43-.8-1.16-1.66-2.03-3.21-1.69-1.53.33-2.54,1.36-3.13,2.68-.78,1.75-1.8,3.1-3.73,3.62-.68.18-1.07.72-1.35,1.35-.12.26-.2.66-.6.58-.35-.08-.23-.44-.25-.69-.08-.76-.58-1.08-1.16-1.54-1.1-.87-2.44-1.5-3.19-2.79-.46-.79-.17-1.21.56-1.64,1.6-.96,3.5-1.31,4.99-2.52.64-.52,1.5-.3,2.26-.26,1.03.05,1.93-.16,2.61-.95.38-.44.86-.45,1.35-.49,1.19-.1,2.14-.49,2.58-1.76.34-.97,1.18-1.22,2.16-1.2.88.02,1.31.53,1.65,1.23.31.65.21,1.1-.52,1.35-.72.25-1.43.57-1.05,1.57.4,1.06,1.1,1.43,2.11,1.1.26-.08.52-.21.78-.05,1.11.66,1.61-.02,1.8-.93.18-.83.58-1.32,1.37-1.49.92-.2,1.2-.75.98-1.62.92-.42.46-1.19.37-1.79-.07-.51-.12-.97.08-1.46.34-.86.94-.97,1.52-.24.33.42.62.85.99,1.25,1.17,1.28,2.78,1.52,4.3,1.99-.16.18-.31.35-.47.53-.42-.54-.72-.26-.96.16-.67,1.18-.77,2.46-.13,3.62.56,1.02.12,1.41-.74,1.63-.79.21-1.6.35-2.4.5-1.81.34-3.61.37-5.42.3-.37-.3-.73-.31-1.06.07Z"/>
      <path class="cls-11" d="m65.64,31.34c-1.52-.47-3.13-.71-4.3-1.99-.37-.4-.66-.84-.99-1.25-.58-.74-1.18-.62-1.52.24-.19.49-.15.94-.08,1.46.09.6.55,1.37-.37,1.79-.56-.65-1.13-1.3-1.67-1.97-.35-.44-.76-.84-1.33-.78-1.33.14-2.49-.11-3.49-1.05-.2-.19-.57-.21-.85-.31.15-.85.3-1.7.24-2.57.46.18.88-.02,1.3-.14.02.5.11.99-.27,1.43-.28.33-.14.65.14.92.39.38.82.88,1.38.64.68-.29.3-1.02.4-1.56,1.62.11,3.2.18,4.54-1.08.61-.58,1.28-.23,1.53.53.3.9.77.97,1.58.63,1.32-.56,2.55-.5,3.5.78.3.4.7.72,1.05,1.08,1.6,1.63,1.38,2.53-.79,3.21Z"/>
      <path class="cls-8" d="m35.03,55.7c-.01.68-.03,1.36-.04,2.04-1.03.94-1.44,2.35-2.5,3.27-.41.35-.74.76-1.29.92-2.1.62-3.22,2-3.44,4.18-1.19-.7-1.54-2.62-.54-3.66.89-.93,1.57-1.97,3.13-2.29,1.22-.25,2.16-1.6,2.91-2.8.43-.69.79-1.53,1.77-1.67Z"/>
      <path class="cls-10" d="m15.79,28.16c.84-.95,1.94-.63,2.9-.41,1.22.28,2.44.61,3.68.83.69.12,1.4.3,1.27,1.27-.39.25-.75.54-1.17.73-.94.43-1.24.25-1.15-.75.05-.6-.3-.58-.69-.66-1.61-.32-3.22-.66-4.83-1Z"/>
      <path class="cls-8" d="m54.48,38.16c.33-.38.68-.37,1.06-.07.29,1.44-.05,2.9.11,4.35-.7-.19-1.4-.38-2.1-.57.14-1.28,1.04-2.37.94-3.7Z"/>
      <path class="cls-10" d="m53.54,41.86c.7.19,1.4.38,2.1.57.37.31.82.27,1.26.27.11.42.53.52.82.75-.07.28-.13.55-.2.83-1-.11-1.69-.86-2.58-1.22-1.89-.77-3.88-.84-5.85-1.09.03-.04.03-.09,0-.13,1.48-.19,2.96-.02,4.44.03Z"/>
      <path class="cls-9" d="m31,30.89c-1.18,1.04-2.25.94-3.15-.3.61-.29,1.19-.7,1.93-.64.14.54.52.74,1.04.75.06.06.12.12.18.19Z"/>
      <path class="cls-10" d="m29.78,29.96c-.73-.06-1.31.34-1.93.64-.18.01-.36.02-.54.03.37-.91-.07-1.04-.83-.86-.36-.03-.71-.07-1.07-.1-.09-.18-.21-.18-.36-.08-.17-.04-.35-.08-.52-.12,1.1-.4,2.22-.27,3.33-.07.74.13,1.46.43,2.23.31-.1.09-.21.18-.31.26Z"/>
      <path class="cls-11" d="m31,30.89c-.06-.06-.12-.12-.18-.19.05-.81.66-1.25,1.18-1.75.2-.19.5-.3.73-.13.31.24.03.5-.12.67-.45.55-.86,1.18-1.61,1.38Z"/>
      <path class="cls-9" d="m49.09,41.84s.02.09,0,.13c-1.75.38-3.51.77-5.26,1.15,1.66-.82,3.38-1.39,5.26-1.28Z"/>
      <path class="cls-8" d="m27.69,67.3c.11.5,0,.98-.08,1.47-.09.44-.05,1.06-.64,1.04-.61-.02-.68-.6-.67-1.12.59.28.91.06,1.02-.56.06-.31-.11-.72.38-.83Z"/>
      <path class="cls-9" d="m26.48,29.77c.76-.17,1.2-.04.83.86-.1.5-.35.46-.55.09-.16-.28-.19-.64-.28-.96Z"/>
      <path class="cls-9" d="m25.05,29.58c.15-.09.28-.09.36.08-.21.34-.3.19-.36-.08Z"/>
      <path class="cls-9" d="m23.93,29.66l.04-.08s.09,0,.09,0c-.02.06-.06.08-.12.07Z"/>
      <path class="cls-2" d="m116.41,16.41c.19.36.7.79-.28.8-.45,0-.9.19-1.35.29-.3-.16-.7-.3-.63-.72.07-.35.5-.32.77-.4.48-.14.99-.13,1.48.03Z"/>
      <path class="cls-8" d="m116.28,21.56c-.36-.33-.46-.78-.56-1.22,0,0,0,0,0,0,.16-.01.33-.03.49-.04.37.2.74.41,1.1.61q.19.69-1.03.64Z"/>
      <path class="cls-2" d="m115.72,20.35s0,0,0,0c-.05,0-.09-.03-.13-.06.04.03.08.05.13.07Z"/>
      <path class="cls-8" d="m55.94,91.58c.81.45.32,1.56,1.04,2.06-.46.34-.91.69-1.38,1.03-.73.54-.5,1.05.08,1.48.43.31,1.02.44,1.39.8,1.24,1.19,2.69,1.33,4.26,1,.69-.14,1.26-.09,1.65.64.29.55.83.74,1.47.7.65-.05,1.31,0,1.96-.01,1.85,0,2.43-.4,3.12-2.1.31.03.55.18.71.46,0,.23,0,.46-.02.69-.23,1.83-.18,1.89,1.62,1.88-.26,1.03-1.13.88-1.86.92-1.26.07-2.46.03-3.7.61-1.44.67-2.99,1.19-4.51,1.66-3.2,1-6.44,1.9-9.79,2.37-2.48.34-4.98.75-7.43.62-2.59-.13-5.21.12-7.79-.58-2.07-.56-3.8-1.37-5.14-3.14-1-1.32-2.12-2.62-3.67-3.4-.85-1.33-.95-2.85-1.09-4.36.23-.66.65-1.11,1.25-1.5.97-.63,1.39-3.19.79-4.36-.23-.44-.52-.86-.52-1.39.85.28,1.79.71,2.17,1.4.9,1.61,2.49,1.97,3.94,2.57,2.42.99,4.99,1.51,7.58,1.82,1.92.23,3.84.21,5.79.11,1.62-.08,3.26-.6,4.92-.11.7.2,1.33,0,1.75-.76.29-.52.72-1.02,1.4-1.12Z"/>
      <path class="cls-12" d="m27.97,99.27c1.55.78,2.67,2.08,3.67,3.4,1.33,1.77,3.07,2.58,5.14,3.14,2.58.7,5.21.44,7.79.58,2.45.13,4.96-.28,7.43-.62,3.35-.47,6.59-1.36,9.79-2.37,1.52-.48,3.07-.99,4.51-1.66,1.24-.58,2.44-.54,3.7-.61.72-.04,1.6.1,1.86-.92.37-.53.5-1.23,1.09-1.61.09.15.18.31.27.46-.75.77-1.09,1.71-1.11,2.78-.76.9-1.38,1.92-2.39,2.58-.34.22-.4.53-.4.89-.56.08-.46.52-.46.88,0,1.25,0,2.51,0,3.76-.15.31-.38.54-.69.7-.49,0-.5.43-.59.73-.48,1.62-1.51,2.48-3.24,2.52-1.72.04-2.84,1.25-4.05,2.21-1.7,1.36-2.43,1.32-3.78-.41-.08-.1-.27-.13-.4-.19.6-1.54,1.21-3.07,1.81-4.61.23-.58.32-1-.6-.98-.85.01-1.32.16-1.51,1.13-.23,1.16-.71,2.28-1.19,3.75-.49-1.44-.95-2.5-1.21-3.61-.24-1.03-.73-1.35-1.76-1.28-.84.06-.85.26-.55.95.81,1.82,1.56,3.67,2.3,5.53.46,1.16.07,1.86-1.12,1.88-.59.01-.79.32-1.03.71-.54,0-.78.45-1.12.75-.69.6-1.53.65-2.38.64-.74,0-1.46.02-2.16.26-1.09-.84-.86-2.3-1.55-3.34-.31-.46-.47-1.03-.7-1.54-.08-.23-.16-.47-.23-.7-.06-.09-.13-.19-.19-.28,0,0,.03-.02.03-.02-.03-.29-.06-.58-.08-.86.66.05.74-.36.72-.88-.07-1.72-1.3-3.39-3.73-3.04-1.85-.47-3.33-1.71-5.05-2.46-1.25-1.48-2.73-2.73-3.63-4.54-.52-1.05-1.64-1.81-2.47-2.7-.28-.3-.7-.51-.71-1Zm19.3,17.64c.62,0,1.23.03,1.85,0,.48-.03,1.15.26,1.18-.65.03-.9-.61-.7-1.12-.72-.54-.02-1.08,0-1.62,0-.22,0-.5.08-.61-.19-.11-.26.14-.41.29-.57.88-.96,1.74-1.94,2.66-2.88.48-.49.5-1.05.33-1.6-.17-.55-.72-.3-1.11-.31-1.23-.03-2.47,0-3.7-.02-.59-.01-.94.1-.94.81,0,.69.31.86.92.82.54-.03,1.08-.01,1.62,0,.22,0,.51-.08.6.2.09.26-.16.41-.31.57-.89.96-1.74,1.95-2.69,2.84-.47.44-.4.91-.3,1.36.11.52.62.32.98.34.65.03,1.31,0,1.97,0Z"/>
      <path class="cls-15" d="m134.82,66.4c.72,1.19,1.42,2.37,1.08,3.87-.04-1.4-1.12-2.46-1.08-3.87Z"/>
      <path class="cls-15" d="m133.97,64.14c-.94-.88-1.37-2-1.52-3.24.87.91,1.4,1.98,1.52,3.24Z"/>
      <path class="cls-5" d="m33.54,113.89c-.46,0-.93-.01-1.39,0-.25,0-.6-.12-.73.17-.15.32.08.62.3.81.72.63,1.53.86,2.43.36.52-.29,1.1-.66,1.43.16.35.87-.43,1.06-.97,1.24-2,.68-3.44.28-4.67-1.19-.72-.86-.76-2.89-.08-4.05.65-1.13,2.27-1.73,3.76-1.41,1.16.25,2.13,1.3,2.29,2.47.17,1.24.02,1.43-1.21,1.44-.39,0-.77,0-1.16,0Z"/>
      <path class="cls-5" d="m43.1,115.06c.08.23.16.47.23.7-1.18,1.36-3.8,1.58-5.22.44-1.28-1.04-1.54-3.47-.63-4.93.79-1.26,1.88-.64,2.88-.63.07.05.14.11.21.16-.25.6-.96.72-1.31,1.23-.17.25-.51.59-.2.77.68.37,1.48.18,2.22.13.6-.05.35-.65.47-1.01.55.54.73,1.25.9,1.97-.81,0-1.62-.02-2.43.03-.42.03-1.09-.29-1.21.29-.12.59.49.89.98,1.14.55.28,1.11.24,1.67-.03.42-.2.85-.37,1.27-.55,0,0-.03.02-.03.02.06.09.13.19.19.28Z"/>
      <path class="cls-8" d="m40.58,110.8c-.07-.05-.14-.11-.21-.16-.18-.22-.36-.44-.53-.66,2.43-.35,3.67,1.32,3.73,3.04.02.52-.05.93-.72.88-.06,0-.13-.01-.19-.02-.17-.72-.34-1.43-.9-1.97-.21-.56-.76-.77-1.18-1.11Z"/>
      <path class="cls-12" d="m102.19,62.59c.29-1.58.82-3.11.86-4.75.02-.61-.1-1.22,0-1.82.67.21,1.29-.05,1.9-.23.48-.14.81-.45.55-1.03.15-.23.29-.46.44-.69.64.44,1.25-.07,1.87-.07-.04.63.08,1.24-.32,1.88-.53.85-.1,1.42.92,1.43.75,0,1.49,0,2.43,0-1.09,1.31-2,2.44-3.08,3.42-.51.46-.51,1.05-.33,1.6.17.54.73.3,1.12.3,1.35.03,2.7,0,4.05.02.51,0,.79-.13.79-.71,0-.6-.32-.7-.81-.69-.9.02-1.81,0-2.95,0,1.13-1.24,2.04-2.32,3.03-3.32.51-.51.62-1.09.43-1.68-.19-.6-.8-.27-1.22-.33-.53-.08-1.12.13-1.69-.2.42-.55.97-.37,1.41-.53.89-.32,2.23.19,2.54-1.28.53.59,1.05,1.18,1.58,1.78-.16.21-.39.21-.62.23-1.32.09-1.31.09-.79,1.36.7,1.71,1.4,3.41,2.07,5.13.41,1.07-.15,1.9-1.26,1.82-.48-.03-.81-.17-.8.52,0,.59.11.91.82.93,1.73.05,2.42-.41,3.12-2.13.78-1.91,1.28-3.94,2.32-5.74.28-.02.56-.05.85-.07.36.12.48.46.69.73.77.99,1.22.89,1.78-.25.38-.78.51-1.51.17-2.31,1.37-.31,2.74-.68,4.12-.93,1.14-.21,1.58-.68,1.33-1.82-.17-.78-.41-1.55-.63-2.32.53-.01.81-.42,1.12-.75.58-.62,1.01-.34,1.2.27.38,1.2.77,2.43.95,3.67.22,1.61-.66,2.21-2.17,1.62-.14-.05-.27-.17-.45-.02-.17.25.14.37.2.57.12.43.54.86.21,1.3-.37.5-.89.25-1.38.13-.94-.22-2.31.51-2.81,1.4-1.2,2.14-1.73,4.53-2.6,6.79-1.37,3.59-3.23,6.91-5.18,10.19-.84,1.41-1.61,2.87-2.64,4.2-.76.99-1.57,1.74-2.76,2.1-.96.29-1.89.64-2.89.78-.34.05-.8.08-.98.3-.87,1.12-2.06.81-3.19.85-.57.02-1.2-.08-1.42.68-.29.49-.7.87-1.18,1.17-.73.11-1.36.37-1.61,1.15-.42.11-.71-.05-.92-.41-.06-.59.88-1.14.24-1.68-.71-.58-1.45.03-2.15.29-.16.06-.27.26-.4.39-.85-.21-1.29-1.02-2.04-1.39-.04-.14-.08-.28-.11-.43.64-.21,1.37-.16,1.86-.76.33-.41.42-.85.16-1.27-.28-.45-.73-.36-1.12-.13-.49.28-1.02.3-1.55.31-.07-.03-.11-.08-.12-.16.47-.32,1.31-.45.99-1.26-.35-.87-1.08-.35-1.67-.24-.04,0-.07,0-.11.01,0-.49.41-.7.67-1.02,1.08-1.33,1.15-2.11.28-2.93,1.87.12,3.67-.04,5.23-1.24.47-.36.89-.75.76-1.43v-.08c.36-.37.34-.76.07-1.17-.34-1.12-1.23-1.73-2.14-2.33.04-.15.04-.36.14-.43,2.3-1.55,3.56-3.96,5.09-6.15.19-.27.59-.55.44-.88-.21-.46-.6-.04-.9,0-.64.09-1.2-.22-1.81-.28Z"/>
      <path class="cls-4" d="m128.87,50.83c.21.77.46,1.54.63,2.32.24,1.14-.19,1.62-1.33,1.82-1.38.25-2.75.61-4.12.93-.23-.13-.5-.22-.7-.39-.75-.64-1.15-.5-1.36.47-.13.59-.38,1.16-.58,1.74-.28.02-.56.05-.85.07-.56-.61-1.28-.77-2.07-.72-.41.01-.53-.48-.9-.53-.48-.61-1.26-.56-1.88-.86-.53-.59-1.05-1.18-1.58-1.77-.41-.7-1.12-.84-1.81-.75-1.52.21-3.06.32-4.52.84-.62,0-1.23.51-1.87.07-.16-.62-.32-1.25-.49-1.87.02-.22.04-.45.05-.67.91-.75,1.86-1.44,1.67-2.88-.08-.59.44-.75.97-.54.52.21.98.26,1.26-.34.41-.88,1.07-.99,1.9-.66,1.21.97,2.2,2.25,3.92,2.46.8.1.95.68.51,1.38-.24.37-.42.82-.03,1.15.29.25.74.23,1.09.02.45-.27.45-.73.32-1.13-.39-1.17-.67-2.34-.46-3.59.55-.11,1.1-.15,1.6.18.4.62.81,1.25,1.21,1.87.23.57.8.82,1.19,1.23.18.19.43.42.71.28.29-.16.36-.51.32-.82-.07-.69-.27-1.36-.15-2.07.55-.17.95.1,1.31.46.27.57.43,1.21.94,1.65.07.07.15.14.22.21.23.27.57.32.84.21,1.26-.51,2.57.51,3.81-.17.07.14.15.28.22.41Z"/>
      <path class="cls-1" d="m102.91,86.05c.48-.3.89-.67,1.18-1.17.89-.17,1.78-.5,2.65.14.31.22.68.15.95-.13,1.45-1.49,3.38-1.44,5.23-1.61.28-.03.65-.12.84.21.2.35-.1.57-.3.79-.19.21-.3.44-.32.72-.44-.31-.87-.61-1.46-.54-1.76.2-3.49.49-4.65,2.05-.34-.03-.71.01-1.02-.1-.92-.34-1.69-.11-2.49.4-.56.36-1.19.92-1.98.41.47-.38,1.11-.55,1.38-1.17Z"/>
      <path class="cls-15" d="m107.02,86.5c1.16-1.57,2.89-1.85,4.65-2.05.59-.07,1.02.23,1.46.54.06.06.11.11.17.16.4.58,1,.43,1.56.43.6,0,1.23-.16,1.73.34.03.28.06.56.08.83-.06.23-.13.46-.19.69-1.14.03-2.18-.18-3.1-.97-.85-.73-1.89-.74-2.96-.54-1.13.21-2.22.61-3.39.57Z"/>
      <path class="cls-8" d="m128.21,45.7c.57.54,1.13.11,1.57-.14.51-.28.96-.83,1.35.01.32.69.09,1.27-.71,1.52-.04.01-.08.01-.11.02-.56.06-1.08-.11-1.62-.23-.68-.69-1.29-1.09-1.49.35-.03.2-.23.38-.36.57-.22.09-.39.23-.47.46-.15,0-.31,0-.46,0-.5-.44-1.32-.55-1.4-1.4.07-.26.16-.51.2-.77.2-1.33.44-1.46,1.72-1.05.61.2,1.09.73,1.79.65Z"/>
      <path class="cls-1" d="m125.9,48.26c.15,0,.31,0,.46,0,.74.32,1.45.01,2.13-.2.32-.1.59-.38.91-.06.28.28.16.61.1.96-.11.6-.6.96-.86,1.46-1.24.69-2.56-.34-3.81.17-.27.11-.61.07-.84-.21.42-.23.74-.55.98-.96.42-.3.87-.57.93-1.16Z"/>
      <path class="cls-1" d="m116.58,85.92c-.5-.5-1.13-.34-1.73-.34-.56,0-1.16.16-1.56-.43.8-.03,1.45-.49,2.17-.73.4-.13.79-.34,1.2-.41.44-.08,1.03-.23,1.23.31.18.47-.35.72-.67.96-.24.19-.53.32-.65.63Z"/>
      <path class="cls-12" d="m126.83,47.8c.12-.19.33-.37.36-.57.2-1.44.81-1.03,1.49-.35-.59.36-1.09.91-1.85.92Z"/>
      <path class="cls-8" d="m101.28,49.66c-.32-.48-.64-.97-.96-1.45.67-.28,1.63.01,1.91-1,.24-.91-.44-1.93-1.46-2.15-.52-.11-1.09-.08-1.39-.65.21-.58,1.27-.78.76-1.68.12-.08.25-.17.37-.25.55.66,1.25.41,1.93.31.05.22.02.52.15.65.83.83,2.46.31,2.93-.77.44-1.03.48-2.43,1.95-2.74,1.48-.31,2-1.31,1.48-2.88-.67,1.8-1.5,2.37-2.78,1.94.34-.46.25-.84-.03-1.35-.79-1.44-1.4-3-3.22-3.47.84-.83,1.25-1.98,2.27-2.72.59-.43,1.03-1.14,1.04-2.08.02-1.23.77-2.22,1.57-3.13-.04.8.11,1.61-.13,2.42-.17.56.1.97.68,1.14-.2.51,0,.93.27,1.37.29.48.84.77.98,1.35-.92.61-.9,1.91.05,2.75.31.49.55,1.05,1.15,1.27.63.99,2.96,1.16,3.72.25.1-.11.21-.27.21-.4-.04-.65.34-1.06.75-1.49.32-.35.36-.79-.08-1.1-.3-.22-2.22.76-2.16,1.11.18,1.03-.6,1.07-1.23,1.3.09-.49.02-1.19.31-1.42,1.27-.98.4-1.7-.15-2.5.69-.38.64-1.07.75-1.7.23-1.31.13-1.44-1.17-1.56.17-1.02,1.03-.79,1.56-.66,3.92,1,8.05,1.33,11.59,3.53,1.63,1.01,3.22,2.09,4.81,3.16.31.21.62.48.59.94-1.34-.58-1.38-.55-1.38.96,0,.61,0,1.21,0,1.82-1.16.53-1.92-.31-2.6-.93-.77-.7-1.48-.83-2.41-.55-.73.23-1.5.28-2.27.33-2.07.15-3.84,1.08-5.22,2.56-.68.73-1.4,1.18-2.33,1.34-1.1.19-2.12.39-2.42,1.73-.1.43-.55.65-.96.76-1.11.28-2.13.87-3.28,1-.63.07-.92.43-1.03,1.05-.09.52-.23,1.06-.46,1.54-.56,1.18-1.34,2.05-2.85,1.85-.6-.08-1.24-.11-1.81.22Z"/>
      <path class="cls-6" d="m129.61,41.09c.01.15,0,.32.05.45.57,1.37.05,2.26-1.51,2.59-.62-.76-1.42-1.19-2.34-1.5-.46-.16-.72-.56-.93.23-.16.59-.59.58-1.08.27-.4-.25-.73-.73-1.31-.54-.09-.37-.19-.74-.26-1.12-.18-1.05.21-1.59,1.27-1.52,1.03.07,1.41-.28,1.27-1.29-.03-.23-.13-.61.22-.69.35-.08.53.25.65.53.25.57.29,1.18.29,1.8,0,.62.43,1.12.92.57.78-.87,1.34-.55,2,.02.22.19.49.21.76.21h0Z"/>
      <path class="cls-6" d="m132.62,40.15c.8,1.84,2.14,3.41,2.8,5.33-1.67.44-1.85.42-2.75-1.02-.48-.76-1.19-1.3-1.7-2.04-.76-1.1-.4-2.02.95-2.27.22-.04.46,0,.69,0Z"/>
      <path class="cls-4" d="m122.48,42.58c.59-.19.91.29,1.31.54.49.31.92.32,1.08-.27.21-.79.47-.38.93-.23.93.31,1.73.74,2.34,1.5.23.52.53,1.03.06,1.58-.7.07-1.18-.46-1.79-.65-1.28-.41-1.52-.29-1.72,1.05-.04.26-.13.51-.2.77-.14-.02-.28-.03-.42-.05-.17-.36-.33-.73-.5-1.09.02-.27-.1-.5-.25-.71-.28-.81-.57-1.63-.85-2.44Z"/>
      <path class="cls-6" d="m111.29,47.1c-.82-.33-1.49-.22-1.9.66-.28.59-.73.54-1.26.34-.52-.21-1.04-.05-.97.54.19,1.44-.76,2.13-1.67,2.88-.5-.82-.34-1.54.37-2.14.73-.6,1.18-1.29,1.02-2.29-.06-.35.01-.72.42-.86.36-.13.69-.05.91.3.61.96.83.42,1.06-.25.16-.44.38-.89.89-.99.36-.08.77-.17,1.08.18.49.53.15,1.09.04,1.64Z"/>
      <path class="cls-6" d="m113.92,45.99c-1.27-.26-1.67-1.07-1.48-2.28.05-.32.1-.62.46-.72.36-.1.66.12.76.39.28.84.77,1.24,1.69,1.22.53,0,.68.42.41.92-.13.23-.22.48-.32.72-.48-.21-.98-.36-1.51-.26Z"/>
      <path class="cls-1" d="m123.58,45.73c.17.36.33.73.5,1.09-.8.29-.34,1.49-1.24,1.7-.37-.36-.76-.64-1.31-.46-.09-.01-.18-.02-.26-.03,0-.46,0-.93.01-1.39.65-.59,1.32-1.16,2.3-.92Z"/>
      <path class="cls-6" d="m128.91,38.76c0-.61,0-1.21,0-1.82,0-1.51.04-1.54,1.38-.96.08.15.16.3.25.45.15.39.3.77.46,1.16-.68.42-1.31.91-2.08,1.16Z"/>
      <path class="cls-6" d="m121.26,48.03c.09,0,.18.02.26.03-.12.7.07,1.38.15,2.07.03.31-.03.66-.32.82-.27.15-.53-.09-.71-.28-.4-.41-.96-.66-1.19-1.23.83-.18,1.11-1.07,1.81-1.41Z"/>
      <path class="cls-6" d="m105.45,52.2c.16.62.32,1.25.49,1.87-.15.23-.29.46-.44.69-.16-.02-.31-.05-.47-.07.45-1.49.31-1.67-1.21-1.55-.41.03-.81.16-1.21.24-.04-.09-.08-.18-.12-.27.34-.49.78-.77,1.41-.67.53.08,1.04-.08,1.54-.23Z"/>
      <path class="cls-6" d="m118.24,47.57c-.5-.33-1.05-.29-1.6-.18.21-.82.73-1.4,1.42-1.85.19-.13.36-.32.61-.15.26.18.31.43.19.71-.2.49-.41.98-.62,1.47Z"/>
      <path class="cls-4" d="m113.92,45.99c.54-.1,1.03.05,1.51.26.12.32.69.6.28.96-.37.33-.87.18-1.25-.14-.33-.28-.57-.61-.54-1.08Z"/>
      <path class="cls-2" d="m135.41,47.1c.12.38.77.65.23,1.16-.38,0-.76,0-1.14,0-.19-.39-.47-.78-.03-1.18.31,0,.63.02.94.02Z"/>
      <path class="cls-6" d="m123.58,45.73c-.99-.25-1.65.32-2.3.92-.39-.74.32-.88.68-1.14.39-.28.84-.54,1.37-.49.15.21.27.44.25.71Z"/>
      <path class="cls-8" d="m135.41,47.1c-.31,0-.63-.02-.94-.02.33-.62.65-.63.94.02Z"/>
      <path class="cls-8" d="m134.49,48.25c.38,0,.76,0,1.14,0-.39.62-.77.63-1.14,0Z"/>
      <path class="cls-8" d="m129.12,39.7c-.05-.09-.11-.18-.15-.27,0,0,.05-.04.08-.06.04.1.07.2.11.3,0,0-.04.03-.04.03Z"/>
      <path class="cls-8" d="m129.4,40.13c.05.09.11.18.15.27,0,0-.05.04-.08.06-.04-.1-.07-.2-.11-.3l.04-.03Z"/>
      <path class="cls-8" d="m129.36,40.16c-.08-.15-.16-.3-.24-.45,0,0,.04-.03.04-.03.08.15.16.3.23.46,0,0-.04.03-.04.03Z"/>
      <path class="cls-8" d="m129.6,41.08s.07-.06.1-.09c-.03.03-.06.07-.09.1,0,0,0,0,0,0Z"/>
      <path class="cls-11" d="m56.9,42.7c-.44,0-.89.04-1.26-.27-.15-1.45.19-2.9-.11-4.35,1.82.06,3.61.04,5.42-.3.8-.15,1.61-.29,2.4-.5.85-.22,1.3-.61.74-1.63-.64-1.17-.54-2.44.13-3.62.24-.42.54-.7.96-.16-.01.8-.07,1.6-.02,2.4.09,1.47,2.04,2.96,3.45,2.7,1.11.14,1.9-.37,2.54-1.22.59-.8,1.23-1.57,1.8-2.39.52-.75,1.18-1.14,2.12-1.15,1.27-.02,2.52-.11,3.32-1.38.28-.44.88-.4,1.38-.46.76-.09,1.8.03,2.21-.41,1.04-1.14,2.77-1.71,3.06-3.49.58-.38.63-.99.47-1.53-.19-.68-.15-1.36-.23-2.04,0-.41.19-.89-.4-1.08-.52-.5-1.34-.39-1.84-.93-.09-.15-.19-.3-.28-.45.11-.64.63-.46,1.01-.46,1.54,0,3.07.08,4.61.17,2.06.12,4.15-.05,6.22-.21,1.96-.15,3.93-.09,5.85.1,3.67.36,7.27,1.18,10.75,2.44.76.27,1.5.62,2.21,1,.51.28.98.65.88,1.36-.3.02-.52.16-.65.43-.09.02-.19.03-.28.05-.19-.49-.61-.42-.93-.3-.53.2-.94-.01-1.37-.24-.36-.33-.8-.39-1.28-.44-1.26-.11-2.43.4-3.64.5-1.52.13-2.04,1.14-2.52,2.31-.06.78-.11,1.57-.17,2.36-.23.49-.9.68-.93,1.32-.47.9-.74,1.82-.18,2.79-.76.79-1.54,1.6-2.74,1.62-.59,0-1,.33-1.44.61-1.63-.11-1.93.2-1.46,1.72.31.98-.04,1.34-.95,1.47-1.92.28-2.12.61-1.61,2.49-.63.49-1.65-.11-2.14.77-.22-.03-.43-.06-.65-.1-.66-.43-1.39-.1-2.08-.21,0,0,0,0,0,0-1.74-.48-3.49-.3-5.22.03-2.2.41-4.25,1.2-5.95,2.74-2.34,1.67-3.67,4.1-4.95,6.57-.88-.19-1.75.16-2.61.07-1.71-.18-2.58-1.54-3.54-2.7-1.93-2.34-4.33-3.96-7.21-4.88-.3-.09-.61-.29-.65.25-.37-.14-.74-.26-.95-.64-.07-.87-.49-1.12-1.28-.73Zm31.72-11.62c-.85-.42-1.73-.09-2.6-.09-.48,0-1.12.07-1.15.71-.03.69.45,1.01,1.15.96.86.17,1.66-.17,2.48-.3.3-.05.6-.19.69-.53.12-.47-.32-.53-.56-.74Z"/>
      <path class="cls-12" d="m111.75,29.01c1.3.12,1.4.25,1.17,1.56-.11.63-.06,1.33-.75,1.7-1.33-.43-2.57-.98-3.31-2.28-.07-.13-.33-.14-.51-.21-.58-.17-.85-.58-.68-1.14.24-.8.09-1.61.13-2.42,0-.15,0-.31,0-.46.21-.12.23-.31.21-.52.11-.18.28-.2.46-.16.08.08.16.16.24.24.36,1.22.96,2.37,1.02,3.7.02.5.17,1.31.88,1.26.56-.04.94-.6.91-1.26.07,0,.15,0,.22-.01Z"/>
      <path class="cls-10" d="m108.49,25.09c-.19-.04-.35-.02-.46.16-.15.01-.29.02-.44.04-.39.39-1.52-.16-1.34.79.18.96-.31.98-.9,1.03-.58.05-1.16.04-1.74.05.48-1.16,1-2.18,2.52-2.31,1.21-.1,2.38-.61,3.64-.5.48.04.92.1,1.28.44-.85.13-1.75-.2-2.56.3Z"/>
      <path class="cls-8" d="m111.53,29.02c.03.67-.34,1.22-.91,1.26-.72.05-.87-.76-.88-1.26-.05-1.33-.65-2.48-1.02-3.7,1.85.24,2.41,1.22,1.65,2.87-.31.67-.15.78,1.16.83Z"/>
      <path class="cls-9" d="m113.63,25.27c.14-.27.36-.4.65-.43.51.04.5-.32.5-.66.14.02.29.05.43.07.47.63,1.23.41,1.85.59.35.1.73.19.65.62-.09.46-.47.25-.74.15-1.02-.36-1.91.3-2.88.33-.15-.22-.31-.44-.46-.66Z"/>
      <path class="cls-10" d="m115.22,24.24c-.14-.02-.29-.05-.43-.07.38-.62,1.34-.5,1.63-1.25.56-.07,1.11-.15,1.67-.2.31-.03.66.02.75.36.1.4-.3.46-.56.57-.21.09-.44.12-.45.42-.5.02-.99.03-1.49.05-.14-.23-.26-.19-.35.04-.26.03-.51.05-.77.08Z"/>
      <path class="cls-9" d="m114.1,26.72c.65,0,1.3,0,1.95,0,.46,0,.89.18.92.66.03.47-.46.39-.78.47-1.39.37-1.98.06-2.09-1.13,0,0,0,0,0,0Z"/>
      <path class="cls-8" d="m113.63,25.27c.15.22.31.44.46.66,0,.26,0,.53,0,.79,0,0,0,0,0,0-.51-.02-.77-.42-1.07-.73-.47-.49-.11-.6.32-.68.09-.02.19-.03.28-.05Z"/>
      <path class="cls-9" d="m115.98,24.16c.09-.23.21-.27.35-.04-.09.25-.2.29-.35.04Z"/>
      <path class="cls-8" d="m117.61,20.85c.32-.58.86-.92,1.36-1.32.88.37,1.48,1.06,2.05,1.78.13.16.31.4.13.62-.19.22-.44.1-.62-.03-.88-.61-1.91-.79-2.91-1.06Z"/>
      <path class="cls-5" d="m95.15,81.99c.01.07.05.13.12.16.34.57.17,1.32.65,1.85.04.14.08.28.11.43-.45.36-.36.89-.24,1.28.69,2.16-.32,3.74-1.72,5.17-2.21,2.25-4.62,4.27-7.1,6.22-2.03,1.6-4.19,2.97-6.32,4.4-2.26,1.52-4.57,1.67-6.33-1.04-.21-.32-.36-.7-.83-.72-.1-.22-.19-.45-.29-.67-.09-.15-.18-.31-.27-.46-.69-.9-1.86-.45-2.69-.96-.16-.28-.4-.42-.71-.46-.66-.83-1.57-.45-2.37-.45-1.58,0-3.17.23-4.46-1.05-.33-.33-.85-.34-1.32-.33-.62,0-1.24.01-1.83-.23,0-.04,0-.08,0-.12-.03-.84-1.19-1.48-.45-2.44.52-.68,1.29-1.16,1.98-1.53,1.49-.82,2.67-2.11,4.2-2.79,1.66-.74,2.76-2.02,3.89-3.32.63-.73.51-1.21-.4-1.53-.73-.25-1.48-.42-2.21-.67-1.64-.55-2.98-1.5-4.21-2.73-2.25-2.24-4.94-3.61-8.24-3.43-.89.05-1.77-.01-2.63-.23-1.77-.45-3.29.34-4.87.9-2.4.85-4.75.74-6.99-.55-.24-.14-.47-.28-.44-.61.74.34,1.55.22,2.33.29.85.43,1.69.86,2.54,0,.3,0,.61-.01.91-.02,1.19.13,1.94-.32,1.93-1.14.21-.24.42-.47.63-.71.23-.08.46-.16.7-.24.89-.44,1.67-1.3,2.81-.87.57.21,1.14.16,1.71.18,2.29.07,4.5-.97,6.82-.46.82,1.8,1.81,3.49,3.25,4.88.06.72.61.68,1.12.71l.04.02.28.17c.07.03.13.07.2.1.08.05.16.09.24.14.07.03.15.07.22.1.08.04.17.08.25.12.07.03.14.06.2.08.06.07.13.14.19.2.06.24.21.4.45.49,2.21.82,4.44,1.18,6.76.44,3.17-1.02,5.77-2.85,7.83-5.46.81-1.03,1.54-1.15,2.54-.35.68.54,1.42.93,2.24,1.16,1.67.46,3.33.94,4.91,1.66.62.28,1.23.44,1.9.39.17.76-.09,1.57.23,2.32.06.51.15,1,.76,1.14.66.19,1.32.38,1.98.57Z"/>
      <path class="cls-6" d="m98.07,85.81c.13-.13.24-.33.4-.39.69-.27,1.44-.88,2.15-.29.64.53-.3,1.09-.24,1.68-.65-.61-1.58-.57-2.31-.99Z"/>
      <path class="cls-6" d="m73.21,99.06c.1.22.19.45.29.67-.04.09-.08.17-.12.26-.56.11-.69.58-.78,1.01-.08.35-.12.68-.49.83.02-1.06.36-2.01,1.11-2.78Z"/>
      <path class="cls-15" d="m70.73,105.58c.04-.92.69-1.41,1.35-1.89-.02.94-.72,1.39-1.35,1.89Z"/>
      <path class="cls-6" d="m102.91,86.05c-.26.62-.91.79-1.38,1.17-.08,0-.15,0-.23-.01.25-.78.88-1.04,1.61-1.15Z"/>
      <path class="cls-15" d="m72.09,103.68c.08-.58.51-.86.96-1.14-.01.64-.26,1.07-.96,1.14Z"/>
      <path class="cls-8" d="m51.25,118.99c.24-.39.44-.7,1.03-.71,1.19-.02,1.58-.72,1.12-1.88-.74-1.85-1.49-3.7-2.3-5.53-.31-.69-.29-.9.55-.95,1.03-.07,1.52.25,1.76,1.28.26,1.11.72,2.17,1.21,3.61.48-1.48.97-2.59,1.19-3.75.19-.96.66-1.12,1.51-1.13.92-.01.82.4.6.98-.6,1.54-1.21,3.07-1.81,4.61-.25,1-.64,1.95-1.11,2.87-.54,1.06-1.74,1.68-2.84,1.52-.53-.07-.99-.23-.9-.92Z"/>
      <path class="cls-1" d="m58.16,125.72c-.33.38-.75.22-1.15.18.35-.31.76-.16,1.15-.18Z"/>
      <path class="cls-6" d="m68.85,109.95c0-1.25,0-2.51,0-3.76,0-.36-.1-.8.46-.88-.04,1.11.34,2.19.25,3.32-.04.59-.15,1.06-.72,1.32Z"/>
      <path class="cls-2" d="m83.04,20.89c.5.54,1.32.42,1.84.93-1.36.06-1.39.1-.89,1.29.12.28.26.55.39.82v.45c-.99.83-1.38,2.27-2.73,2.76-.02,0-.01.07-.03.11-.48,1.32-1.29,1.85-2.7,1.49-1.18-.3-1.7.04-2.01,1.16-.3,1.09-1.23,1.76-2.05,1.36-1.74-.84-2.74-.13-3.53,1.34-.09.16-.29.25-.41.4-.99,1.21-1.72,2.57-2.32,4-1.41.26-3.35-1.23-3.45-2.7-.05-.8.01-1.6.02-2.4.16-.18.31-.35.47-.53,2.17-.68,2.39-1.57.79-3.21-.35-.36-.75-.68-1.05-1.08-.95-1.28-2.18-1.34-3.5-.78-.81.34-1.28.27-1.58-.63-.25-.76-.92-1.11-1.53-.53-1.34,1.26-2.91,1.19-4.54,1.08-.54-.38-.59-.7-.15-1.3.96-1.29,2.16-1.7,3.7-1.51.83.1,1.68.06,2.52-.09.75-.13,1.55-.21,2.19.37.57.52,1.06.56,1.49-.16.19-.33.56-.37.87-.51,4.02.24,7.97-.56,11.97-.72.47-.02.89-.29,1.17-.68.47-.63,1.11-.72,1.84-.74,1.06-.02,2.12.47,3.18.01Z"/>
      <path class="cls-10" d="m83.04,20.89c-1.06.46-2.12-.03-3.18-.01-.73.01-1.37.1-1.84.74-.28.38-.7.66-1.17.68-3.99.15-7.95.96-11.97.72,1.23-.54,2.56-.26,3.84-.43,1.78-.23,3.58-.51,5.33-.59,1.62-.08,2.81-.54,4.16-1.25,1.38-.73,3.03-.2,4.56-.3.09.15.18.3.28.45Z"/>
      <path class="cls-2" d="m52.59,24.77c-.43.12-.84.32-1.3.14-.4-.46-.23-.89.2-1.14.4-.23.91-.21,1.3.08.5.38-.02.64-.2.92Z"/>
      <path class="cls-2" d="m55.94,91.58c-.68.1-1.11.59-1.4,1.12-.42.75-1.05.96-1.75.76-1.66-.49-3.29.03-4.92.11-1.94.1-3.87.11-5.79-.11-2.59-.31-5.16-.82-7.58-1.82-1.45-.6-3.04-.96-3.94-2.57-.38-.69-1.32-1.12-2.17-1.4-.26-1.42.05-1.89,1.35-2.09.11-.02.31.03.33-.02.76-1.49,2.54-1.3,3.63-2.23.35-.3.71-.45,1.01-.12,1,1.12,2.36.76,3.58.95.83.13,1.69.09,2.54.09.47,0,.99-.02,1.34.25,1.48,1.15,3.54,1.36,4.74,2.96,1.05,1.39,2.49,1.88,4.19,1.63,1.69-.24,3.1.25,4.25,1.53.26.29.57.52.57.96Z"/>
      <path class="cls-2" d="m59.57,95.11c.59.24,1.21.24,1.83.23.47,0,.99,0,1.32.33,1.29,1.28,2.88,1.06,4.46,1.05.8,0,1.71-.38,2.37.45-.69,1.71-1.27,2.1-3.12,2.1-.65,0-1.31-.03-1.96.01-.64.04-1.18-.15-1.47-.7-.39-.73-.96-.79-1.65-.64-1.57.33-3.02.18-4.26-1-.38-.36-.96-.49-1.39-.8-.59-.43-.81-.94-.08-1.48.46-.34.92-.69,1.38-1.03.94.36,1.53,1.34,2.6,1.48Z"/>
      <path class="cls-2" d="m21.01,82.65c.43-.92.11-1.76-1-2.05-1.21-.32-1.79-1.2-2.44-2.09-.4-.55-.16-1.08.12-1.5.31-.47.72-.1,1.1.1.53.28,1.13.11,1.69.12.09.87.68,1.09,1.43,1.19,1.41.18,1.83.66,1.96,2.08.1,1.11.22,2.21.34,3.31.08.8.48,1.34,1.28,1.58.56.17,1.09.42,1.09,1.14-1.65.17-3.02-.31-4.06-1.67-.29-.38-.6-.83-1.16-.89-.03-.14-.06-.28-.08-.43.36-.29.2-.42-.15-.5-.04-.13-.08-.27-.12-.4Z"/>
      <path class="cls-10" d="m37.76,74.75c-1.3-1.22-1.2-2.73.24-3.77.76-.55,1.59-.92,2.54-.95,1.24.82,2.5,1.61,3.71,2.48,1.09.78,1.01,1.74-.22,2.27-1.13.48-2.36.59-3.58.47-.91-.09-1.8-.33-2.69-.5Z"/>
      <path class="cls-2" d="m15.08,76.02c-.25.51-.43,1.2-1.2.95-.98-.31-2-.82-2.03-1.96-.06-2.15-.22-4.31.11-6.46.09-.57.02-1.16.13-1.72.18-.93.61-1.04,1.3-.4.41.38.71.95,1.42.85-.34,2.15-.5,4.32-.43,6.5.02.82.18,1.59.72,2.24Z"/>
      <path class="cls-9" d="m37.76,74.75c.9.17,1.79.41,2.69.5,1.22.12,2.45.01,3.58-.47,1.23-.53,1.31-1.49.22-2.27-1.21-.86-2.47-1.66-3.71-2.48.22-.22.52-.18.79-.23,1.78,1.13,3.77,1.8,5.67,2.65.51,1.28-.3,2.09-1.06,2.91-.79.31-1.58.63-2.36.94-.69.01-1.38.03-2.07.04-.78-.07-1.58.05-2.33-.29-.08-.08-.16-.15-.25-.23-.07-.06-.14-.13-.21-.19-.43-.18-.75-.49-.96-.9Z"/>
      <path class="cls-2" d="m21.06,75.4c-.27,0-.57-.07-.8.03-.87.39-1.57.18-2.19-.49.1-.16.2-.32.3-.48.44-.69.88-1.49,1.87-1.12.94.35.89,1.23.82,2.05Z"/>
      <path class="cls-8" d="m21.36,83.97c.56.07.87.52,1.16.89,1.04,1.35,2.41,1.83,4.06,1.67-.22.86-.92.77-1.48.61-1.7-.49-2.94-1.59-3.74-3.17Z"/>
      <path class="cls-8" d="m21.13,83.04c.34.08.51.22.15.5-.05-.17-.1-.33-.15-.5Z"/>
      <path class="cls-5" d="m38.72,75.65c.07.06.14.13.21.19-.07-.06-.14-.13-.21-.19Z"/>
      <path class="cls-7" d="m88.09,68.95c-5.5-.07-10.34-4.63-10.94-9.9-.43-3.8.47-7.09,2.89-10.03,4.12-4.98,12.26-4.91,16.26.17,4.39,5.58,3.76,12.79-1.58,17.29-1.95,1.65-4.28,2.43-6.64,2.47Z"/>
      <path class="cls-9" d="m48.17,45.51c3.25-.57,6.2.38,8.63,2.38,2.09,1.72,3.4,4.13,3.95,6.88,1.15,5.82-2.01,12.19-8.29,13.86-2.4.64-4.64.13-6.86-.73-.06-.36-.36-.34-.62-.39,0,0-.01,0-.01,0-.38-.43-.81-.79-1.39-.92,0,0,0,0,0,0-.08-.08-.16-.16-.24-.23,0,0,0,0,0,0-1.01-1.36-2.01-2.72-3.02-4.08-.08-.11-.16-.23-.24-.34,0,0,.02.03.02.03-.09-.41-.16-.83-.28-1.24-.9-3.26-.59-6.38.93-9.41.85-1.7,2.24-2.9,3.53-4.21,0,0,0,0,0,0,1.3-.53,2.6-1.05,3.9-1.58Z"/>
      <path class="cls-5" d="m73.03,62.65c1.23,2.95,3.18,5.34,5.64,7.35-.48.42-1.02.59-1.67.54-.51-.04-1.09-.16-1.44.41-.15.39-.31.78-.43,1.18-.88,2.8-3.01,4.43-5.95,4.55-.26.01-.52.08-.78.11-1.06.08-1.97-.33-2.81-.91-.11-.21-.12-.53-.5-.42l-.82-.79c0-.64-.63-1.06-.6-1.71.06-.43.31-.93-.42-1.05-.04-.21-.09-.42-.13-.64.09-.07.26-.18.26-.19-.78-1.27.33-1.73,1.01-2.38,1-.95,2.1-1.76,3.04-2.8,1.49-1.64,2.89-3.64,5.6-3.26Z"/>
      <path class="cls-4" d="m75.56,70.94c.35-.58.93-.45,1.44-.41.65.05,1.19-.12,1.67-.54,1.98,1.14,4.09,1.92,6.34,2.35.19.25.39.27.61.03.11,0,.21.01.32.02,1.44,1.16,3.21,1.17,4.92,1.36.48.98,1.39,1.53,2.2,2.17-.12.27-.24.54-.36.81-.36.32-.38.79-.52,1.21-.67.05-1.28-.11-1.9-.39-1.58-.72-3.24-1.2-4.91-1.66-.82-.23-1.57-.62-2.24-1.16-1.01-.8-1.73-.68-2.54.35-2.06,2.61-4.65,4.44-7.83,5.46-2.32.75-4.55.38-6.76-.44-.24-.09-.39-.25-.45-.49,0,0,.05-.04.05-.04.09-.03.18-.06.27-.09.37.11.74.21,1.11.32.14.2.31.23.52.1.37.04.74.08,1.11.12.59.32,1.17.38,1.73-.07.27-.04.55-.08.82-.12.06.05.12.13.17.13,3.09-.05,7.49-4.04,7.75-7.09.04-.51.34-1.19-.46-1.48-.77-.72-1.71-.36-2.58-.42-.16-.02-.32-.04-.48-.06Z"/>
      <path class="cls-9" d="m93.05,75.93c-.82-.64-1.72-1.19-2.2-2.17-.11-.54.4-1.36-.65-1.49,2.46-.11,4.49-1.4,6.6-2.46.84.02,1.62.29,2.42.49.91.6,1.8,1.2,2.14,2.33-.02.39-.05.78-.07,1.17,0,0,0,.08,0,.08-1.57,1.89-3.71,2.39-6.02,2.5-.74-.15-1.48-.31-2.22-.46Z"/>
      <path class="cls-5" d="m59.13,44.07c.04-.54.35-.34.65-.25,2.89.91,5.28,2.53,7.21,4.88.96,1.17,1.84,2.53,3.54,2.7.86.09,1.73-.27,2.61-.07q-.61,3.04-3.68,3.01c-.84,0-1.67-.05-2.51-.08,0-.23.09-.5,0-.67-.68-1.22-1.38-2.43-2.1-3.63-.14-.24-.41-.32-.7-.28-1.15-1.77-2.32-3.53-4.13-4.72-.19-.4-.56-.62-.88-.89Z"/>
      <path class="cls-15" d="m66.34,59.24c1.78-.12,3.56-.15,5.34,0-.12.4-.07,1.22-.2,1.15-.89-.43-1.67,1.61-2.53.08-.03-.05-.24-.06-.3-.01-.52.45-1.04.91-1.43,1.49-.35.52.13.6.37.86.22.24-.04.48-.19.71-1.4,2.13-3.11,4-5.09,5.59-.69.55-.78.95-.16,1.54-.16.03-.31.06-.47.08-.92.06-1.99-.17-2.23,1.18-.52-.13-1.02-.22-1.56.01-1.41.62-2.93.95-4.45.99-.88.02-1.89.2-2.71-.44,1.04-.15,2.07-.3,3.11-.45,1.75-.16,3.37-.78,4.86-1.66,4.27-2.52,7.7-5.64,7.63-11.15Z"/>
      <path class="cls-4" d="m62.15,70.66c-.62-.58-.53-.99.16-1.54,1.99-1.59,3.69-3.46,5.09-5.59.15-.22.41-.46.19-.71-.24-.26-.72-.33-.37-.86.39-.59.91-1.04,1.43-1.49.06-.05.28-.04.3.01.85,1.52,1.64-.52,2.53-.08.13.06.08-.76.2-1.15.36-.11.56,0,.65.4.21,1.01.47,2,.71,3-2.71-.38-4.12,1.62-5.6,3.26-.94,1.04-2.05,1.85-3.04,2.8-.68.65-1.79,1.11-1.01,2.38,0,0-.17.13-.25.19-.32-.21-.65-.41-.97-.62Z"/>
      <path class="cls-5" d="m92,42.3c.49-.88,1.51-.28,2.14-.77.19.07.3.33.56.26.69.78,1.39.66,2.04-.03.31-.32.49-.82,1.09-.6.66,1.01.71,2.32,1.56,3.25.3.58.87.54,1.39.65,1.01.21,1.7,1.24,1.46,2.15-.27,1.01-1.24.72-1.91,1-1.36-1.99-3.24-3.39-5.26-4.65-.96-.6-2.09-.74-3.07-1.25Z"/>
      <path class="cls-6" d="m99.23,70.31c-.8-.2-1.59-.47-2.42-.49.9-.94,1.8-1.87,2.68-2.82,1.19-1.29,1.8-2.94,2.7-4.41.61.06,1.17.37,1.81.27.3-.04.69-.47.9,0,.15.32-.26.61-.44.88-1.53,2.19-2.79,4.59-5.09,6.15-.1.07-.09.28-.14.43Z"/>
      <path class="cls-13" d="m66.34,59.24c.07,5.5-3.36,8.63-7.63,11.15-1.49.88-3.11,1.5-4.86,1.66.47-.56,1.21-.56,1.81-.84,1.86-.87,3.37-2.2,4.9-3.5.18.41.53.32.76.16,1.03-.72,1.94-1.55,2.29-2.83,1.17-1.42,1.52-3.17,1.98-4.88.1-.37-.04-1.04.73-.91Z"/>
      <path class="cls-7" d="m44.28,47.1c-1.29,1.31-2.68,2.51-3.53,4.21-1.52,3.04-1.83,6.15-.93,9.41.11.41.19.82.28,1.24-.78-.65-.86-1.63-1-2.49-.73-4.57.23-8.63,3.88-11.77.37-.32.72-.71,1.3-.61Z"/>
      <path class="cls-4" d="m50.74,72.5c.82.63,1.83.46,2.71.44,1.52-.04,3.04-.37,4.45-.99.53-.24,1.04-.15,1.56-.01.09.38.25.76.11,1.16-2.32-.51-4.53.53-6.82.46-.57-.02-1.15.04-1.71-.18-1.15-.43-1.92.43-2.81.87.06-.66.75-1.06.72-1.76.24.02.48.05.73.07,0,0,.11,0,.11,0,.32-.11.64-.15.97-.06Z"/>
      <path class="cls-10" d="m78.1,44.76c1.69-1.54,3.75-2.33,5.95-2.74,1.72-.32,3.47-.51,5.22-.03-3.35.06-6.5.82-9.27,2.78-.66.47-1.26-.15-1.89-.01Z"/>
      <path class="cls-15" d="m90.2,72.28c1.05.13.54.95.65,1.49-1.71-.19-3.47-.2-4.92-1.36,1.42-.07,2.85.15,4.26-.12Z"/>
      <path class="cls-4" d="m64.15,49.68c.29-.04.56.04.7.28.72,1.2,1.42,2.41,2.1,3.63.1.17,0,.45,0,.67-.82.21-1.3-.05-1.49-.93-.27-1.28-.78-2.48-1.32-3.66Z"/>
      <path class="cls-1" d="m102.61,53.38c.4-.08.8-.21,1.21-.24,1.52-.12,1.65.07,1.21,1.55-.69.16-1.43.07-2.07.43-.12-.58-.23-1.16-.35-1.74Z"/>
      <path class="cls-9" d="m63.62,65.03c-.35,1.28-1.27,2.11-2.29,2.83-.23.16-.58.25-.76-.16.62-1.34,1.71-2.16,3.05-2.67Z"/>
      <path class="cls-4" d="m102.95,55.12c.65-.36,1.38-.27,2.07-.43.16.02.31.05.47.07.27.58-.07.89-.55,1.03-.61.18-1.23.44-1.9.23-.03-.3-.06-.6-.09-.9Z"/>
      <path class="cls-13" d="m45.94,75.37c.76-.82,1.57-1.63,1.06-2.91.4-.26.81-.11,1.22-.04-.02.76-.56,1.34-.7,2.06-.21.24-.42.47-.63.71-.26.07-.51.15-.76.22-.06-.03-.12-.04-.18-.03Z"/>
      <path class="cls-9" d="m59.13,44.07c.33.27.69.49.88.89-1.07.63-1.81.1-2.49-.68.07-.28.13-.55.2-.83.15,0,.31-.01.46-.02.21.38.58.51.95.64Z"/>
      <path class="cls-13" d="m40.33,62.27c1.01,1.36,2.01,2.72,3.02,4.08-1.43-.99-2.6-2.18-3.01-3.94-.04-.04-.05-.09,0-.14Z"/>
      <path class="cls-1" d="m48.17,45.51c-1.3.53-2.6,1.05-3.9,1.58.96-1.36,2.46-1.38,3.9-1.58Z"/>
      <path class="cls-15" d="m47.52,74.48c.15-.72.68-1.3.7-2.06.24.02.47.04.71.06.04.7-.66,1.1-.72,1.76-.23.08-.46.16-.7.24Z"/>
      <path class="cls-13" d="m43.57,66.58c.58.13,1.01.49,1.39.92-.52-.22-1.06-.41-1.39-.92Z"/>
      <path class="cls-10" d="m89.27,41.99c.69.12,1.42-.22,2.08.21-.7-.02-1.41.12-2.08-.21Z"/>
      <path class="cls-13" d="m44.97,67.51c.26.05.56.03.62.39-.21-.13-.41-.26-.62-.39Z"/>
      <path class="cls-7" d="m40.33,62.27s-.04.09,0,.14c-.25-.07-.28-.26-.25-.48.08.11.16.23.24.34Z"/>
      <path class="cls-15" d="m85.62,72.38c-.22.24-.42.22-.61-.03.2.01.4.02.61.03Z"/>
      <path class="cls-13" d="m43.34,66.35c.08.08.16.16.24.23-.08-.08-.16-.16-.24-.23Z"/>
      <polygon class="cls-15" points="49.77 72.56 49.66 72.56 49.71 72.52 49.77 72.56"/>
      <path class="cls-2" d="m58.18,43.43c-.15,0-.31.01-.46.02-.29-.23-.7-.32-.82-.75.79-.4,1.21-.14,1.28.73Z"/>
      <path class="cls-2" d="m70.26,97.63c.83.51,2,.06,2.69.96-.59.38-.72,1.08-1.09,1.61-1.8,0-1.85-.05-1.62-1.88.03-.23.02-.46.02-.69Z"/>
      <path class="cls-8" d="m47.27,116.9c-.66,0-1.31.02-1.97,0-.35-.01-.86.19-.98-.34-.1-.46-.17-.92.3-1.36.95-.89,1.8-1.89,2.69-2.84.15-.16.4-.31.31-.57-.1-.28-.38-.2-.6-.2-.54-.01-1.08-.03-1.62,0-.61.04-.92-.13-.92-.82,0-.71.35-.82.94-.81,1.23.02,2.47-.01,3.7.02.39,0,.94-.23,1.11.31.17.55.15,1.11-.33,1.6-.91.93-1.78,1.91-2.66,2.88-.15.16-.4.31-.29.57.11.27.39.18.61.19.54.01,1.08,0,1.62,0,.51.02,1.14-.18,1.12.72-.03.92-.7.63-1.18.65-.61.04-1.23,0-1.85,0Z"/>
      <path class="cls-4" d="m42.66,113.88c.06,0,.13.01.19.02.03.29.05.58.08.86-.42.18-.85.35-1.27.55-.56.26-1.12.31-1.67.03-.48-.25-1.1-.55-.98-1.14.12-.58.79-.27,1.21-.29.81-.05,1.62-.02,2.43-.03Z"/>
      <path class="cls-4" d="m43.1,115.06c-.06-.09-.13-.19-.19-.28.06.09.13.19.19.28Z"/>
      <path class="cls-4" d="m40.58,110.8c.42.34.97.54,1.18,1.11-.12.36.13.97-.47,1.01-.74.06-1.54.25-2.22-.13-.31-.17.03-.52.2-.77.35-.51,1.05-.63,1.31-1.23Z"/>
      <path class="cls-8" d="m107.8,54c1.46-.51,3-.63,4.52-.84.68-.09,1.39.05,1.81.75-.31,1.47-1.65.96-2.54,1.28-.44.16-.99-.02-1.41.53.57.34,1.15.12,1.69.2.42.07,1.02-.27,1.22.33.19.6.08,1.17-.43,1.68-.99,1-1.91,2.07-3.03,3.32,1.14,0,2.04.01,2.95,0,.49,0,.81.09.81.69,0,.58-.29.71-.79.71-1.35-.02-2.7.01-4.05-.02-.39,0-.94.23-1.12-.3-.17-.55-.17-1.14.33-1.6,1.08-.98,1.99-2.11,3.08-3.42-.94,0-1.68,0-2.43,0-1.02-.01-1.45-.58-.92-1.43.4-.64.28-1.24.32-1.88Z"/>
      <path class="cls-8" d="m118.48,57.08c.79-.05,1.51.11,2.07.72-1.05,1.8-1.54,3.83-2.32,5.74-.7,1.72-1.39,2.19-3.12,2.13-.71-.02-.81-.34-.82-.93,0-.69.32-.55.8-.52,1.11.08,1.68-.75,1.26-1.82-.67-1.72-1.37-3.43-2.07-5.13-.52-1.27-.53-1.27.79-1.36.24-.02.46-.02.62-.23.62.3,1.4.24,1.88.86-.54.66-.88-.36-1.47-.13.39,1.3.74,2.61,1.46,4.14.46-1.36.88-2.36.91-3.48Z"/>
      <path class="cls-8" d="m121.4,57.72c.2-.58.45-1.15.58-1.74.21-.97.62-1.11,1.36-.47.2.17.46.27.7.39.33.8.21,1.53-.17,2.31-.55,1.13-1.01,1.24-1.78.25-.21-.27-.33-.61-.69-.73Z"/>
      <path class="cls-8" d="m93.05,75.93c.74.15,1.48.31,2.22.46.01.05.02.11.03.16.88.82.8,1.59-.28,2.93-.26.32-.67.54-.67,1.02-.15,0-.3.01-.45.02-.31-.01-.47.14-.47.45-.09.15-.18.3-.26.45-.62-.14-.7-.64-.76-1.14,1.51-.09,2.54-1.26,2.41-2.7-.06-.66-.53-.61-.91-.49-.51.16-.89.09-1.21-.33.12-.27.24-.54.36-.81Z"/>
      <path class="cls-8" d="m95.92,83.99c-.48-.52-.31-1.27-.65-1.85.54-.01,1.06-.03,1.55-.31.39-.22.84-.32,1.12.13.26.42.17.86-.16,1.27-.49.6-1.22.55-1.86.76Z"/>
      <path class="cls-6" d="m93.17,81.42c.09-.15.18-.3.26-.45.29,0,.45-.16.47-.45.15,0,.3-.01.45-.02.04,0,.08,0,.11-.01.59-.1,1.32-.62,1.67.24.32.81-.52.94-.99,1.26-.66-.19-1.32-.38-1.98-.57Z"/>
      <path class="cls-6" d="m95.3,76.55c0-.05-.02-.11-.03-.16,2.31-.11,4.45-.61,6.02-2.5.13.68-.29,1.06-.76,1.43-1.56,1.2-3.36,1.36-5.23,1.24Z"/>
      <path class="cls-6" d="m101.3,73.8c.02-.39.05-.78.07-1.17.27.41.29.8-.07,1.17Z"/>
      <path class="cls-12" d="m122.84,48.52c.9-.21.44-1.42,1.24-1.7.14.01.28.03.42.05.08.85.9.96,1.4,1.4-.06.59-.5.87-.93,1.16-.6-.06-.95.26-1.2.75-.51-.44-.67-1.08-.94-1.65Z"/>
      <path class="cls-12" d="m118.48,57.08c-.03,1.12-.45,2.12-.91,3.48-.72-1.53-1.07-2.84-1.46-4.14.59-.23.93.79,1.47.13.38.05.49.54.9.53Z"/>
      <path class="cls-6" d="m123.78,50.17c.25-.49.6-.81,1.2-.75-.23.42-.56.73-.98.96-.07-.07-.15-.14-.22-.21Z"/>
      <path class="cls-5" d="m98.15,35.85c.45-.28.85-.6,1.44-.61,1.2-.01,1.97-.82,2.74-1.62.2.18.39.35.59.53,1.82.47,2.43,2.03,3.22,3.47.28.51.37.89.03,1.35-.95.15-1.88.32-2.3,1.38-.11.29-.44.25-.69.3-.46-.41-.93-.81-1.39-1.22-1.51-.9-2.46-2.36-3.64-3.58Z"/>
      <path class="cls-2" d="m98.15,35.85c1.18,1.23,2.13,2.69,3.64,3.58-.43.32-.87.63-1.29.95-.88.66-1.11,1.43-.36,2.34.51.91-.56,1.1-.76,1.68-.85-.92-.89-2.23-1.56-3.25,0-.15.03-.31.01-.46-.05-.48.23-1.22-.34-1.33-.56-.11-1.06.37-1.35,1.01-.28.63-.8,1.12-1.46,1.42-.26.07-.36-.19-.56-.26-.52-1.88-.32-2.21,1.61-2.49.91-.13,1.26-.5.95-1.47-.48-1.52-.18-1.83,1.46-1.72Z"/>
      <path class="cls-2" d="m102.92,34.15c-.2-.18-.39-.35-.59-.53-.55-.97-.28-1.89.18-2.79.49.09.6,1.07,1.24.66.59-.37,1.37-.94,1.33-1.56-.06-.8-.99-.31-1.53-.43-.04,0-.08,0-.11,0,.06-.79.11-1.57.17-2.36.58-.01,1.16,0,1.74-.05.59-.05,1.08-.08.9-1.03-.18-.95.95-.4,1.34-.79,0,.19.04.38.23.48,0,.15,0,.31,0,.46-.8.91-1.55,1.9-1.57,3.13-.02.94-.45,1.65-1.04,2.08-1.01.74-1.42,1.89-2.27,2.72Z"/>
      <path class="cls-2" d="m103.18,40.65c.25-.05.58-.01.69-.3.42-1.06,1.35-1.22,2.3-1.38,1.28.44,2.11-.14,2.78-1.94.52,1.57,0,2.57-1.48,2.88-1.47.31-1.51,1.71-1.95,2.74-.46,1.08-2.1,1.6-2.93.77-.13-.13-.1-.43-.15-.65.36-.26.59-.56.26-1,.2-.36.56-.64.47-1.12Z"/>
      <path class="cls-4" d="m108.35,29.78c.17.07.43.09.51.21.74,1.3,1.99,1.84,3.31,2.28.55.8,1.42,1.52.15,2.5-.29.23-.22.93-.31,1.42-.4.11-.8.22-1.2.33-.61-.22-.85-.78-1.15-1.27,0-.92.2-1.84-.05-2.75-.14-.58-.68-.87-.98-1.35-.27-.44-.46-.86-.27-1.37Z"/>
      <path class="cls-2" d="m110.8,36.52c.4-.11.8-.22,1.2-.33.63-.22,1.41-.26,1.23-1.3-.06-.35,1.86-1.33,2.16-1.11.43.31.4.75.08,1.1-.4.43-.78.84-.75,1.49,0,.13-.11.28-.21.4-.76.9-3.09.74-3.72-.25Z"/>
      <path class="cls-12" d="m103.18,40.65c.09.48-.27.76-.47,1.12-.78.07-1.72-.36-2.19.7-.12.08-.25.17-.37.25-.75-.91-.52-1.68.36-2.34.43-.32.86-.63,1.29-.95.46.41.92.81,1.39,1.22Z"/>
      <path class="cls-5" d="m100.52,42.47c.47-1.05,1.41-.63,2.19-.7.33.44.09.74-.26,1.01-.68.1-1.38.35-1.93-.31Z"/>
      <path class="cls-12" d="m109.6,32.51c.25.91.05,1.83.05,2.75-.95-.84-.97-2.14-.05-2.75Z"/>
      <path class="cls-8" d="m68.6,36.98c.61-1.43,1.34-2.79,2.32-4,.12-.15.32-.24.41-.4.79-1.47,1.79-2.17,3.53-1.34.83.4,1.75-.27,2.05-1.36.31-1.12.83-1.46,2.01-1.16,1.41.36,2.22-.18,2.7-1.49.01-.04,0-.1.03-.11,1.35-.49,1.73-1.92,2.73-2.75.22.7.43,1.4.65,2.1-.29,1.78-2.02,2.36-3.06,3.49-.4.44-1.45.32-2.21.41-.5.06-1.1.01-1.38.46-.8,1.27-2.05,1.36-3.32,1.38-.94.02-1.59.4-2.12,1.15-.57.82-1.21,1.59-1.8,2.39-.63.86-1.43,1.36-2.54,1.22Z"/>
      <path class="cls-9" d="m103.44,29.51s.08-.01.11,0c.54.12,1.47-.37,1.53.43.05.61-.74,1.19-1.33,1.56-.65.4-.75-.57-1.24-.66.03-.64.69-.83.93-1.32Z"/>
      <path class="cls-8" d="m88.62,31.08c.24.21.69.27.56.74-.09.34-.39.48-.69.53-.82.13-1.62.48-2.48.3-.07-.48.2-.94.52-1.08.65-.27,1.38-.34,2.08-.5Z"/>
      <path class="cls-2" d="m88.62,31.08c-.7.15-1.43.23-2.08.5-.33.14-.6.6-.52,1.08-.69.05-1.18-.27-1.15-.96.03-.64.67-.71,1.15-.71.87,0,1.75-.32,2.6.09Z"/>
      <path class="cls-5" d="m85.03,26.47c-.22-.7-.43-1.4-.65-2.1,0-.15,0-.3,0-.45.34-.31.41-.85.9-1.03.08.68.04,1.36.23,2.04.15.55.1,1.15-.47,1.53Z"/>
      <path class="cls-8" d="m85.27,22.89c-.49.18-.56.72-.9,1.03-.13-.27-.27-.54-.39-.82-.5-1.19-.47-1.23.89-1.29.59.19.4.67.4,1.08Z"/>
      <path class="cls-8" d="m107.81,25.77c-.19-.1-.23-.28-.23-.48.15-.01.29-.02.44-.04.03.21,0,.4-.21.52Z"/>
      <path class="cls-7" d="m59.56,73.09c.15-.4-.02-.78-.11-1.16.24-1.35,1.31-1.12,2.23-1.18-.04.31-.49,1,.08.84,1.05-.29.84.52,1.02.9.39.81.63,1.7,1.49,2.19.27.26.55.52.82.79.03.3.18.46.49.42.84.59,1.75.99,2.81.91.33.35.75.24,1.17.27,1.01.07,1.88-.59,2.88-.5-.27.51-1.24.41-1.11,1.27-.16.08-.5.07-.42.25.07.17.37.09.5-.14,2.4-.33,5.31-3.34,5.46-5.7.03-.49.08-1.18-.82-.9,0-.12,0-.23,0-.35.87.06,1.82-.3,2.58.42-.5,2.78-1.73,5.11-4.1,6.78-1.04.73-2.29,1-3.36,1.65-.27.04-.55.08-.82.12-.58-.18-1.16-.28-1.73.07-.37-.04-.74-.08-1.11-.12-.15-.15-.32-.17-.52-.1-.37-.11-.74-.21-1.11-.32-.1-.04-.2-.08-.3-.12-.08-.02-.15,0-.21.05-.07-.03-.14-.06-.21-.08-.04-.14-.12-.19-.25-.12-.07-.03-.15-.07-.22-.1-.03-.14-.11-.19-.24-.14-.07-.03-.13-.07-.2-.1-.04-.14-.13-.2-.28-.17,0,0-.04-.02-.04-.02-.3-.34-.59-.71-1.12-.71-1.44-1.39-2.43-3.08-3.25-4.88Zm6.74,4.86c-.08-.09-.14-.28-.3-.08.1.02.2.05.3.07.12.16.27.26.57.07-.25-.03-.42-.05-.58-.07Zm-1.39-.7s.02.06.04.08c.01.01.04.01.06.02-.03-.03-.07-.06-.1-.09-.08-.16-.16-.31-.23-.47.71-.16,1.25.64,2.34.28-2.1-.78-3.46-2.02-4.33-3.79-.45.36-.31.68-.35.97-.9-.46-.79-1.44-1.12-2.19-.09-.2-.07-.52-.37-.47-.26.04-.49.21-.54.52-.13.91,1.12,2.74,2.01,2.96.25-.27-.29-.56.01-.83.36.33,1.11.5.48,1.22-.03,0-.05,0-.08,0,.03.03.06.07.09.1.22.53.57.91,1.17,1,.08.08.15.16.23.23.13.31.37.45.7.46Zm4.9,1h-2.63c1.09.26,1.84.56,2.63,0Zm-2.7-.92l-.04.05h.07s-.03-.05-.03-.05Z"/>
      <path class="cls-2" d="m92.7,76.74c.32.42.69.49,1.21.33.38-.12.85-.17.91.49.13,1.44-.9,2.62-2.41,2.7-.32-.75-.06-1.56-.23-2.32.14-.41.16-.88.52-1.21Z"/>
      <path class="cls-4" d="m46.12,75.41c.25-.07.51-.15.76-.22.01.82-.74,1.27-1.93,1.14.29-.43,1.11-.2,1.17-.93Z"/>
      <path class="cls-15" d="m46.12,75.41c-.06.72-.88.49-1.17.93-.3,0-.61.01-.91.02-.16-.01-.31-.03-.47-.04.79-.31,1.58-.63,2.36-.94.06,0,.13,0,.18.03Z"/>
      <path class="cls-4" d="m43.58,76.31c.16.01.31.03.47.04-.85.86-1.69.43-2.54,0,.69-.01,1.38-.03,2.07-.04Z"/>
      <path class="cls-4" d="m62.81,77.96c.52,0,.81.36,1.12.71-.51-.03-1.05.02-1.12-.71Z"/>
      <path class="cls-4" d="m64.44,78.97c.14-.05.22,0,.24.14-.08-.05-.16-.09-.24-.14Z"/>
      <path class="cls-4" d="m64.9,79.21c.13-.06.22-.02.25.12-.08-.04-.17-.08-.25-.12Z"/>
      <path class="cls-4" d="m65.36,79.42c.06-.05.13-.07.21-.05,0,.07,0,.14.03.21,0,0-.05.04-.05.04-.06-.07-.13-.13-.19-.2Z"/>
      <path class="cls-4" d="m63.96,78.7c.14-.03.23.03.28.17-.09-.06-.18-.11-.28-.17Z"/>
      <path class="cls-13" d="m72.44,76.57c-1-.09-1.87.57-2.88.5-.41-.03-.83.07-1.17-.27.26-.04.52-.1.78-.11,2.94-.12,5.07-1.75,5.95-4.55.13-.4.29-.79.43-1.18.16.02.32.04.48.06,0,.12,0,.23,0,.35-.34,1.9-1.04,3.6-2.7,4.75-.11-.14-.21-.33-.31,0h.01c-.38-.09-.52.12-.55.46h-.04Z"/>
      <path class="cls-13" d="m64.27,74.68c-.86-.49-1.09-1.38-1.49-2.19-.19-.38.03-1.19-1.02-.9-.57.15-.12-.53-.08-.84.16-.03.31-.06.47-.08.32.2.65.41.97.62.04.21.09.42.13.64-.09.44-.09.85.42,1.05-.02.65.61,1.07.6,1.71Z"/>
      <path class="cls-4" d="m63.66,72.97c-.51-.21-.51-.61-.42-1.05.73.12.48.62.42,1.05Z"/>
      <path class="cls-13" d="m65.58,75.88c-.32.04-.46-.12-.49-.42.37-.11.39.21.49.42Z"/>
      <path class="cls-13" d="m71.16,79.85c1.07-.65,2.32-.92,3.36-1.65,2.36-1.67,3.6-4,4.1-6.78.81.28.51.97.46,1.48-.26,3.05-4.66,7.04-7.75,7.09-.06,0-.12-.09-.17-.13Z"/>
      <path class="cls-13" d="m68.61,80.04c.56-.35,1.14-.25,1.73-.07-.56.45-1.14.4-1.73.07Z"/>
      <path class="cls-13" d="m66.98,79.81c.19-.07.37-.04.52.1-.2.13-.38.1-.52-.1Z"/>
      <path class="cls-13" d="m65.6,79.58c-.02-.07-.03-.14-.03-.21.1.04.2.08.3.12-.09.03-.18.06-.27.09Z"/>
      <path class="cls-12" d="m94.69,41.79c.66-.29,1.18-.79,1.46-1.42.29-.64.78-1.11,1.35-1.01.57.11.29.85.34,1.33.02.15,0,.31-.01.46-.6-.22-.78.28-1.09.6-.65.69-1.35.81-2.04.03Z"/>
      <path class="cls-12" d="m93.91,80.52c-.02.29-.18.44-.47.45,0-.31.16-.46.47-.45Z"/>
      <path class="cls-9" d="m72.44,76.57s.04,0,.04,0c.31,0,.44-.22.55-.47,0,0-.01,0-.01,0,.1,0,.21,0,.31,0,1.66-1.15,2.36-2.85,2.7-4.75.91-.28.86.41.82.9-.15,2.36-3.06,5.36-5.46,5.7-.03-.04-.05-.08-.07-.12-.13-.86.84-.76,1.11-1.27Z"/>
      <path class="cls-13" d="m62.33,74.25c.04-.28-.1-.61.35-.97.86,1.76,2.23,3.01,4.33,3.79-1.09.36-1.63-.45-2.34-.28h0c-.08-.53-.3-.65-.7-.23h0c-.59-.1-.95-.47-1.17-1,0,0-.04-.04-.04-.04l.03-.05c.63-.72-.12-.89-.48-1.22h.01Zm1.15,1.65c.05.04.13.13.15.12.15-.1.02-.16-.05-.22-.05-.04-.14-.14-.15-.13-.15.11-.04.17.05.23Z"/>
      <path class="cls-9" d="m62.32,74.24c-.3.27.23.55-.01.83-.89-.21-2.14-2.05-2.01-2.96.04-.32.28-.48.54-.52.3-.04.29.27.37.47.33.75.23,1.73,1.12,2.19,0,0-.01-.01-.01-.01Z"/>
      <path class="cls-13" d="m69.81,78.25c-.8.56-1.55.26-2.63,0h2.63Z"/>
      <path class="cls-13" d="m64.67,76.78c.08.16.16.31.23.47h0c-.32-.02-.57-.15-.7-.47h0c.16,0,.31,0,.47,0h0Z"/>
      <path class="cls-13" d="m66.3,77.95c.16.02.33.04.58.07-.31.18-.45.08-.57-.07h0Z"/>
      <path class="cls-9" d="m71.4,77.95c-.12.23-.43.3-.5.14-.08-.18.27-.18.42-.25.02.04.04.08.07.11Z"/>
      <path class="cls-13" d="m66.3,77.94c-.1-.02-.2-.05-.3-.07.16-.2.22-.01.3.08,0,0,0,0,0,0Z"/>
      <path class="cls-13" d="m64.9,77.25s.07.06.1.09c-.02,0-.05,0-.06-.02-.02-.02-.02-.05-.04-.08,0,0,0,0,0,0Z"/>
      <polygon class="cls-13" points="67.11 77.33 67.14 77.38 67.07 77.37 67.11 77.33"/>
      <path class="cls-9" d="m62.8,75.46l-.03.05s.04.04.04.04c-.03-.03-.06-.07-.09-.1.03,0,.05,0,.08,0Z"/>
      <path class="cls-13" d="m64.21,76.79c-.08-.08-.15-.16-.23-.23,0,0,0,0,0,0,.08.08.16.15.23.23h0Z"/>
      <path class="cls-7" d="m73.04,76.1c-.11.24-.24.46-.55.47.03-.33.17-.55.55-.47Z"/>
      <path class="cls-7" d="m73.34,76.1c-.1,0-.21,0-.31,0,.1-.33.21-.14.31,0Z"/>
      <path class="cls-7" d="m64.21,76.79c-.08-.08-.16-.15-.23-.23.4-.42.62-.3.7.23-.16,0-.31,0-.47,0Z"/>
      <path class="cls-7" d="m63.48,75.9c-.09-.06-.21-.12-.05-.23.01-.01.1.08.15.13-.03.03-.07.07-.1.1Z"/>
      <path class="cls-7" d="m63.58,75.79c.07.06.2.12.05.22-.02.01-.1-.08-.15-.12.03-.03.07-.07.1-.1Z"/>
    </g>
  </g>
</svg>